Primae-Cursive Bold.ufo
<glyph name="ampersand" format="2">
	<unicode hex="0026"/>
	<advance width="1615"/>
	<outline>
		<contour>
			<point x="1036" y="551" type="curve" smooth="yes"/>
			<point x="719" y="812"/>
			<point x="617" y="936"/>
			<point x="617" y="1136" type="curve" smooth="yes"/>
			<point x="617" y="1319"/>
			<point x="737" y="1425"/>
			<point x="870" y="1425" type="curve" smooth="yes"/>
			<point x="971" y="1425"/>
			<point x="1030" y="1359"/>
			<point x="1030" y="1270" type="curve" smooth="yes"/>
			<point x="1030" y="1178"/>
			<point x="986" y="1094"/>
			<point x="699" y="950" type="curve" smooth="yes"/>
			<point x="284" y="742"/>
			<point x="144" y="561"/>
			<point x="144" y="331" type="curve" smooth="yes"/>
			<point x="144" y="126"/>
			<point x="317" y="-12"/>
			<point x="546" y="-12" type="curve" smooth="yes"/>
			<point x="853" y="-12"/>
			<point x="1103" y="166"/>
			<point x="1258" y="484" type="curve" smooth="yes"/>
			<point x="1300" y="570"/>
			<point x="1306" y="603"/>
			<point x="1306" y="622" type="curve" smooth="yes"/>
			<point x="1306" y="671"/>
			<point x="1262" y="714"/>
			<point x="1198" y="714" type="curve" smooth="yes"/>
			<point x="1166" y="714"/>
			<point x="1152" y="700"/>
			<point x="1132" y="657" type="curve" smooth="yes"/>
			<point x="993" y="356"/>
			<point x="799" y="188"/>
			<point x="589" y="188" type="curve" smooth="yes"/>
			<point x="452" y="188"/>
			<point x="374" y="257"/>
			<point x="374" y="371" type="curve" smooth="yes"/>
			<point x="374" y="504"/>
			<point x="475" y="622"/>
			<point x="802" y="796" type="curve" smooth="yes"/>
			<point x="1151" y="982"/>
			<point x="1260" y="1136"/>
			<point x="1260" y="1303" type="curve" smooth="yes"/>
			<point x="1260" y="1484"/>
			<point x="1128" y="1625"/>
			<point x="889" y="1625" type="curve" smooth="yes"/>
			<point x="583" y="1625"/>
			<point x="387" y="1390"/>
			<point x="387" y="1105" type="curve" smooth="yes"/>
			<point x="387" y="875"/>
			<point x="499" y="705"/>
			<point x="871" y="403" type="curve" smooth="yes"/>
			<point x="1189" y="145"/>
			<point x="1260" y="76"/>
			<point x="1336" y="-12" type="curve" smooth="yes"/>
			<point x="1387" y="-72"/>
			<point x="1409" y="-100"/>
			<point x="1445" y="-100" type="curve" smooth="yes"/>
			<point x="1501" y="-100"/>
			<point x="1541" y="-63"/>
			<point x="1541" y="-5" type="curve" smooth="yes"/>
			<point x="1541" y="20"/>
			<point x="1526" y="64"/>
			<point x="1486" y="119" type="curve" smooth="yes"/>
			<point x="1415" y="216"/>
			<point x="1339" y="301"/>
		</contour>
	</outline>
</glyph>
<glyph name="slash" format="2">
	<unicode hex="002F"/>
	<advance width="967"/>
	<outline>
		<contour>
			<point x="49" y="-155" type="curve" smooth="yes"/>
			<point x="88" y="-155"/>
			<point x="107" y="-133"/>
			<point x="128" y="-96" type="curve" smooth="yes"/>
			<point x="1034" y="1501" type="line" smooth="yes"/>
			<point x="1065" y="1556"/>
			<point x="1067" y="1571"/>
			<point x="1067" y="1587" type="curve" smooth="yes"/>
			<point x="1067" y="1638"/>
			<point x="1005" y="1695"/>
			<point x="936" y="1695" type="curve" smooth="yes"/>
			<point x="902" y="1695"/>
			<point x="879" y="1678"/>
			<point x="847" y="1622" type="curve" smooth="yes"/>
			<point x="-61" y="25" type="line" smooth="yes"/>
			<point x="-74" y="3"/>
			<point x="-90" y="-25"/>
			<point x="-90" y="-54" type="curve" smooth="yes"/>
			<point x="-90" y="-107"/>
			<point x="-13" y="-155"/>
		</contour>
	</outline>
</glyph>
<glyph name="four" format="2">
	<unicode hex="0034"/>
	<advance width="1251"/>
	<outline>
		<contour>
			<point x="713" y="73" type="curve" smooth="yes"/>
			<point x="771" y="336"/>
			<point x="868" y="694"/>
			<point x="932" y="893" type="curve" smooth="yes"/>
			<point x="958" y="974"/>
			<point x="960" y="985"/>
			<point x="960" y="1003" type="curve" smooth="yes"/>
			<point x="960" y="1047"/>
			<point x="896" y="1082"/>
			<point x="825" y="1082" type="curve" smooth="yes"/>
			<point x="782" y="1082"/>
			<point x="763" y="1070"/>
			<point x="747" y="1018" type="curve" smooth="yes"/>
			<point x="665" y="753"/>
			<point x="569" y="403"/>
			<point x="501" y="129" type="curve" smooth="yes"/>
			<point x="490" y="85"/>
			<point x="490" y="76"/>
			<point x="490" y="65" type="curve" smooth="yes"/>
			<point x="490" y="21"/>
			<point x="543" y="-12"/>
			<point x="605" y="-12" type="curve" smooth="yes"/>
			<point x="650" y="-12"/>
			<point x="697" y="0"/>
		</contour>
		<contour>
			<point x="233" y="445" type="curve" smooth="yes"/>
			<point x="288" y="445"/>
			<point x="779" y="450"/>
			<point x="1082" y="456" type="curve" smooth="yes"/>
			<point x="1180" y="458"/>
			<point x="1191" y="545"/>
			<point x="1191" y="599" type="curve" smooth="yes"/>
			<point x="1191" y="646"/>
			<point x="1170" y="680"/>
			<point x="1097" y="680" type="curve" smooth="yes"/>
			<point x="987" y="680"/>
			<point x="420" y="659"/>
			<point x="211" y="645" type="curve"/>
			<point x="225" y="557" type="line"/>
			<point x="429" y="837"/>
			<point x="655" y="1149"/>
			<point x="789" y="1405" type="curve" smooth="yes"/>
			<point x="829" y="1481"/>
			<point x="835" y="1499"/>
			<point x="835" y="1522" type="curve" smooth="yes"/>
			<point x="835" y="1577"/>
			<point x="756" y="1625"/>
			<point x="672" y="1625" type="curve" smooth="yes"/>
			<point x="638" y="1625"/>
			<point x="620" y="1611"/>
			<point x="592" y="1556" type="curve" smooth="yes"/>
			<point x="444" y="1263"/>
			<point x="264" y="950"/>
			<point x="136" y="735" type="curve" smooth="yes"/>
			<point x="86" y="651"/>
			<point x="80" y="629"/>
			<point x="80" y="599" type="curve" smooth="yes"/>
			<point x="80" y="504"/>
			<point x="143" y="445"/>
		</contour>
	</outline>
</glyph>
<glyph name="seven" format="2">
	<unicode hex="0037"/>
	<advance width="1220"/>
	<outline>
		<contour>
			<point x="419" y="115" type="curve" smooth="yes"/>
			<point x="520" y="337"/>
			<point x="631" y="572"/>
			<point x="781" y="812" type="curve" smooth="yes"/>
			<point x="896" y="996"/>
			<point x="1056" y="1207"/>
			<point x="1200" y="1359" type="curve" smooth="yes"/>
			<point x="1262" y="1424"/>
			<point x="1280" y="1448"/>
			<point x="1280" y="1486" type="curve" smooth="yes"/>
			<point x="1280" y="1536"/>
			<point x="1238" y="1603"/>
			<point x="1172" y="1603" type="curve" smooth="yes"/>
			<point x="1142" y="1603"/>
			<point x="1109" y="1600"/>
			<point x="1070" y="1598" type="curve" smooth="yes"/>
			<point x="1011" y="1595"/>
			<point x="900" y="1592"/>
			<point x="747" y="1592" type="curve" smooth="yes"/>
			<point x="637" y="1592"/>
			<point x="543" y="1595"/>
			<point x="488" y="1597" type="curve" smooth="yes"/>
			<point x="427" y="1599"/>
			<point x="369" y="1600"/>
			<point x="329" y="1600" type="curve" smooth="yes"/>
			<point x="268" y="1600"/>
			<point x="233" y="1558"/>
			<point x="233" y="1502" type="curve" smooth="yes"/>
			<point x="233" y="1420"/>
			<point x="268" y="1381"/>
			<point x="318" y="1367" type="curve" smooth="yes"/>
			<point x="368" y="1353"/>
			<point x="442" y="1350"/>
			<point x="554" y="1350" type="curve" smooth="yes"/>
			<point x="764" y="1350"/>
			<point x="959" y="1363"/>
			<point x="1115" y="1387" type="curve"/>
			<point x="1097" y="1456" type="line"/>
			<point x="945" y="1324"/>
			<point x="754" y="1105"/>
			<point x="577" y="852" type="curve" smooth="yes"/>
			<point x="420" y="627"/>
			<point x="289" y="395"/>
			<point x="206" y="229" type="curve" smooth="yes"/>
			<point x="173" y="163"/>
			<point x="160" y="128"/>
			<point x="160" y="90" type="curve" smooth="yes"/>
			<point x="160" y="16"/>
			<point x="241" y="-12"/>
			<point x="303" y="-12" type="curve" smooth="yes"/>
			<point x="350" y="-12"/>
			<point x="376" y="21"/>
		</contour>
		<contour>
			<point x="578" y="705" type="curve" smooth="yes"/>
			<point x="745" y="705"/>
			<point x="876" y="714"/>
			<point x="937" y="724" type="curve" smooth="yes"/>
			<point x="1039" y="740"/>
			<point x="1072" y="784"/>
			<point x="1072" y="852" type="curve" smooth="yes"/>
			<point x="1072" y="897"/>
			<point x="1048" y="923"/>
			<point x="1004" y="923" type="curve" smooth="yes"/>
			<point x="972" y="923"/>
			<point x="926" y="920"/>
			<point x="885" y="916" type="curve" smooth="yes"/>
			<point x="840" y="912"/>
			<point x="723" y="908"/>
			<point x="629" y="908" type="curve" smooth="yes"/>
			<point x="618" y="908"/>
			<point x="493" y="909"/>
			<point x="439" y="911" type="curve" smooth="yes"/>
			<point x="386" y="913"/>
			<point x="332" y="915"/>
			<point x="297" y="915" type="curve" smooth="yes"/>
			<point x="236" y="915"/>
			<point x="220" y="876"/>
			<point x="220" y="829" type="curve" smooth="yes"/>
			<point x="220" y="774"/>
			<point x="249" y="725"/>
			<point x="308" y="716" type="curve" smooth="yes"/>
			<point x="342" y="711"/>
			<point x="435" y="705"/>
		</contour>
	</outline>
</glyph>
<glyph name="greater" format="2">
	<unicode hex="003E"/>
	<advance width="1200"/>
	<outline>
		<contour>
			<point x="452" y="1287" type="curve" smooth="yes"/>
			<point x="390" y="1287"/>
			<point x="332" y="1221"/>
			<point x="332" y="1160" type="curve" smooth="yes"/>
			<point x="332" y="1124"/>
			<point x="353" y="1103"/>
			<point x="413" y="1063" type="curve" smooth="yes"/>
			<point x="731" y="851" type="line" smooth="yes"/>
			<point x="767" y="827"/>
			<point x="775" y="820"/>
			<point x="775" y="807" type="curve" smooth="yes"/>
			<point x="775" y="796"/>
			<point x="766" y="789"/>
			<point x="729" y="772" type="curve" smooth="yes"/>
			<point x="239" y="545" type="line" smooth="yes"/>
			<point x="170" y="513"/>
			<point x="140" y="480"/>
			<point x="140" y="430" type="curve" smooth="yes"/>
			<point x="140" y="362"/>
			<point x="194" y="306"/>
			<point x="253" y="306" type="curve" smooth="yes"/>
			<point x="277" y="306"/>
			<point x="303" y="315"/>
			<point x="342" y="336" type="curve" smooth="yes"/>
			<point x="841" y="603" type="line" smooth="yes"/>
			<point x="957" y="665"/>
			<point x="995" y="733"/>
			<point x="995" y="806" type="curve" smooth="yes"/>
			<point x="995" y="865"/>
			<point x="964" y="923"/>
			<point x="872" y="994" type="curve" smooth="yes"/>
			<point x="556" y="1238" type="line" smooth="yes"/>
			<point x="508" y="1275"/>
			<point x="482" y="1287"/>
		</contour>
	</outline>
</glyph>
<glyph name="A" format="2">
	<unicode hex="0041"/>
	<advance width="1495"/>
	<outline>
		<contour>
			<point x="1053" y="1426" type="curve" smooth="yes"/>
			<point x="802" y="1135"/>
			<point x="376" y="660"/>
			<point x="-71" y="214" type="curve" smooth="yes"/>
			<point x="-135" y="151"/>
			<point x="-150" y="125"/>
			<point x="-150" y="102" type="curve" smooth="yes"/>
			<point x="-150" y="40"/>
			<point x="-91" y="-12"/>
			<point x="-40" y="-12" type="curve" smooth="yes"/>
			<point x="-8" y="-12"/>
			<point x="13" y="-2"/>
			<point x="39" y="24" type="curve" smooth="yes"/>
			<point x="475" y="469"/>
			<point x="860" y="906"/>
			<point x="1308" y="1444" type="curve"/>
			<point x="1220" y="1497" type="line"/>
			<point x="884" y="114" type="line" smooth="yes"/>
			<point x="878" y="87"/>
			<point x="877" y="77"/>
			<point x="877" y="68" type="curve" smooth="yes"/>
			<point x="877" y="18"/>
			<point x="938" y="-12"/>
			<point x="1008" y="-12" type="curve" smooth="yes"/>
			<point x="1065" y="-12"/>
			<point x="1110" y="-4"/>
			<point x="1125" y="72" type="curve" smooth="yes"/>
			<point x="1394" y="1447" type="line" smooth="yes"/>
			<point x="1403" y="1490"/>
			<point x="1405" y="1504"/>
			<point x="1405" y="1520" type="curve" smooth="yes"/>
			<point x="1405" y="1574"/>
			<point x="1343" y="1618"/>
			<point x="1267" y="1618" type="curve" smooth="yes"/>
			<point x="1214" y="1618"/>
			<point x="1191" y="1586"/>
		</contour>
	</outline>
	<anchor name="bottom" x="513" y="0"/>
	<anchor name="ogonek" x="989" y="0"/>
	<anchor name="top" x="1310" y="1600"/>
</glyph>
<glyph name="C" format="2">
	<unicode hex="0043"/>
	<advance width="682"/>
	<outline>
		<contour>
			<point x="615" y="-12" type="curve" smooth="yes"/>
			<point x="675" y="-12"/>
			<point x="747" y="27"/>
			<point x="747" y="121" type="curve" smooth="yes"/>
			<point x="747" y="170"/>
			<point x="707" y="188"/>
			<point x="672" y="188" type="curve" smooth="yes"/>
			<point x="486" y="188"/>
			<point x="370" y="314"/>
			<point x="370" y="612" type="curve" smooth="yes"/>
			<point x="370" y="972"/>
			<point x="607" y="1415"/>
			<point x="885" y="1415" type="curve" smooth="yes"/>
			<point x="951" y="1415"/>
			<point x="1000" y="1396"/>
			<point x="1063" y="1355" type="curve" smooth="yes"/>
			<point x="1094" y="1335"/>
			<point x="1111" y="1329"/>
			<point x="1127" y="1329" type="curve" smooth="yes"/>
			<point x="1177" y="1329"/>
			<point x="1227" y="1390"/>
			<point x="1227" y="1436" type="curve" smooth="yes"/>
			<point x="1227" y="1456"/>
			<point x="1221" y="1485"/>
			<point x="1175" y="1521" type="curve" smooth="yes"/>
			<point x="1103" y="1578"/>
			<point x="1003" y="1615"/>
			<point x="902" y="1615" type="curve" smooth="yes"/>
			<point x="472" y="1615"/>
			<point x="120" y="1094"/>
			<point x="120" y="588" type="curve" smooth="yes"/>
			<point x="120" y="210"/>
			<point x="323" y="-12"/>
		</contour>
	</outline>
	<anchor name="bottom" x="632" y="0"/>
	<anchor name="top" x="897" y="1600"/>
</glyph>
<glyph name="F" format="2">
	<unicode hex="0046"/>
	<advance width="1139"/>
	<outline>
		<contour>
			<point x="280" y="80" type="curve" smooth="yes"/>
			<point x="367" y="471"/>
			<point x="533" y="1085"/>
			<point x="673" y="1540" type="curve"/>
			<point x="435" y="1540" type="line"/>
			<point x="304" y="1139"/>
			<point x="137" y="532"/>
			<point x="55" y="168" type="curve" smooth="yes"/>
			<point x="44" y="119"/>
			<point x="40" y="95"/>
			<point x="40" y="73" type="curve" smooth="yes"/>
			<point x="40" y="18"/>
			<point x="88" y="-12"/>
			<point x="176" y="-12" type="curve" smooth="yes"/>
			<point x="235" y="-12"/>
			<point x="264" y="10"/>
		</contour>
		<contour>
			<point x="317" y="1375" type="curve" smooth="yes"/>
			<point x="368" y="1375"/>
			<point x="1085" y="1382"/>
			<point x="1152" y="1385" type="curve" smooth="yes"/>
			<point x="1226" y="1388"/>
			<point x="1259" y="1437"/>
			<point x="1259" y="1525" type="curve" smooth="yes"/>
			<point x="1259" y="1584"/>
			<point x="1229" y="1613"/>
			<point x="1158" y="1613" type="curve" smooth="yes"/>
			<point x="867" y="1613"/>
			<point x="397" y="1604"/>
			<point x="329" y="1600" type="curve" smooth="yes"/>
			<point x="275" y="1597"/>
			<point x="246" y="1546"/>
			<point x="246" y="1481" type="curve" smooth="yes"/>
			<point x="246" y="1422"/>
			<point x="272" y="1375"/>
		</contour>
		<contour>
			<point x="629" y="918" type="curve" smooth="yes"/>
			<point x="386" y="908" type="line"/>
			<point x="352" y="690" type="line"/>
			<point x="424" y="691"/>
			<point x="759" y="698"/>
			<point x="860" y="701" type="curve" smooth="yes"/>
			<point x="927" y="703"/>
			<point x="963" y="742"/>
			<point x="963" y="831" type="curve" smooth="yes"/>
			<point x="963" y="899"/>
			<point x="934" y="927"/>
			<point x="892" y="927" type="curve" smooth="yes"/>
			<point x="844" y="927"/>
			<point x="720" y="922"/>
		</contour>
	</outline>
</glyph>
<glyph name="I" format="2">
	<unicode hex="0049"/>
	<advance width="705"/>
	<outline>
		<contour>
			<point x="327" y="117" type="curve" smooth="yes"/>
			<point x="437" y="553"/>
			<point x="564" y="1043"/>
			<point x="687" y="1448" type="curve" smooth="yes"/>
			<point x="702" y="1497"/>
			<point x="705" y="1514"/>
			<point x="705" y="1528" type="curve" smooth="yes"/>
			<point x="705" y="1560"/>
			<point x="652" y="1600"/>
			<point x="567" y="1600" type="curve" smooth="yes"/>
			<point x="510" y="1600"/>
			<point x="486" y="1590"/>
			<point x="460" y="1504" type="curve" smooth="yes"/>
			<point x="343" y="1117"/>
			<point x="214" y="636"/>
			<point x="111" y="228" type="curve" smooth="yes"/>
			<point x="86" y="129"/>
			<point x="80" y="101"/>
			<point x="80" y="81" type="curve" smooth="yes"/>
			<point x="80" y="27"/>
			<point x="133" y="-12"/>
			<point x="201" y="-12" type="curve" smooth="yes"/>
			<point x="269" y="-12"/>
			<point x="305" y="28"/>
		</contour>
	</outline>
	<anchor name="bottom" x="169" y="0"/>
	<anchor name="ogonek" x="124" y="0"/>
	<anchor name="top" x="603" y="1600"/>
	<anchor name="topleft" x="530" y="1600"/>
</glyph>
<glyph name="J" format="2">
	<unicode hex="004A"/>
	<advance width="561"/>
	<outline>
		<contour>
			<point x="308" y="-103" type="curve"/>
			<point x="349" y="90" type="line"/>
			<point x="-116" y="-131"/>
			<point x="-263" y="-303"/>
			<point x="-263" y="-470" type="curve" smooth="yes"/>
			<point x="-263" y="-597"/>
			<point x="-160" y="-690"/>
			<point x="-12" y="-690" type="curve" smooth="yes"/>
			<point x="226" y="-690"/>
			<point x="416" y="-511"/>
			<point x="529" y="-43" type="curve" smooth="yes"/>
			<point x="656" y="485"/>
			<point x="815" y="1078"/>
			<point x="890" y="1314" type="curve" smooth="yes"/>
			<point x="931" y="1443"/>
			<point x="946" y="1491"/>
			<point x="946" y="1523" type="curve" smooth="yes"/>
			<point x="946" y="1570"/>
			<point x="915" y="1600"/>
			<point x="872" y="1600" type="curve" smooth="yes"/>
			<point x="847" y="1600"/>
			<point x="799" y="1596"/>
			<point x="771" y="1595" type="curve" smooth="yes"/>
			<point x="737" y="1594"/>
			<point x="661" y="1591"/>
			<point x="619" y="1591" type="curve" smooth="yes"/>
			<point x="576" y="1591"/>
			<point x="528" y="1592"/>
			<point x="480" y="1594" type="curve" smooth="yes"/>
			<point x="440" y="1596"/>
			<point x="380" y="1600"/>
			<point x="320" y="1600" type="curve" smooth="yes"/>
			<point x="265" y="1600"/>
			<point x="222" y="1568"/>
			<point x="222" y="1464" type="curve" smooth="yes"/>
			<point x="222" y="1419"/>
			<point x="245" y="1389"/>
			<point x="277" y="1381" type="curve" smooth="yes"/>
			<point x="328" y="1368"/>
			<point x="375" y="1367"/>
			<point x="470" y="1367" type="curve" smooth="yes"/>
			<point x="574" y="1367"/>
			<point x="670" y="1370"/>
			<point x="718" y="1378" type="curve"/>
			<point x="675" y="1401" type="line"/>
			<point x="576" y="1087"/>
			<point x="434" y="531"/>
			<point x="273" y="-146" type="curve" smooth="yes"/>
			<point x="209" y="-416"/>
			<point x="126" y="-510"/>
			<point x="34" y="-510" type="curve" smooth="yes"/>
			<point x="-7" y="-510"/>
			<point x="-33" y="-489"/>
			<point x="-33" y="-441" type="curve" smooth="yes"/>
			<point x="-33" y="-346"/>
			<point x="49" y="-233"/>
		</contour>
	</outline>
	<anchor name="bottom" x="-13" y="-670"/>
	<anchor name="center" x="537" y="717"/>
	<anchor name="top" x="810" y="1600"/>
</glyph>
<glyph name="K" format="2">
	<unicode hex="004B"/>
	<advance width="1065"/>
	<outline>
		<contour>
			<point x="327" y="117" type="curve" smooth="yes"/>
			<point x="437" y="553"/>
			<point x="564" y="1043"/>
			<point x="687" y="1448" type="curve" smooth="yes"/>
			<point x="702" y="1497"/>
			<point x="705" y="1514"/>
			<point x="705" y="1528" type="curve" smooth="yes"/>
			<point x="705" y="1560"/>
			<point x="652" y="1600"/>
			<point x="567" y="1600" type="curve" smooth="yes"/>
			<point x="510" y="1600"/>
			<point x="486" y="1590"/>
			<point x="460" y="1504" type="curve" smooth="yes"/>
			<point x="343" y="1117"/>
			<point x="214" y="636"/>
			<point x="111" y="228" type="curve" smooth="yes"/>
			<point x="86" y="129"/>
			<point x="80" y="101"/>
			<point x="80" y="81" type="curve" smooth="yes"/>
			<point x="80" y="27"/>
			<point x="133" y="-12"/>
			<point x="201" y="-12" type="curve" smooth="yes"/>
			<point x="269" y="-12"/>
			<point x="305" y="28"/>
		</contour>
		<contour>
			<point x="498" y="956" type="curve"/>
			<point x="431" y="733" type="line"/>
			<point x="465" y="659"/>
			<point x="518" y="540"/>
			<point x="604" y="386" type="curve" smooth="yes"/>
			<point x="789" y="53"/>
			<point x="875" y="-12"/>
			<point x="1005" y="-12" type="curve" smooth="yes"/>
			<point x="1068" y="-12"/>
			<point x="1118" y="55"/>
			<point x="1118" y="105" type="curve" smooth="yes"/>
			<point x="1118" y="171"/>
			<point x="1089" y="188"/>
			<point x="1055" y="188" type="curve" smooth="yes"/>
			<point x="990" y="188"/>
			<point x="954" y="233"/>
			<point x="774" y="538" type="curve" smooth="yes"/>
			<point x="640" y="765"/>
			<point x="613" y="814"/>
			<point x="574" y="897" type="curve"/>
			<point x="522" y="764" type="line"/>
			<point x="754" y="914"/>
			<point x="1112" y="1165"/>
			<point x="1354" y="1397" type="curve" smooth="yes"/>
			<point x="1388" y="1430"/>
			<point x="1397" y="1455"/>
			<point x="1397" y="1487" type="curve" smooth="yes"/>
			<point x="1397" y="1542"/>
			<point x="1338" y="1600"/>
			<point x="1278" y="1600" type="curve" smooth="yes"/>
			<point x="1248" y="1600"/>
			<point x="1235" y="1596"/>
			<point x="1178" y="1540" type="curve" smooth="yes"/>
			<point x="982" y="1348"/>
			<point x="769" y="1158"/>
		</contour>
	</outline>
	<anchor name="bottom" x="538" y="0"/>
	<anchor name="top" x="928" y="1600"/>
	<anchor name="topleft" x="530" y="1600"/>
</glyph>
<glyph name="L" format="2">
	<unicode hex="004C"/>
	<advance width="825"/>
	<outline>
		<contour>
			<point x="0" y="144" type="curve" smooth="yes"/>
			<point x="0" y="54"/>
			<point x="83" y="-25"/>
			<point x="180" y="-25" type="curve" smooth="yes"/>
			<point x="276" y="-25"/>
			<point x="407" y="44"/>
			<point x="484" y="223" type="curve" smooth="yes"/>
			<point x="557" y="392"/>
			<point x="612" y="595"/>
			<point x="678" y="891" type="curve" smooth="yes"/>
			<point x="776" y="1333"/>
			<point x="876" y="1425"/>
			<point x="1022" y="1425" type="curve" smooth="yes"/>
			<point x="1076" y="1425"/>
			<point x="1143" y="1406"/>
			<point x="1217" y="1367" type="curve" smooth="yes"/>
			<point x="1251" y="1349"/>
			<point x="1261" y="1346"/>
			<point x="1273" y="1346" type="curve" smooth="yes"/>
			<point x="1320" y="1346"/>
			<point x="1371" y="1408"/>
			<point x="1371" y="1465" type="curve" smooth="yes"/>
			<point x="1371" y="1489"/>
			<point x="1362" y="1505"/>
			<point x="1330" y="1530" type="curve" smooth="yes"/>
			<point x="1262" y="1583"/>
			<point x="1150" y="1625"/>
			<point x="1028" y="1625" type="curve" smooth="yes"/>
			<point x="744" y="1625"/>
			<point x="556" y="1433"/>
			<point x="460" y="948" type="curve" smooth="yes"/>
			<point x="370" y="491"/>
			<point x="346" y="374"/>
			<point x="285" y="222" type="curve" smooth="yes"/>
			<point x="257" y="153"/>
			<point x="221" y="137"/>
			<point x="187" y="137" type="curve" smooth="yes"/>
			<point x="175" y="137"/>
			<point x="155" y="141"/>
			<point x="155" y="162" type="curve" smooth="yes"/>
			<point x="155" y="177"/>
			<point x="169" y="192"/>
			<point x="203" y="192" type="curve" smooth="yes"/>
			<point x="238" y="192"/>
			<point x="269" y="180"/>
			<point x="375" y="121" type="curve" smooth="yes"/>
			<point x="539" y="30"/>
			<point x="652" y="-12"/>
			<point x="765" y="-12" type="curve" smooth="yes"/>
			<point x="813" y="-12"/>
			<point x="866" y="23"/>
			<point x="866" y="103" type="curve" smooth="yes"/>
			<point x="866" y="165"/>
			<point x="847" y="188"/>
			<point x="825" y="188" type="curve" smooth="yes"/>
			<point x="727" y="188"/>
			<point x="638" y="212"/>
			<point x="498" y="280" type="curve" smooth="yes"/>
			<point x="390" y="333"/>
			<point x="319" y="351"/>
			<point x="260" y="351" type="curve" smooth="yes"/>
			<point x="92" y="351"/>
			<point x="0" y="268"/>
		</contour>
	</outline>
	<anchor name="bottom" x="520" y="0"/>
	<anchor name="center" x="584" y="840"/>
	<anchor name="top" x="994" y="1625"/>
	<anchor name="topright" x="1340" y="1600"/>
</glyph>
<glyph name="M" format="2">
	<unicode hex="004D"/>
	<advance width="1786"/>
	<outline>
		<contour>
			<point x="23" y="-12" type="curve" smooth="yes"/>
			<point x="57" y="-12"/>
			<point x="78" y="-5"/>
			<point x="113" y="42" type="curve" smooth="yes"/>
			<point x="471" y="521"/>
			<point x="695" y="864"/>
			<point x="899" y="1230" type="curve"/>
			<point x="876" y="1271" type="line"/>
			<point x="829" y="884"/>
			<point x="796" y="651"/>
			<point x="775" y="509" type="curve" smooth="yes"/>
			<point x="756" y="379"/>
			<point x="750" y="340"/>
			<point x="750" y="309" type="curve" smooth="yes"/>
			<point x="750" y="241"/>
			<point x="820" y="188"/>
			<point x="890" y="188" type="curve" smooth="yes"/>
			<point x="928" y="188"/>
			<point x="973" y="198"/>
			<point x="1050" y="302" type="curve" smooth="yes"/>
			<point x="1134" y="416"/>
			<point x="1398" y="778"/>
			<point x="1746" y="1239" type="curve"/>
			<point x="1742" y="1272" type="line"/>
			<point x="1521" y="660" type="line" smooth="yes"/>
			<point x="1463" y="498"/>
			<point x="1425" y="353"/>
			<point x="1425" y="264" type="curve" smooth="yes"/>
			<point x="1425" y="93"/>
			<point x="1543" y="-12"/>
			<point x="1709" y="-12" type="curve" smooth="yes"/>
			<point x="1777" y="-12"/>
			<point x="1816" y="33"/>
			<point x="1816" y="115" type="curve" smooth="yes"/>
			<point x="1816" y="163"/>
			<point x="1794" y="188"/>
			<point x="1758" y="188" type="curve" smooth="yes"/>
			<point x="1691" y="188"/>
			<point x="1661" y="220"/>
			<point x="1661" y="299" type="curve" smooth="yes"/>
			<point x="1661" y="358"/>
			<point x="1678" y="447"/>
			<point x="1722" y="577" type="curve" smooth="yes"/>
			<point x="1980" y="1345" type="line" smooth="yes"/>
			<point x="2017" y="1455"/>
			<point x="2022" y="1478"/>
			<point x="2022" y="1496" type="curve" smooth="yes"/>
			<point x="2022" y="1554"/>
			<point x="1950" y="1610"/>
			<point x="1864" y="1610" type="curve" smooth="yes"/>
			<point x="1818" y="1610"/>
			<point x="1801" y="1594"/>
			<point x="1727" y="1505" type="curve" smooth="yes"/>
			<point x="1599" y="1350"/>
			<point x="1110" y="684"/>
			<point x="963" y="472" type="curve"/>
			<point x="984" y="438" type="line"/>
			<point x="1027" y="689"/>
			<point x="1052" y="890"/>
			<point x="1082" y="1147" type="curve" smooth="yes"/>
			<point x="1108" y="1369"/>
			<point x="1117" y="1463"/>
			<point x="1117" y="1499" type="curve" smooth="yes"/>
			<point x="1117" y="1565"/>
			<point x="1058" y="1605"/>
			<point x="985" y="1605" type="curve" smooth="yes"/>
			<point x="926" y="1605"/>
			<point x="907" y="1585"/>
			<point x="853" y="1496" type="curve" smooth="yes"/>
			<point x="534" y="975"/>
			<point x="327" y="673"/>
			<point x="-29" y="207" type="curve" smooth="yes"/>
			<point x="-68" y="155"/>
			<point x="-90" y="128"/>
			<point x="-90" y="95" type="curve" smooth="yes"/>
			<point x="-90" y="42"/>
			<point x="-40" y="-12"/>
		</contour>
	</outline>
	<anchor name="bottom" x="978" y="0"/>
	<anchor name="top" x="1523" y="1600"/>
</glyph>
<glyph name="N" format="2">
	<unicode hex="004E"/>
	<advance width="1534"/>
	<outline>
		<contour>
			<point x="421" y="1367" type="curve" smooth="yes"/>
			<point x="803" y="190" type="line" smooth="yes"/>
			<point x="855" y="31"/>
			<point x="892" y="-12"/>
			<point x="981" y="-12" type="curve" smooth="yes"/>
			<point x="1058" y="-12"/>
			<point x="1105" y="34"/>
			<point x="1142" y="165" type="curve" smooth="yes"/>
			<point x="1199" y="367"/>
			<point x="1464" y="1278"/>
			<point x="1503" y="1392" type="curve" smooth="yes"/>
			<point x="1530" y="1469"/>
			<point x="1534" y="1497"/>
			<point x="1534" y="1512" type="curve" smooth="yes"/>
			<point x="1534" y="1564"/>
			<point x="1485" y="1600"/>
			<point x="1410" y="1600" type="curve" smooth="yes"/>
			<point x="1351" y="1600"/>
			<point x="1334" y="1561"/>
			<point x="1313" y="1497" type="curve" smooth="yes"/>
			<point x="1257" y="1327"/>
			<point x="1004" y="404"/>
			<point x="963" y="210" type="curve"/>
			<point x="1021" y="218" type="line"/>
			<point x="637" y="1476" type="line" smooth="yes"/>
			<point x="606" y="1578"/>
			<point x="579" y="1600"/>
			<point x="518" y="1600" type="curve" smooth="yes"/>
			<point x="449" y="1600"/>
			<point x="390" y="1560"/>
			<point x="390" y="1500" type="curve" smooth="yes"/>
			<point x="390" y="1472"/>
			<point x="401" y="1429"/>
		</contour>
		<contour>
			<point x="592" y="1264" type="curve"/>
			<point x="433" y="1382" type="line"/>
			<point x="322" y="976"/>
			<point x="159" y="368"/>
			<point x="97" y="160" type="curve" smooth="yes"/>
			<point x="84" y="115"/>
			<point x="80" y="96"/>
			<point x="80" y="75" type="curve" smooth="yes"/>
			<point x="80" y="25"/>
			<point x="139" y="-12"/>
			<point x="204" y="-12" type="curve" smooth="yes"/>
			<point x="247" y="-12"/>
			<point x="265" y="14"/>
			<point x="279" y="62" type="curve" smooth="yes"/>
			<point x="353" y="316"/>
			<point x="559" y="1102"/>
		</contour>
	</outline>
	<anchor name="bottom" x="608" y="-12"/>
	<anchor name="top" x="988" y="1600"/>
</glyph>
<glyph name="O" format="2">
	<unicode hex="004F"/>
	<advance width="1472"/>
	<outline>
		<contour>
			<point x="520" y="-14" type="curve" smooth="yes"/>
			<point x="976" y="-14"/>
			<point x="1372" y="576"/>
			<point x="1372" y="1105" type="curve" smooth="yes"/>
			<point x="1372" y="1455"/>
			<point x="1197" y="1625"/>
			<point x="951" y="1625" type="curve" smooth="yes"/>
			<point x="495" y="1625"/>
			<point x="120" y="1057"/>
			<point x="120" y="511" type="curve" smooth="yes"/>
			<point x="120" y="160"/>
			<point x="274" y="-14"/>
		</contour>
		<contour>
			<point x="569" y="201" type="curve" smooth="yes"/>
			<point x="445" y="201"/>
			<point x="370" y="297"/>
			<point x="370" y="528" type="curve" smooth="yes"/>
			<point x="370" y="958"/>
			<point x="644" y="1410"/>
			<point x="902" y="1410" type="curve" smooth="yes"/>
			<point x="1022" y="1410"/>
			<point x="1122" y="1320"/>
			<point x="1122" y="1090" type="curve" smooth="yes"/>
			<point x="1122" y="659"/>
			<point x="818" y="201"/>
		</contour>
	</outline>
	<anchor name="Qtail" x="650" y="0"/>
	<anchor name="bottom" x="541" y="0"/>
	<anchor name="center" x="746" y="840"/>
	<anchor name="ogonek" x="589" y="0"/>
	<anchor name="top" x="940" y="1600"/>
	<anchor name="topleft" x="351" y="1434"/>
	<anchor name="topright" x="1552" y="1434"/>
</glyph>
<glyph name="P" format="2">
	<unicode hex="0050"/>
	<advance width="1230"/>
	<outline>
		<contour>
			<point x="278" y="117" type="curve" smooth="yes"/>
			<point x="665" y="1549" type="line"/>
			<point x="422" y="1544" type="line"/>
			<point x="55" y="195" type="line" smooth="yes"/>
			<point x="31" y="107"/>
			<point x="30" y="94"/>
			<point x="30" y="85" type="curve" smooth="yes"/>
			<point x="30" y="18"/>
			<point x="92" y="-12"/>
			<point x="163" y="-12" type="curve" smooth="yes"/>
			<point x="230" y="-12"/>
			<point x="250" y="14"/>
		</contour>
		<contour>
			<point x="351" y="811" type="curve"/>
			<point x="300" y="641" type="line"/>
			<point x="382" y="610"/>
			<point x="505" y="583"/>
			<point x="615" y="583" type="curve" smooth="yes"/>
			<point x="975" y="583"/>
			<point x="1250" y="825"/>
			<point x="1250" y="1150" type="curve" smooth="yes"/>
			<point x="1250" y="1438"/>
			<point x="1018" y="1625"/>
			<point x="675" y="1625" type="curve" smooth="yes"/>
			<point x="394" y="1625"/>
			<point x="197" y="1543"/>
			<point x="197" y="1480" type="curve" smooth="yes"/>
			<point x="197" y="1434"/>
			<point x="230" y="1379"/>
			<point x="271" y="1379" type="curve" smooth="yes"/>
			<point x="304" y="1379"/>
			<point x="343" y="1387"/>
			<point x="414" y="1400" type="curve" smooth="yes"/>
			<point x="473" y="1411"/>
			<point x="564" y="1422"/>
			<point x="644" y="1422" type="curve" smooth="yes"/>
			<point x="880" y="1422"/>
			<point x="1010" y="1304"/>
			<point x="1010" y="1135" type="curve" smooth="yes"/>
			<point x="1010" y="914"/>
			<point x="847" y="778"/>
			<point x="590" y="778" type="curve" smooth="yes"/>
			<point x="481" y="778"/>
			<point x="416" y="793"/>
		</contour>
	</outline>
	<anchor name="bottom" x="120" y="0"/>
	<anchor name="top" x="729" y="1600"/>
</glyph>
<glyph name="S" format="2">
	<unicode hex="0053"/>
	<advance width="1169"/>
	<outline>
		<contour>
			<point x="442" y="-17" type="curve" smooth="yes"/>
			<point x="753" y="-17"/>
			<point x="988" y="172"/>
			<point x="988" y="451" type="curve" smooth="yes"/>
			<point x="988" y="610"/>
			<point x="917" y="753"/>
			<point x="704" y="935" type="curve" smooth="yes"/>
			<point x="534" y="1080"/>
			<point x="480" y="1141"/>
			<point x="480" y="1231" type="curve" smooth="yes"/>
			<point x="480" y="1327"/>
			<point x="584" y="1405"/>
			<point x="750" y="1405" type="curve" smooth="yes"/>
			<point x="834" y="1405"/>
			<point x="892" y="1388"/>
			<point x="940" y="1372" type="curve" smooth="yes"/>
			<point x="976" y="1360"/>
			<point x="1010" y="1350"/>
			<point x="1035" y="1350" type="curve" smooth="yes"/>
			<point x="1084" y="1350"/>
			<point x="1119" y="1414"/>
			<point x="1119" y="1458" type="curve" smooth="yes"/>
			<point x="1119" y="1501"/>
			<point x="1081" y="1533"/>
			<point x="1013" y="1566" type="curve" smooth="yes"/>
			<point x="939" y="1602"/>
			<point x="847" y="1625"/>
			<point x="740" y="1625" type="curve" smooth="yes"/>
			<point x="450" y="1625"/>
			<point x="250" y="1441"/>
			<point x="250" y="1203" type="curve" smooth="yes"/>
			<point x="250" y="1021"/>
			<point x="347" y="915"/>
			<point x="508" y="776" type="curve" smooth="yes"/>
			<point x="707" y="604"/>
			<point x="758" y="541"/>
			<point x="758" y="417" type="curve" smooth="yes"/>
			<point x="758" y="293"/>
			<point x="650" y="203"/>
			<point x="462" y="203" type="curve" smooth="yes"/>
			<point x="388" y="203"/>
			<point x="296" y="218"/>
			<point x="214" y="246" type="curve" smooth="yes"/>
			<point x="168" y="262"/>
			<point x="135" y="272"/>
			<point x="107" y="272" type="curve" smooth="yes"/>
			<point x="49" y="272"/>
			<point x="10" y="203"/>
			<point x="10" y="155" type="curve" smooth="yes"/>
			<point x="10" y="120"/>
			<point x="26" y="94"/>
			<point x="85" y="62" type="curve" smooth="yes"/>
			<point x="170" y="16"/>
			<point x="315" y="-17"/>
		</contour>
	</outline>
	<anchor name="bottom" x="464" y="0"/>
	<anchor name="top" x="780" y="1600"/>
</glyph>
<glyph name="V" format="2">
	<unicode hex="0056"/>
	<advance width="1215"/>
	<outline>
		<contour>
			<point x="228" y="1451" type="curve" smooth="yes"/>
			<point x="220" y="197" type="line" smooth="yes"/>
			<point x="220" y="160"/>
			<point x="220" y="141"/>
			<point x="221" y="120" type="curve" smooth="yes"/>
			<point x="226" y="32"/>
			<point x="295" y="-12"/>
			<point x="369" y="-12" type="curve" smooth="yes"/>
			<point x="452" y="-12"/>
			<point x="509" y="29"/>
			<point x="557" y="128" type="curve" smooth="yes"/>
			<point x="847" y="728"/>
			<point x="1004" y="1014"/>
			<point x="1193" y="1251" type="curve" smooth="yes"/>
			<point x="1253" y="1327"/>
			<point x="1289" y="1357"/>
			<point x="1343" y="1407" type="curve" smooth="yes"/>
			<point x="1380" y="1442"/>
			<point x="1395" y="1457"/>
			<point x="1395" y="1488" type="curve" smooth="yes"/>
			<point x="1395" y="1540"/>
			<point x="1351" y="1600"/>
			<point x="1266" y="1600" type="curve" smooth="yes"/>
			<point x="1202" y="1600"/>
			<point x="1145" y="1566"/>
			<point x="1068" y="1475" type="curve" smooth="yes"/>
			<point x="895" y="1270"/>
			<point x="648" y="835"/>
			<point x="387" y="189" type="curve"/>
			<point x="440" y="189" type="line"/>
			<point x="491" y="1414" type="line" smooth="yes"/>
			<point x="492" y="1449"/>
			<point x="493" y="1489"/>
			<point x="493" y="1509" type="curve" smooth="yes"/>
			<point x="493" y="1575"/>
			<point x="454" y="1600"/>
			<point x="373" y="1600" type="curve" smooth="yes"/>
			<point x="279" y="1600"/>
			<point x="228" y="1567"/>
			<point x="228" y="1505" type="curve" smooth="yes"/>
			<point x="228" y="1483"/>
			<point x="228" y="1475"/>
		</contour>
	</outline>
	<anchor name="bottom" x="370" y="0"/>
	<anchor name="top" x="815" y="1602"/>
</glyph>
<glyph name="W" format="2">
	<unicode hex="0057"/>
	<advance width="1878"/>
	<outline>
		<contour>
			<point x="223" y="1451" type="curve" smooth="yes"/>
			<point x="220" y="247" type="line" smooth="yes"/>
			<point x="220" y="210"/>
			<point x="220" y="191"/>
			<point x="221" y="160" type="curve" smooth="yes"/>
			<point x="226" y="56"/>
			<point x="294" y="-12"/>
			<point x="384" y="-12" type="curve" smooth="yes"/>
			<point x="454" y="-12"/>
			<point x="498" y="21"/>
			<point x="545" y="139" type="curve" smooth="yes"/>
			<point x="691" y="504"/>
			<point x="841" y="842"/>
			<point x="972" y="1082" type="curve"/>
			<point x="928" y="1095" type="line"/>
			<point x="925" y="271" type="line" smooth="yes"/>
			<point x="925" y="237"/>
			<point x="925" y="197"/>
			<point x="925" y="151" type="curve" smooth="yes"/>
			<point x="925" y="51"/>
			<point x="994" y="-12"/>
			<point x="1084" y="-12" type="curve" smooth="yes"/>
			<point x="1148" y="-12"/>
			<point x="1178" y="13"/>
			<point x="1233" y="136" type="curve" smooth="yes"/>
			<point x="1497" y="728"/>
			<point x="1681" y="1022"/>
			<point x="1863" y="1251" type="curve" smooth="yes"/>
			<point x="1923" y="1327"/>
			<point x="1953" y="1356"/>
			<point x="2006" y="1407" type="curve" smooth="yes"/>
			<point x="2043" y="1442"/>
			<point x="2058" y="1457"/>
			<point x="2058" y="1488" type="curve" smooth="yes"/>
			<point x="2058" y="1540"/>
			<point x="2014" y="1600"/>
			<point x="1929" y="1600" type="curve" smooth="yes"/>
			<point x="1865" y="1600"/>
			<point x="1815" y="1566"/>
			<point x="1738" y="1475" type="curve" smooth="yes"/>
			<point x="1565" y="1271"/>
			<point x="1314" y="830"/>
			<point x="1068" y="149" type="curve"/>
			<point x="1135" y="149" type="line"/>
			<point x="1139" y="1117" type="line" smooth="yes"/>
			<point x="1139" y="1156"/>
			<point x="1140" y="1189"/>
			<point x="1139" y="1216" type="curve" smooth="yes"/>
			<point x="1137" y="1287"/>
			<point x="1071" y="1320"/>
			<point x="1003" y="1320" type="curve" smooth="yes"/>
			<point x="958" y="1320"/>
			<point x="931" y="1311"/>
			<point x="885" y="1242" type="curve" smooth="yes"/>
			<point x="743" y="1028"/>
			<point x="549" y="621"/>
			<point x="392" y="150" type="curve"/>
			<point x="436" y="150" type="line"/>
			<point x="481" y="1414" type="line" smooth="yes"/>
			<point x="482" y="1449"/>
			<point x="483" y="1489"/>
			<point x="483" y="1509" type="curve" smooth="yes"/>
			<point x="483" y="1575"/>
			<point x="446" y="1600"/>
			<point x="368" y="1600" type="curve" smooth="yes"/>
			<point x="274" y="1600"/>
			<point x="223" y="1567"/>
			<point x="223" y="1505" type="curve" smooth="yes"/>
			<point x="223" y="1495"/>
			<point x="223" y="1475"/>
		</contour>
	</outline>
	<anchor name="bottom" x="689" y="0"/>
	<anchor name="top" x="1083" y="1600"/>
</glyph>
<glyph name="Z" format="2">
	<unicode hex="005A"/>
	<advance width="821"/>
	<outline>
		<contour>
			<point x="-40" y="153" type="curve" smooth="yes"/>
			<point x="-40" y="50"/>
			<point x="36" y="-25"/>
			<point x="125" y="-25" type="curve" smooth="yes"/>
			<point x="209" y="-25"/>
			<point x="293" y="14"/>
			<point x="429" y="177" type="curve" smooth="yes"/>
			<point x="554" y="327"/>
			<point x="626" y="414"/>
			<point x="904" y="791" type="curve" smooth="yes"/>
			<point x="1207" y="1199"/>
			<point x="1292" y="1332"/>
			<point x="1330" y="1400" type="curve" smooth="yes"/>
			<point x="1356" y="1445"/>
			<point x="1361" y="1466"/>
			<point x="1361" y="1506" type="curve" smooth="yes"/>
			<point x="1361" y="1559"/>
			<point x="1317" y="1611"/>
			<point x="1265" y="1611" type="curve" smooth="yes"/>
			<point x="1231" y="1611"/>
			<point x="1189" y="1602"/>
			<point x="1094" y="1592" type="curve" smooth="yes"/>
			<point x="1002" y="1582"/>
			<point x="898" y="1574"/>
			<point x="754" y="1574" type="curve" smooth="yes"/>
			<point x="650" y="1574"/>
			<point x="577" y="1581"/>
			<point x="504" y="1592" type="curve" smooth="yes"/>
			<point x="472" y="1597"/>
			<point x="431" y="1604"/>
			<point x="406" y="1604" type="curve" smooth="yes"/>
			<point x="353" y="1604"/>
			<point x="318" y="1572"/>
			<point x="318" y="1503" type="curve" smooth="yes"/>
			<point x="318" y="1429"/>
			<point x="347" y="1383"/>
			<point x="439" y="1364" type="curve" smooth="yes"/>
			<point x="496" y="1352"/>
			<point x="579" y="1344"/>
			<point x="695" y="1344" type="curve" smooth="yes"/>
			<point x="930" y="1344"/>
			<point x="1134" y="1373"/>
			<point x="1260" y="1414" type="curve"/>
			<point x="1179" y="1498" type="line"/>
			<point x="1124" y="1403"/>
			<point x="1016" y="1257"/>
			<point x="753" y="901" type="curve" smooth="yes"/>
			<point x="453" y="496"/>
			<point x="328" y="326"/>
			<point x="256" y="242" type="curve" smooth="yes"/>
			<point x="191" y="166"/>
			<point x="163" y="153"/>
			<point x="150" y="153" type="curve" smooth="yes"/>
			<point x="135" y="153"/>
			<point x="125" y="161"/>
			<point x="125" y="176" type="curve" smooth="yes"/>
			<point x="125" y="191"/>
			<point x="142" y="203"/>
			<point x="170" y="203" type="curve" smooth="yes"/>
			<point x="194" y="203"/>
			<point x="243" y="188"/>
			<point x="337" y="133" type="curve" smooth="yes"/>
			<point x="519" y="27"/>
			<point x="634" y="-12"/>
			<point x="749" y="-12" type="curve" smooth="yes"/>
			<point x="816" y="-12"/>
			<point x="880" y="34"/>
			<point x="880" y="137" type="curve" smooth="yes"/>
			<point x="880" y="175"/>
			<point x="850" y="188"/>
			<point x="821" y="188" type="curve" smooth="yes"/>
			<point x="728" y="188"/>
			<point x="649" y="211"/>
			<point x="466" y="300" type="curve" smooth="yes"/>
			<point x="369" y="347"/>
			<point x="269" y="378"/>
			<point x="202" y="378" type="curve" smooth="yes"/>
			<point x="63" y="378"/>
			<point x="-40" y="272"/>
		</contour>
	</outline>
	<anchor name="bottom" x="433" y="0"/>
	<anchor name="center" x="805" y="820"/>
	<anchor name="top" x="881" y="1600"/>
	<anchor name="topright" x="1321" y="1600"/>
</glyph>
<glyph name="backslash" format="2">
	<unicode hex="005C"/>
	<advance width="942"/>
	<outline>
		<contour>
			<point x="620" y="-155" type="curve" smooth="yes"/>
			<point x="697" y="-155"/>
			<point x="742" y="-119"/>
			<point x="742" y="-64" type="curve" smooth="yes"/>
			<point x="742" y="-46"/>
			<point x="738" y="-28"/>
			<point x="735" y="-12" type="curve" smooth="yes"/>
			<point x="424" y="1590" type="line" smooth="yes"/>
			<point x="408" y="1672"/>
			<point x="379" y="1695"/>
			<point x="320" y="1695" type="curve" smooth="yes"/>
			<point x="260" y="1695"/>
			<point x="200" y="1660"/>
			<point x="200" y="1600" type="curve" smooth="yes"/>
			<point x="200" y="1586"/>
			<point x="202" y="1567"/>
			<point x="208" y="1535" type="curve" smooth="yes"/>
			<point x="517" y="-66" type="line" smooth="yes"/>
			<point x="531" y="-138"/>
			<point x="563" y="-155"/>
		</contour>
	</outline>
</glyph>
<glyph name="b" format="2">
	<unicode hex="0062"/>
	<advance width="1001"/>
	<outline>
		<contour>
			<point x="240" y="279" type="curve" smooth="yes"/>
			<point x="240" y="328"/>
			<point x="251" y="386"/>
			<point x="277" y="477" type="curve" smooth="yes"/>
			<point x="546" y="1404" type="line" smooth="yes"/>
			<point x="561" y="1454"/>
			<point x="575" y="1502"/>
			<point x="575" y="1531" type="curve" smooth="yes"/>
			<point x="575" y="1580"/>
			<point x="501" y="1625"/>
			<point x="418" y="1625" type="curve" smooth="yes"/>
			<point x="367" y="1625"/>
			<point x="344" y="1606"/>
			<point x="320" y="1519" type="curve" smooth="yes"/>
			<point x="55" y="548" type="line" smooth="yes"/>
			<point x="21" y="423"/>
			<point x="0" y="326"/>
			<point x="0" y="254" type="curve" smooth="yes"/>
			<point x="0" y="85"/>
			<point x="115" y="-22"/>
			<point x="309" y="-22" type="curve" smooth="yes"/>
			<point x="615" y="-22"/>
			<point x="909" y="317"/>
			<point x="909" y="706" type="curve" smooth="yes"/>
			<point x="909" y="937"/>
			<point x="769" y="1020"/>
			<point x="649" y="1020" type="curve" smooth="yes"/>
			<point x="542" y="1020"/>
			<point x="429" y="936"/>
			<point x="429" y="863" type="curve" smooth="yes"/>
			<point x="429" y="838"/>
			<point x="452" y="822"/>
			<point x="482" y="822" type="curve" smooth="yes"/>
			<point x="490" y="822"/>
			<point x="516" y="824"/>
			<point x="533" y="827" type="curve" smooth="yes"/>
			<point x="553" y="830"/>
			<point x="576" y="833"/>
			<point x="593" y="833" type="curve" smooth="yes"/>
			<point x="639" y="833"/>
			<point x="669" y="780"/>
			<point x="669" y="673" type="curve" smooth="yes"/>
			<point x="669" y="367"/>
			<point x="490" y="158"/>
			<point x="343" y="158" type="curve" smooth="yes"/>
			<point x="276" y="158"/>
			<point x="240" y="187"/>
		</contour>
	</outline>
	<anchor name="bottom" x="311" y="0"/>
	<anchor name="top" x="502" y="1600"/>
</glyph>
<glyph name="d" format="2">
	<unicode hex="0064"/>
	<advance width="850"/>
	<outline>
		<contour>
			<point x="696" y="758" type="curve"/>
			<point x="744" y="935" type="line"/>
			<point x="632" y="997"/>
			<point x="565" y="1020"/>
			<point x="495" y="1020" type="curve" smooth="yes"/>
			<point x="237" y="1020"/>
			<point x="9" y="687"/>
			<point x="9" y="306" type="curve" smooth="yes"/>
			<point x="9" y="91"/>
			<point x="114" y="-12"/>
			<point x="219" y="-12" type="curve" smooth="yes"/>
			<point x="347" y="-12"/>
			<point x="491" y="124"/>
			<point x="621" y="380" type="curve"/>
			<point x="607" y="389" type="line"/>
			<point x="581" y="297" type="line" smooth="yes"/>
			<point x="570" y="259"/>
			<point x="561" y="221"/>
			<point x="561" y="188" type="curve" smooth="yes"/>
			<point x="561" y="67"/>
			<point x="651" y="-12"/>
			<point x="791" y="-12" type="curve" smooth="yes"/>
			<point x="850" y="-12"/>
			<point x="904" y="40"/>
			<point x="904" y="120" type="curve" smooth="yes"/>
			<point x="904" y="158"/>
			<point x="889" y="188"/>
			<point x="841" y="188" type="curve" smooth="yes"/>
			<point x="815" y="188"/>
			<point x="801" y="197"/>
			<point x="801" y="217" type="curve" smooth="yes"/>
			<point x="801" y="239"/>
			<point x="806" y="270"/>
			<point x="824" y="335" type="curve" smooth="yes"/>
			<point x="1128" y="1460" type="line" smooth="yes"/>
			<point x="1140" y="1505"/>
			<point x="1143" y="1529"/>
			<point x="1143" y="1541" type="curve" smooth="yes"/>
			<point x="1143" y="1591"/>
			<point x="1081" y="1625"/>
			<point x="1001" y="1625" type="curve" smooth="yes"/>
			<point x="940" y="1625"/>
			<point x="918" y="1610"/>
			<point x="898" y="1536" type="curve" smooth="yes"/>
			<point x="675" y="732" type="line" smooth="yes"/>
			<point x="605" y="478"/>
			<point x="416" y="188"/>
			<point x="323" y="188" type="curve" smooth="yes"/>
			<point x="283" y="188"/>
			<point x="254" y="229"/>
			<point x="254" y="346" type="curve" smooth="yes"/>
			<point x="254" y="591"/>
			<point x="379" y="820"/>
			<point x="502" y="820" type="curve" smooth="yes"/>
			<point x="546" y="820"/>
			<point x="600" y="802"/>
		</contour>
	</outline>
	<anchor name="bottom" x="275" y="0"/>
	<anchor name="center" x="835" y="1210"/>
	<anchor name="top" x="1030" y="1600"/>
	<anchor name="topright" x="1158" y="1600"/>
</glyph>
<glyph name="f" format="2">
	<unicode hex="0066"/>
	<advance width="135"/>
	<outline>
		<contour>
			<point x="769" y="1425" type="curve" smooth="yes"/>
			<point x="817" y="1425"/>
			<point x="859" y="1406"/>
			<point x="895" y="1388" type="curve" smooth="yes"/>
			<point x="913" y="1379"/>
			<point x="931" y="1371"/>
			<point x="946" y="1371" type="curve" smooth="yes"/>
			<point x="983" y="1371"/>
			<point x="1035" y="1437"/>
			<point x="1035" y="1495" type="curve" smooth="yes"/>
			<point x="1035" y="1547"/>
			<point x="914" y="1625"/>
			<point x="786" y="1625" type="curve" smooth="yes"/>
			<point x="563" y="1625"/>
			<point x="412" y="1446"/>
			<point x="320" y="1045" type="curve" smooth="yes"/>
			<point x="244" y="713"/>
			<point x="187" y="422"/>
			<point x="145" y="192" type="curve"/>
			<point x="37" y="162"/>
			<point x="-30" y="122"/>
			<point x="-30" y="48" type="curve" smooth="yes"/>
			<point x="-30" y="2"/>
			<point x="-6" y="-26"/>
			<point x="68" y="-82" type="curve"/>
			<point x="-2" y="-340" type="line" smooth="yes"/>
			<point x="-29" y="-441"/>
			<point x="-43" y="-511"/>
			<point x="-43" y="-571" type="curve" smooth="yes"/>
			<point x="-43" y="-646"/>
			<point x="19" y="-690"/>
			<point x="88" y="-690" type="curve" smooth="yes"/>
			<point x="176" y="-690"/>
			<point x="214" y="-645"/>
			<point x="242" y="-455" type="curve" smooth="yes"/>
			<point x="260" y="-330"/>
			<point x="276" y="-214"/>
			<point x="289" y="-26" type="curve"/>
			<point x="364" y="271"/>
			<point x="440" y="598"/>
			<point x="535" y="986" type="curve" smooth="yes"/>
			<point x="621" y="1338"/>
			<point x="682" y="1425"/>
		</contour>
	</outline>
</glyph>
<glyph name="h" format="2">
	<unicode hex="0068"/>
	<advance width="849"/>
	<outline>
		<contour>
			<point x="606" y="1484" type="line"/>
			<point x="612" y="1506"/>
			<point x="618" y="1529"/>
			<point x="618" y="1544" type="curve" smooth="yes"/>
			<point x="618" y="1590"/>
			<point x="545" y="1625"/>
			<point x="465" y="1625" type="curve" smooth="yes"/>
			<point x="411" y="1625"/>
			<point x="392" y="1617"/>
			<point x="374" y="1547" type="curve" smooth="yes"/>
			<point x="11" y="143" type="line" smooth="yes"/>
			<point x="5" y="119"/>
			<point x="0" y="99"/>
			<point x="0" y="74" type="curve" smooth="yes"/>
			<point x="0" y="27"/>
			<point x="66" y="-12"/>
			<point x="146" y="-12" type="curve" smooth="yes"/>
			<point x="194" y="-12"/>
			<point x="216" y="7"/>
			<point x="241" y="96" type="curve" smooth="yes"/>
			<point x="276" y="219"/>
			<point x="322" y="333"/>
			<point x="372" y="437" type="curve" smooth="yes"/>
			<point x="472" y="645"/>
			<point x="612" y="800"/>
			<point x="696" y="800" type="curve" smooth="yes"/>
			<point x="728" y="800"/>
			<point x="754" y="777"/>
			<point x="754" y="732" type="curve" smooth="yes"/>
			<point x="754" y="687"/>
			<point x="731" y="621"/>
			<point x="666" y="471" type="curve" smooth="yes"/>
			<point x="596" y="310"/>
			<point x="577" y="228"/>
			<point x="577" y="162" type="curve" smooth="yes"/>
			<point x="577" y="50"/>
			<point x="655" y="-12"/>
			<point x="795" y="-12" type="curve" smooth="yes"/>
			<point x="858" y="-12"/>
			<point x="895" y="40"/>
			<point x="895" y="120" type="curve" smooth="yes"/>
			<point x="895" y="157"/>
			<point x="885" y="188"/>
			<point x="849" y="188" type="curve" smooth="yes"/>
			<point x="827" y="188"/>
			<point x="817" y="197"/>
			<point x="817" y="225" type="curve" smooth="yes"/>
			<point x="817" y="269"/>
			<point x="843" y="343"/>
			<point x="904" y="488" type="curve" smooth="yes"/>
			<point x="959" y="620"/>
			<point x="994" y="725"/>
			<point x="994" y="824" type="curve" smooth="yes"/>
			<point x="994" y="941"/>
			<point x="903" y="1020"/>
			<point x="806" y="1020" type="curve" smooth="yes"/>
			<point x="640" y="1020"/>
			<point x="468" y="851"/>
			<point x="268" y="430" type="curve"/>
			<point x="296" y="437" type="line"/>
		</contour>
	</outline>
	<anchor name="bottom" x="420" y="0"/>
	<anchor name="center" x="359" y="1210"/>
	<anchor name="top" x="501" y="1600"/>
</glyph>
<glyph name="k" format="2">
	<unicode hex="006B"/>
	<advance width="855"/>
	<outline>
		<contour>
			<point x="374" y="1547" type="curve" smooth="yes"/>
			<point x="11" y="143" type="line" smooth="yes"/>
			<point x="5" y="119"/>
			<point x="0" y="83"/>
			<point x="0" y="74" type="curve" smooth="yes"/>
			<point x="0" y="27"/>
			<point x="66" y="-12"/>
			<point x="146" y="-12" type="curve" smooth="yes"/>
			<point x="194" y="-12"/>
			<point x="220" y="6"/>
			<point x="241" y="96" type="curve" smooth="yes"/>
			<point x="278" y="255"/>
			<point x="303" y="357"/>
			<point x="331" y="414" type="curve" smooth="yes"/>
			<point x="442" y="640"/>
			<point x="600" y="798"/>
			<point x="695" y="798" type="curve" smooth="yes"/>
			<point x="732" y="798"/>
			<point x="754" y="776"/>
			<point x="754" y="733" type="curve" smooth="yes"/>
			<point x="754" y="656"/>
			<point x="674" y="571"/>
			<point x="491" y="520" type="curve" smooth="yes"/>
			<point x="444" y="507"/>
			<point x="417" y="481"/>
			<point x="417" y="446" type="curve" smooth="yes"/>
			<point x="417" y="423"/>
			<point x="429" y="382"/>
			<point x="464" y="299" type="curve" smooth="yes"/>
			<point x="562" y="65"/>
			<point x="665" y="-12"/>
			<point x="797" y="-12" type="curve" smooth="yes"/>
			<point x="860" y="-12"/>
			<point x="895" y="40"/>
			<point x="895" y="120" type="curve" smooth="yes"/>
			<point x="895" y="160"/>
			<point x="882" y="188"/>
			<point x="855" y="188" type="curve" smooth="yes"/>
			<point x="770" y="188"/>
			<point x="716" y="235"/>
			<point x="624" y="449" type="curve"/>
			<point x="890" y="514"/>
			<point x="997" y="676"/>
			<point x="997" y="814" type="curve" smooth="yes"/>
			<point x="997" y="946"/>
			<point x="904" y="1021"/>
			<point x="807" y="1021" type="curve" smooth="yes"/>
			<point x="637" y="1021"/>
			<point x="458" y="857"/>
			<point x="268" y="461" type="curve"/>
			<point x="297" y="438" type="line"/>
			<point x="606" y="1484" type="line" smooth="yes"/>
			<point x="612" y="1506"/>
			<point x="618" y="1529"/>
			<point x="618" y="1544" type="curve" smooth="yes"/>
			<point x="618" y="1590"/>
			<point x="545" y="1625"/>
			<point x="465" y="1625" type="curve" smooth="yes"/>
			<point x="411" y="1625"/>
			<point x="392" y="1617"/>
		</contour>
	</outline>
	<anchor name="bottom" x="427" y="0"/>
	<anchor name="top" x="512" y="1600"/>
</glyph>
<glyph name="l" format="2">
	<unicode hex="006C"/>
	<advance width="312"/>
	<outline>
		<contour>
			<point x="278" y="425" type="curve" smooth="yes"/>
			<point x="591" y="1438" type="line" smooth="yes"/>
			<point x="610" y="1500"/>
			<point x="612" y="1512"/>
			<point x="612" y="1533" type="curve" smooth="yes"/>
			<point x="612" y="1573"/>
			<point x="548" y="1625"/>
			<point x="463" y="1625" type="curve" smooth="yes"/>
			<point x="410" y="1625"/>
			<point x="380" y="1606"/>
			<point x="357" y="1528" type="curve" smooth="yes"/>
			<point x="57" y="506" type="line" smooth="yes"/>
			<point x="19" y="375"/>
			<point x="0" y="291"/>
			<point x="0" y="225" type="curve" smooth="yes"/>
			<point x="0" y="71"/>
			<point x="112" y="-12"/>
			<point x="262" y="-12" type="curve" smooth="yes"/>
			<point x="318" y="-12"/>
			<point x="348" y="40"/>
			<point x="348" y="120" type="curve" smooth="yes"/>
			<point x="348" y="157"/>
			<point x="340" y="188"/>
			<point x="312" y="188" type="curve" smooth="yes"/>
			<point x="265" y="188"/>
			<point x="240" y="207"/>
			<point x="240" y="259" type="curve" smooth="yes"/>
			<point x="240" y="301"/>
			<point x="254" y="347"/>
		</contour>
	</outline>
	<anchor name="bottom" x="144" y="0"/>
	<anchor name="center" x="290" y="880"/>
	<anchor name="top" x="522" y="1600"/>
	<anchor name="topright" x="638" y="1600"/>
</glyph>
<glyph name="m" format="2">
	<unicode hex="006D"/>
	<advance width="1327"/>
	<outline>
		<contour>
			<point x="484" y="75" type="curve" smooth="yes"/>
			<point x="484" y="27"/>
			<point x="550" y="-12"/>
			<point x="630" y="-12" type="curve" smooth="yes"/>
			<point x="679" y="-12"/>
			<point x="704" y="11"/>
			<point x="731" y="105" type="curve" smooth="yes"/>
			<point x="765" y="226"/>
			<point x="807" y="335"/>
			<point x="866" y="455" type="curve" smooth="yes"/>
			<point x="976" y="680"/>
			<point x="1096" y="800"/>
			<point x="1174" y="800" type="curve" smooth="yes"/>
			<point x="1206" y="800"/>
			<point x="1232" y="777"/>
			<point x="1232" y="732" type="curve" smooth="yes"/>
			<point x="1232" y="687"/>
			<point x="1209" y="621"/>
			<point x="1144" y="471" type="curve" smooth="yes"/>
			<point x="1074" y="310"/>
			<point x="1055" y="228"/>
			<point x="1055" y="162" type="curve" smooth="yes"/>
			<point x="1055" y="50"/>
			<point x="1133" y="-12"/>
			<point x="1273" y="-12" type="curve" smooth="yes"/>
			<point x="1336" y="-12"/>
			<point x="1373" y="40"/>
			<point x="1373" y="120" type="curve" smooth="yes"/>
			<point x="1373" y="158"/>
			<point x="1355" y="188"/>
			<point x="1327" y="188" type="curve" smooth="yes"/>
			<point x="1305" y="188"/>
			<point x="1295" y="195"/>
			<point x="1295" y="220" type="curve" smooth="yes"/>
			<point x="1295" y="261"/>
			<point x="1319" y="338"/>
			<point x="1382" y="488" type="curve" smooth="yes"/>
			<point x="1437" y="620"/>
			<point x="1472" y="725"/>
			<point x="1472" y="824" type="curve" smooth="yes"/>
			<point x="1472" y="941"/>
			<point x="1381" y="1020"/>
			<point x="1284" y="1020" type="curve" smooth="yes"/>
			<point x="1136" y="1020"/>
			<point x="970" y="863"/>
			<point x="817" y="518" type="curve"/>
			<point x="838" y="507" type="line"/>
			<point x="899" y="645"/>
			<point x="948" y="757"/>
			<point x="948" y="837" type="curve" smooth="yes"/>
			<point x="948" y="952"/>
			<point x="859" y="1020"/>
			<point x="760" y="1020" type="curve" smooth="yes"/>
			<point x="594" y="1020"/>
			<point x="404" y="827"/>
			<point x="222" y="430" type="curve"/>
			<point x="250" y="417" type="line"/>
			<point x="388" y="835" type="line" smooth="yes"/>
			<point x="406" y="889"/>
			<point x="411" y="919"/>
			<point x="411" y="938" type="curve" smooth="yes"/>
			<point x="411" y="982"/>
			<point x="359" y="1020"/>
			<point x="267" y="1020" type="curve" smooth="yes"/>
			<point x="216" y="1020"/>
			<point x="194" y="1001"/>
			<point x="172" y="917" type="curve" smooth="yes"/>
			<point x="-36" y="139" type="line" smooth="yes"/>
			<point x="-46" y="102"/>
			<point x="-46" y="87"/>
			<point x="-46" y="74" type="curve" smooth="yes"/>
			<point x="-46" y="27"/>
			<point x="20" y="-12"/>
			<point x="100" y="-12" type="curve" smooth="yes"/>
			<point x="148" y="-12"/>
			<point x="170" y="7"/>
			<point x="195" y="96" type="curve" smooth="yes"/>
			<point x="230" y="219"/>
			<point x="276" y="333"/>
			<point x="326" y="437" type="curve" smooth="yes"/>
			<point x="426" y="644"/>
			<point x="566" y="800"/>
			<point x="650" y="800" type="curve" smooth="yes"/>
			<point x="682" y="800"/>
			<point x="708" y="777"/>
			<point x="708" y="732" type="curve" smooth="yes"/>
			<point x="708" y="684"/>
			<point x="688" y="611"/>
			<point x="579" y="364" type="curve" smooth="yes"/>
			<point x="517" y="222"/>
			<point x="484" y="139"/>
		</contour>
	</outline>
</glyph>
<glyph name="p" format="2">
	<unicode hex="0070"/>
	<advance width="1082"/>
	<outline>
		<contour>
			<point x="369" y="158" type="curve" smooth="yes"/>
			<point x="299" y="153"/>
			<point x="260" y="123"/>
			<point x="260" y="66" type="curve" smooth="yes"/>
			<point x="260" y="8"/>
			<point x="290" y="-22"/>
			<point x="352" y="-22" type="curve" smooth="yes"/>
			<point x="674" y="-22"/>
			<point x="990" y="327"/>
			<point x="990" y="698" type="curve" smooth="yes"/>
			<point x="990" y="920"/>
			<point x="892" y="1020"/>
			<point x="745" y="1020" type="curve" smooth="yes"/>
			<point x="569" y="1020"/>
			<point x="422" y="840"/>
			<point x="285" y="521" type="curve"/>
			<point x="302" y="510" type="line"/>
			<point x="347" y="607"/>
			<point x="385" y="735"/>
			<point x="422" y="861" type="curve" smooth="yes"/>
			<point x="430" y="890"/>
			<point x="437" y="916"/>
			<point x="437" y="935" type="curve" smooth="yes"/>
			<point x="437" y="973"/>
			<point x="365" y="1020"/>
			<point x="277" y="1020" type="curve" smooth="yes"/>
			<point x="232" y="1020"/>
			<point x="206" y="992"/>
			<point x="184" y="910" type="curve" smooth="yes"/>
			<point x="111" y="636"/>
			<point x="48" y="305"/>
			<point x="-1" y="45" type="curve"/>
			<point x="-102" y="-265"/>
			<point x="-147" y="-497"/>
			<point x="-147" y="-588" type="curve" smooth="yes"/>
			<point x="-147" y="-666"/>
			<point x="-91" y="-690"/>
			<point x="-20" y="-690" type="curve" smooth="yes"/>
			<point x="42" y="-690"/>
			<point x="85" y="-663"/>
			<point x="93" y="-611" type="curve" smooth="yes"/>
			<point x="102" y="-554"/>
			<point x="116" y="-452"/>
			<point x="131" y="-340" type="curve" smooth="yes"/>
			<point x="154" y="-173"/>
			<point x="184" y="-10"/>
			<point x="245" y="216" type="curve" smooth="yes"/>
			<point x="347" y="593"/>
			<point x="533" y="833"/>
			<point x="656" y="833" type="curve" smooth="yes"/>
			<point x="714" y="833"/>
			<point x="745" y="780"/>
			<point x="745" y="661" type="curve" smooth="yes"/>
			<point x="745" y="391"/>
			<point x="580" y="173"/>
		</contour>
	</outline>
</glyph>
<glyph name="q" format="2">
	<unicode hex="0071"/>
	<advance width="900"/>
	<outline>
		<contour>
			<point x="9" y="306" type="curve" smooth="yes"/>
			<point x="9" y="91"/>
			<point x="114" y="-12"/>
			<point x="219" y="-12" type="curve" smooth="yes"/>
			<point x="358" y="-12"/>
			<point x="489" y="127"/>
			<point x="675" y="448" type="curve"/>
			<point x="661" y="535" type="line"/>
			<point x="582" y="219"/>
			<point x="473" y="-201"/>
			<point x="410" y="-439" type="curve" smooth="yes"/>
			<point x="388" y="-522"/>
			<point x="379" y="-571"/>
			<point x="379" y="-611" type="curve" smooth="yes"/>
			<point x="379" y="-656"/>
			<point x="410" y="-690"/>
			<point x="500" y="-690" type="curve" smooth="yes"/>
			<point x="564" y="-690"/>
			<point x="601" y="-649"/>
			<point x="615" y="-576" type="curve" smooth="yes"/>
			<point x="649" y="-400"/>
			<point x="692" y="-209"/>
			<point x="836" y="367" type="curve" smooth="yes"/>
			<point x="961" y="866" type="line" smooth="yes"/>
			<point x="968" y="892"/>
			<point x="975" y="924"/>
			<point x="975" y="936" type="curve" smooth="yes"/>
			<point x="974" y="986"/>
			<point x="912" y="1022"/>
			<point x="832" y="1022" type="curve" smooth="yes"/>
			<point x="787" y="1022"/>
			<point x="745" y="998"/>
			<point x="735" y="954" type="curve" smooth="yes"/>
			<point x="732" y="942" type="line"/>
			<point x="627" y="999"/>
			<point x="563" y="1020"/>
			<point x="495" y="1020" type="curve" smooth="yes"/>
			<point x="237" y="1020"/>
			<point x="9" y="687"/>
		</contour>
		<contour>
			<point x="254" y="346" type="curve" smooth="yes"/>
			<point x="254" y="591"/>
			<point x="379" y="820"/>
			<point x="502" y="820" type="curve" smooth="yes"/>
			<point x="545" y="820"/>
			<point x="598" y="803"/>
			<point x="689" y="761" type="curve"/>
			<point x="600" y="468"/>
			<point x="414" y="189"/>
			<point x="324" y="189" type="curve" smooth="yes"/>
			<point x="283" y="189"/>
			<point x="254" y="229"/>
		</contour>
	</outline>
</glyph>
<glyph name="s" format="2">
	<unicode hex="0073"/>
	<advance width="696"/>
	<outline>
		<contour>
			<point x="52" y="46" type="curve" smooth="yes"/>
			<point x="128" y="9"/>
			<point x="219" y="-12"/>
			<point x="302" y="-12" type="curve" smooth="yes"/>
			<point x="508" y="-12"/>
			<point x="657" y="117"/>
			<point x="657" y="301" type="curve" smooth="yes"/>
			<point x="657" y="464"/>
			<point x="540" y="543"/>
			<point x="453" y="602" type="curve" smooth="yes"/>
			<point x="380" y="651"/>
			<point x="320" y="684"/>
			<point x="320" y="742" type="curve" smooth="yes"/>
			<point x="320" y="792"/>
			<point x="363" y="832"/>
			<point x="450" y="832" type="curve" smooth="yes"/>
			<point x="506" y="832"/>
			<point x="551" y="815"/>
			<point x="574" y="807" type="curve" smooth="yes"/>
			<point x="600" y="798"/>
			<point x="617" y="792"/>
			<point x="633" y="792" type="curve" smooth="yes"/>
			<point x="686" y="792"/>
			<point x="717" y="860"/>
			<point x="717" y="893" type="curve" smooth="yes"/>
			<point x="717" y="959"/>
			<point x="595" y="1020"/>
			<point x="452" y="1020" type="curve" smooth="yes"/>
			<point x="245" y="1020"/>
			<point x="90" y="892"/>
			<point x="90" y="723" type="curve" smooth="yes"/>
			<point x="90" y="583"/>
			<point x="195" y="507"/>
			<point x="261" y="463" type="curve" smooth="yes"/>
			<point x="373" y="388"/>
			<point x="441" y="351"/>
			<point x="441" y="281" type="curve" smooth="yes"/>
			<point x="441" y="228"/>
			<point x="403" y="188"/>
			<point x="316" y="188" type="curve" smooth="yes"/>
			<point x="260" y="188"/>
			<point x="215" y="205"/>
			<point x="168" y="223" type="curve" smooth="yes"/>
			<point x="106" y="247"/>
			<point x="83" y="256"/>
			<point x="61" y="256" type="curve" smooth="yes"/>
			<point x="2" y="256"/>
			<point x="-33" y="191"/>
			<point x="-33" y="142" type="curve" smooth="yes"/>
			<point x="-33" y="106"/>
			<point x="-14" y="78"/>
		</contour>
	</outline>
	<anchor name="bottom" x="254" y="0"/>
	<anchor name="top" x="481" y="1005"/>
</glyph>
<glyph name="t" format="2">
	<unicode hex="0074"/>
	<advance width="354"/>
	<outline>
		<contour>
			<point x="292" y="402" type="curve" smooth="yes"/>
			<point x="505" y="1176" type="line" smooth="yes"/>
			<point x="518" y="1222"/>
			<point x="520" y="1235"/>
			<point x="520" y="1252" type="curve" smooth="yes"/>
			<point x="520" y="1305"/>
			<point x="466" y="1344"/>
			<point x="390" y="1344" type="curve" smooth="yes"/>
			<point x="322" y="1344"/>
			<point x="301" y="1323"/>
			<point x="276" y="1235" type="curve" smooth="yes"/>
			<point x="184" y="909"/>
			<point x="164" y="813"/>
			<point x="66" y="452" type="curve" smooth="yes"/>
			<point x="38" y="352"/>
			<point x="27" y="292"/>
			<point x="27" y="240" type="curve" smooth="yes"/>
			<point x="27" y="97"/>
			<point x="131" y="-12"/>
			<point x="304" y="-12" type="curve" smooth="yes"/>
			<point x="343" y="-12"/>
			<point x="388" y="35"/>
			<point x="388" y="107" type="curve" smooth="yes"/>
			<point x="388" y="153"/>
			<point x="379" y="188"/>
			<point x="354" y="188" type="curve" smooth="yes"/>
			<point x="295" y="188"/>
			<point x="267" y="213"/>
			<point x="267" y="269" type="curve" smooth="yes"/>
			<point x="267" y="304"/>
			<point x="276" y="345"/>
		</contour>
		<contour>
			<point x="107" y="801" type="curve" smooth="yes"/>
			<point x="274" y="801"/>
			<point x="502" y="808"/>
			<point x="554" y="814" type="curve" smooth="yes"/>
			<point x="626" y="821"/>
			<point x="670" y="853"/>
			<point x="670" y="909" type="curve" smooth="yes"/>
			<point x="670" y="968"/>
			<point x="635" y="986"/>
			<point x="602" y="986" type="curve" smooth="yes"/>
			<point x="117" y="986" type="line" smooth="yes"/>
			<point x="63" y="986"/>
			<point x="10" y="965"/>
			<point x="10" y="880" type="curve" smooth="yes"/>
			<point x="10" y="829"/>
			<point x="29" y="801"/>
		</contour>
	</outline>
	<anchor name="bottom" x="270" y="0"/>
	<anchor name="center" x="160" y="560"/>
	<anchor name="top" x="388" y="1207"/>
	<anchor name="topright" x="514" y="1420"/>
</glyph>
<glyph name="v" format="2">
	<unicode hex="0076"/>
	<advance width="937"/>
	<outline>
		<contour>
			<point x="135" y="917" type="curve" smooth="yes"/>
			<point x="135" y="888"/>
			<point x="136" y="862"/>
			<point x="137" y="830" type="curve" smooth="yes"/>
			<point x="140" y="749"/>
			<point x="143" y="512"/>
			<point x="143" y="431" type="curve" smooth="yes"/>
			<point x="143" y="351"/>
			<point x="144" y="270"/>
			<point x="145" y="235" type="curve" smooth="yes"/>
			<point x="150" y="65"/>
			<point x="212" y="-12"/>
			<point x="317" y="-12" type="curve" smooth="yes"/>
			<point x="488" y="-12"/>
			<point x="674" y="120"/>
			<point x="952" y="747" type="curve" smooth="yes"/>
			<point x="994" y="834"/>
			<point x="1018" y="893"/>
			<point x="1018" y="915" type="curve" smooth="yes"/>
			<point x="1018" y="983"/>
			<point x="938" y="1020"/>
			<point x="882" y="1020" type="curve" smooth="yes"/>
			<point x="833" y="1020"/>
			<point x="811" y="1016"/>
			<point x="771" y="911" type="curve" smooth="yes"/>
			<point x="538" y="299"/>
			<point x="447" y="188"/>
			<point x="400" y="188" type="curve" smooth="yes"/>
			<point x="373" y="188"/>
			<point x="362" y="209"/>
			<point x="362" y="281" type="curve" smooth="yes"/>
			<point x="362" y="352"/>
			<point x="366" y="482"/>
			<point x="370" y="583" type="curve" smooth="yes"/>
			<point x="374" y="681"/>
			<point x="377" y="765"/>
			<point x="377" y="814" type="curve" smooth="yes"/>
			<point x="377" y="868"/>
			<point x="377" y="916"/>
			<point x="375" y="943" type="curve" smooth="yes"/>
			<point x="371" y="1001"/>
			<point x="320" y="1020"/>
			<point x="249" y="1020" type="curve" smooth="yes"/>
			<point x="172" y="1020"/>
			<point x="135" y="981"/>
		</contour>
	</outline>
</glyph>
<glyph name="x" format="2">
	<unicode hex="0078"/>
	<advance width="1104"/>
	<outline>
		<contour>
			<point x="208" y="34" type="curve" smooth="yes"/>
			<point x="485" y="367" type="line"/>
			<point x="397" y="538" type="line"/>
			<point x="60" y="180" type="line" smooth="yes"/>
			<point x="22" y="140"/>
			<point x="6" y="113"/>
			<point x="6" y="84" type="curve" smooth="yes"/>
			<point x="6" y="33"/>
			<point x="60" y="-24"/>
			<point x="124" y="-24" type="curve" smooth="yes"/>
			<point x="151" y="-24"/>
			<point x="169" y="-13"/>
		</contour>
		<contour>
			<point x="806" y="971" type="curve" smooth="yes"/>
			<point x="516" y="625" type="line"/>
			<point x="604" y="458" type="line"/>
			<point x="944" y="827" type="line" smooth="yes"/>
			<point x="983" y="869"/>
			<point x="994" y="886"/>
			<point x="994" y="908" type="curve" smooth="yes"/>
			<point x="994" y="964"/>
			<point x="943" y="1018"/>
			<point x="885" y="1018" type="curve" smooth="yes"/>
			<point x="851" y="1018"/>
			<point x="838" y="1009"/>
		</contour>
		<contour>
			<point x="817" y="187" type="curve" smooth="yes"/>
			<point x="678" y="380"/>
			<point x="462" y="741"/>
			<point x="366" y="941" type="curve" smooth="yes"/>
			<point x="335" y="1007"/>
			<point x="307" y="1020"/>
			<point x="263" y="1020" type="curve" smooth="yes"/>
			<point x="211" y="1020"/>
			<point x="155" y="941"/>
			<point x="155" y="891" type="curve" smooth="yes"/>
			<point x="155" y="870"/>
			<point x="159" y="853"/>
			<point x="173" y="819" type="curve" smooth="yes"/>
			<point x="234" y="666"/>
			<point x="466" y="283"/>
			<point x="616" y="78" type="curve" smooth="yes"/>
			<point x="674" y="-1"/>
			<point x="698" y="-24"/>
			<point x="736" y="-24" type="curve" smooth="yes"/>
			<point x="795" y="-24"/>
			<point x="863" y="26"/>
			<point x="863" y="89" type="curve" smooth="yes"/>
			<point x="863" y="108"/>
			<point x="853" y="137"/>
		</contour>
	</outline>
	<guideline x="307" y="428" angle="225.1329"/>
</glyph>
<glyph name="z" format="2">
	<unicode hex="007A"/>
	<advance width="585"/>
	<outline>
		<contour>
			<point x="556" y="-12" type="curve" smooth="yes"/>
			<point x="614" y="-12"/>
			<point x="635" y="50"/>
			<point x="635" y="108" type="curve" smooth="yes"/>
			<point x="635" y="150"/>
			<point x="619" y="188"/>
			<point x="585" y="188" type="curve" smooth="yes"/>
			<point x="502" y="188"/>
			<point x="429" y="206"/>
			<point x="352" y="223" type="curve" smooth="yes"/>
			<point x="281" y="238"/>
			<point x="240" y="256"/>
			<point x="185" y="262" type="curve"/>
			<point x="271" y="190" type="line"/>
			<point x="390" y="339"/>
			<point x="654" y="620"/>
			<point x="804" y="760" type="curve"/>
			<point x="894" y="799"/>
			<point x="949" y="874"/>
			<point x="949" y="933" type="curve" smooth="yes"/>
			<point x="949" y="971"/>
			<point x="903" y="1020"/>
			<point x="842" y="1020" type="curve" smooth="yes"/>
			<point x="813" y="1020"/>
			<point x="790" y="1008"/>
			<point x="741" y="964" type="curve"/>
			<point x="563" y="975"/>
			<point x="445" y="992"/>
			<point x="347" y="1007" type="curve" smooth="yes"/>
			<point x="293" y="1015"/>
			<point x="249" y="1020"/>
			<point x="231" y="1020" type="curve" smooth="yes"/>
			<point x="169" y="1020"/>
			<point x="134" y="976"/>
			<point x="134" y="891" type="curve" smooth="yes"/>
			<point x="134" y="836"/>
			<point x="166" y="806"/>
			<point x="214" y="794" type="curve" smooth="yes"/>
			<point x="324" y="766"/>
			<point x="504" y="749"/>
			<point x="727" y="749" type="curve"/>
			<point x="655" y="831" type="line"/>
			<point x="497" y="691"/>
			<point x="249" y="432"/>
			<point x="113" y="269" type="curve"/>
			<point x="-8" y="255"/>
			<point x="-65" y="184"/>
			<point x="-65" y="125" type="curve" smooth="yes"/>
			<point x="-65" y="45"/>
			<point x="-4" y="-12"/>
			<point x="65" y="-12" type="curve" smooth="yes"/>
			<point x="100" y="-12"/>
			<point x="133" y="7"/>
			<point x="178" y="57" type="curve"/>
			<point x="196" y="54"/>
			<point x="231" y="44"/>
			<point x="288" y="28" type="curve" smooth="yes"/>
			<point x="382" y="2"/>
			<point x="476" y="-12"/>
		</contour>
	</outline>
	<anchor name="bottom" x="261" y="0"/>
	<anchor name="top" x="541" y="1005"/>
</glyph>
<glyph name="braceright" format="2">
	<unicode hex="007D"/>
	<advance width="814"/>
	<outline>
		<contour>
			<point x="764" y="689" type="curve" smooth="yes"/>
			<point x="764" y="739"/>
			<point x="723" y="780"/>
			<point x="654" y="780" type="curve" smooth="yes"/>
			<point x="570" y="780"/>
			<point x="482" y="755"/>
			<point x="418" y="716" type="curve" smooth="yes"/>
			<point x="279" y="630"/>
			<point x="208" y="433"/>
			<point x="208" y="259" type="curve" smooth="yes"/>
			<point x="208" y="-48"/>
			<point x="76" y="-198"/>
			<point x="-134" y="-255" type="curve" smooth="yes"/>
			<point x="-186" y="-269"/>
			<point x="-200" y="-281"/>
			<point x="-200" y="-310" type="curve" smooth="yes"/>
			<point x="-200" y="-354"/>
			<point x="-164" y="-375"/>
			<point x="-85" y="-375" type="curve" smooth="yes"/>
			<point x="184" y="-375"/>
			<point x="438" y="-150"/>
			<point x="438" y="225" type="curve" smooth="yes"/>
			<point x="438" y="444"/>
			<point x="474" y="586"/>
			<point x="567" y="632" type="curve"/>
			<point x="607" y="721" type="line"/>
			<point x="557" y="757"/>
			<point x="533" y="800"/>
			<point x="533" y="858" type="curve" smooth="yes"/>
			<point x="533" y="918"/>
			<point x="558" y="983"/>
			<point x="615" y="1104" type="curve" smooth="yes"/>
			<point x="665" y="1211"/>
			<point x="687" y="1277"/>
			<point x="687" y="1368" type="curve" smooth="yes"/>
			<point x="687" y="1481"/>
			<point x="627" y="1572"/>
			<point x="504" y="1635" type="curve" smooth="yes"/>
			<point x="449" y="1663"/>
			<point x="389" y="1679"/>
			<point x="344" y="1679" type="curve" smooth="yes"/>
			<point x="287" y="1679"/>
			<point x="260" y="1657"/>
			<point x="260" y="1622" type="curve" smooth="yes"/>
			<point x="260" y="1592"/>
			<point x="283" y="1576"/>
			<point x="337" y="1547" type="curve" smooth="yes"/>
			<point x="424" y="1500"/>
			<point x="457" y="1452"/>
			<point x="457" y="1385" type="curve" smooth="yes"/>
			<point x="457" y="1321"/>
			<point x="440" y="1254"/>
			<point x="388" y="1139" type="curve" smooth="yes"/>
			<point x="334" y="1020"/>
			<point x="310" y="931"/>
			<point x="310" y="870" type="curve" smooth="yes"/>
			<point x="310" y="773"/>
			<point x="350" y="699"/>
			<point x="429" y="639" type="curve" smooth="yes"/>
			<point x="506" y="580"/>
			<point x="567" y="555"/>
			<point x="646" y="555" type="curve" smooth="yes"/>
			<point x="718" y="555"/>
			<point x="764" y="608"/>
		</contour>
	</outline>
	<guideline x="162" y="692" angle="0"/>
</glyph>
<glyph name="section" format="2">
	<unicode hex="00A7"/>
	<advance width="1063"/>
	<outline>
		<contour>
			<point x="379" y="188" type="curve"/>
			<point x="465" y="34" type="line"/>
			<point x="734" y="110"/>
			<point x="918" y="305"/>
			<point x="918" y="563" type="curve" smooth="yes"/>
			<point x="918" y="758"/>
			<point x="796" y="888"/>
			<point x="691" y="1000" type="curve" smooth="yes"/>
			<point x="610" y="1087"/>
			<point x="538" y="1163"/>
			<point x="538" y="1251" type="curve" smooth="yes"/>
			<point x="538" y="1348"/>
			<point x="616" y="1411"/>
			<point x="721" y="1411" type="curve" smooth="yes"/>
			<point x="787" y="1411"/>
			<point x="829" y="1398"/>
			<point x="890" y="1371" type="curve" smooth="yes"/>
			<point x="927" y="1355"/>
			<point x="942" y="1347"/>
			<point x="964" y="1347" type="curve" smooth="yes"/>
			<point x="1002" y="1347"/>
			<point x="1053" y="1401"/>
			<point x="1053" y="1466" type="curve" smooth="yes"/>
			<point x="1053" y="1493"/>
			<point x="1035" y="1522"/>
			<point x="989" y="1551" type="curve" smooth="yes"/>
			<point x="919" y="1595"/>
			<point x="829" y="1621"/>
			<point x="732" y="1621" type="curve" smooth="yes"/>
			<point x="474" y="1621"/>
			<point x="298" y="1449"/>
			<point x="298" y="1210" type="curve" smooth="yes"/>
			<point x="298" y="1036"/>
			<point x="397" y="937"/>
			<point x="494" y="841" type="curve" smooth="yes"/>
			<point x="587" y="748"/>
			<point x="678" y="658"/>
			<point x="678" y="504" type="curve" smooth="yes"/>
			<point x="678" y="343"/>
			<point x="541" y="238"/>
		</contour>
		<contour>
			<point x="628" y="923" type="curve"/>
			<point x="542" y="1077" type="line"/>
			<point x="273" y="1001"/>
			<point x="89" y="806"/>
			<point x="89" y="548" type="curve" smooth="yes"/>
			<point x="89" y="353"/>
			<point x="211" y="223"/>
			<point x="316" y="111" type="curve" smooth="yes"/>
			<point x="397" y="24"/>
			<point x="469" y="-52"/>
			<point x="469" y="-140" type="curve" smooth="yes"/>
			<point x="469" y="-237"/>
			<point x="391" y="-300"/>
			<point x="286" y="-300" type="curve" smooth="yes"/>
			<point x="220" y="-300"/>
			<point x="178" y="-287"/>
			<point x="117" y="-260" type="curve" smooth="yes"/>
			<point x="80" y="-244"/>
			<point x="65" y="-236"/>
			<point x="43" y="-236" type="curve" smooth="yes"/>
			<point x="5" y="-236"/>
			<point x="-46" y="-290"/>
			<point x="-46" y="-355" type="curve" smooth="yes"/>
			<point x="-46" y="-382"/>
			<point x="-28" y="-411"/>
			<point x="18" y="-440" type="curve" smooth="yes"/>
			<point x="88" y="-484"/>
			<point x="178" y="-510"/>
			<point x="275" y="-510" type="curve" smooth="yes"/>
			<point x="533" y="-510"/>
			<point x="709" y="-338"/>
			<point x="709" y="-99" type="curve" smooth="yes"/>
			<point x="709" y="75"/>
			<point x="610" y="174"/>
			<point x="513" y="270" type="curve" smooth="yes"/>
			<point x="420" y="363"/>
			<point x="329" y="453"/>
			<point x="329" y="607" type="curve" smooth="yes"/>
			<point x="329" y="768"/>
			<point x="466" y="873"/>
		</contour>
	</outline>
	<anchor name="bottom" x="392" y="0"/>
</glyph>
<glyph name="ordfeminine" format="2">
	<unicode hex="00AA"/>
	<advance width="970"/>
	<outline>
		<contour>
			<point x="622" y="1401" type="curve"/>
			<point x="664" y="1546" type="line"/>
			<point x="573" y="1593"/>
			<point x="523" y="1609"/>
			<point x="456" y="1609" type="curve" smooth="yes"/>
			<point x="255" y="1609"/>
			<point x="80" y="1351"/>
			<point x="80" y="1052" type="curve" smooth="yes"/>
			<point x="80" y="879"/>
			<point x="159" y="795"/>
			<point x="246" y="795" type="curve" smooth="yes"/>
			<point x="346" y="795"/>
			<point x="463" y="904"/>
			<point x="568" y="1107" type="curve"/>
			<point x="562" y="1112" type="line"/>
			<point x="547" y="1066"/>
			<point x="532" y="992"/>
			<point x="532" y="948" type="curve" smooth="yes"/>
			<point x="532" y="863"/>
			<point x="564" y="795"/>
			<point x="685" y="795" type="curve" smooth="yes"/>
			<point x="801" y="795"/>
			<point x="950" y="914"/>
			<point x="950" y="978" type="curve" smooth="yes"/>
			<point x="950" y="1006"/>
			<point x="908" y="1046"/>
			<point x="870" y="1046" type="curve" smooth="yes"/>
			<point x="856" y="1046"/>
			<point x="843" y="1035"/>
			<point x="828" y="1022" type="curve" smooth="yes"/>
			<point x="790" y="989"/>
			<point x="769" y="970"/>
			<point x="744" y="970" type="curve" smooth="yes"/>
			<point x="727" y="970"/>
			<point x="716" y="981"/>
			<point x="716" y="1004" type="curve" smooth="yes"/>
			<point x="716" y="1023"/>
			<point x="721" y="1046"/>
			<point x="733" y="1088" type="curve" smooth="yes"/>
			<point x="843" y="1475" type="line" smooth="yes"/>
			<point x="854" y="1514"/>
			<point x="855" y="1530"/>
			<point x="855" y="1540" type="curve" smooth="yes"/>
			<point x="855" y="1572"/>
			<point x="813" y="1609"/>
			<point x="740" y="1609" type="curve" smooth="yes"/>
			<point x="688" y="1609"/>
			<point x="671" y="1597"/>
			<point x="652" y="1532" type="curve" smooth="yes"/>
			<point x="603" y="1364" type="line" smooth="yes"/>
			<point x="545" y="1165"/>
			<point x="406" y="969"/>
			<point x="338" y="969" type="curve" smooth="yes"/>
			<point x="308" y="969"/>
			<point x="285" y="1000"/>
			<point x="285" y="1087" type="curve" smooth="yes"/>
			<point x="285" y="1268"/>
			<point x="379" y="1445"/>
			<point x="472" y="1445" type="curve" smooth="yes"/>
			<point x="513" y="1445"/>
			<point x="556" y="1432"/>
		</contour>
	</outline>
</glyph>
<glyph name="registered" format="2">
	<unicode hex="00AE"/>
	<advance width="1799"/>
	<outline>
		<contour>
			<point x="856" y="404" type="curve" smooth="yes"/>
			<point x="1355" y="404"/>
			<point x="1719" y="778"/>
			<point x="1719" y="1318" type="curve" smooth="yes"/>
			<point x="1719" y="1787"/>
			<point x="1421" y="2083"/>
			<point x="962" y="2083" type="curve" smooth="yes"/>
			<point x="464" y="2083"/>
			<point x="100" y="1710"/>
			<point x="100" y="1170" type="curve" smooth="yes"/>
			<point x="100" y="700"/>
			<point x="397" y="404"/>
		</contour>
		<contour>
			<point x="867" y="576" type="curve" smooth="yes"/>
			<point x="490" y="576"/>
			<point x="269" y="808"/>
			<point x="269" y="1183" type="curve" smooth="yes"/>
			<point x="269" y="1638"/>
			<point x="569" y="1911"/>
			<point x="958" y="1911" type="curve" smooth="yes"/>
			<point x="1335" y="1911"/>
			<point x="1550" y="1682"/>
			<point x="1550" y="1308" type="curve" smooth="yes"/>
			<point x="1550" y="855"/>
			<point x="1257" y="576"/>
		</contour>
		<contour>
			<point x="661" y="793" type="curve" smooth="yes"/>
			<point x="731" y="793"/>
			<point x="760" y="816"/>
			<point x="767" y="918" type="curve" smooth="yes"/>
			<point x="806" y="1522" type="line"/>
			<point x="839" y="1530"/>
			<point x="877" y="1536"/>
			<point x="921" y="1536" type="curve" smooth="yes"/>
			<point x="1007" y="1536"/>
			<point x="1055" y="1493"/>
			<point x="1055" y="1433" type="curve" smooth="yes"/>
			<point x="1055" y="1356"/>
			<point x="1003" y="1308"/>
			<point x="881" y="1308" type="curve" smooth="yes"/>
			<point x="663" y="1308" type="line"/>
			<point x="651" y="1115" type="line"/>
			<point x="834" y="1115" type="line" smooth="yes"/>
			<point x="1120" y="1115"/>
			<point x="1295" y="1261"/>
			<point x="1295" y="1457" type="curve" smooth="yes"/>
			<point x="1295" y="1644"/>
			<point x="1141" y="1757"/>
			<point x="934" y="1757" type="curve" smooth="yes"/>
			<point x="856" y="1757"/>
			<point x="777" y="1748"/>
			<point x="727" y="1735" type="curve" smooth="yes"/>
			<point x="638" y="1712"/>
			<point x="585" y="1677"/>
			<point x="578" y="1575" type="curve" smooth="yes"/>
			<point x="537" y="993" type="line" smooth="yes"/>
			<point x="535" y="964"/>
			<point x="531" y="933"/>
			<point x="531" y="902" type="curve" smooth="yes"/>
			<point x="531" y="822"/>
			<point x="570" y="793"/>
		</contour>
		<contour>
			<point x="1155" y="793" type="curve" smooth="yes"/>
			<point x="1225" y="793"/>
			<point x="1291" y="863"/>
			<point x="1291" y="923" type="curve" smooth="yes"/>
			<point x="1291" y="951"/>
			<point x="1273" y="977"/>
			<point x="1231" y="1021" type="curve" smooth="yes"/>
			<point x="1067" y="1196" type="line"/>
			<point x="861" y="1126" type="line"/>
			<point x="1058" y="858" type="line" smooth="yes"/>
			<point x="1100" y="801"/>
			<point x="1121" y="793"/>
		</contour>
	</outline>
</glyph>
<glyph name="degree" format="2">
	<unicode hex="00B0"/>
	<advance width="863"/>
	<outline>
		<contour>
			<point x="453" y="964" type="curve" smooth="yes"/>
			<point x="674" y="964"/>
			<point x="868" y="1141"/>
			<point x="868" y="1358" type="curve" smooth="yes"/>
			<point x="868" y="1511"/>
			<point x="772" y="1625"/>
			<point x="591" y="1625" type="curve" smooth="yes"/>
			<point x="365" y="1625"/>
			<point x="175" y="1447"/>
			<point x="175" y="1232" type="curve" smooth="yes"/>
			<point x="175" y="1068"/>
			<point x="283" y="964"/>
		</contour>
		<contour>
			<point x="486" y="1144" type="curve" smooth="yes"/>
			<point x="407" y="1144"/>
			<point x="364" y="1191"/>
			<point x="364" y="1260" type="curve" smooth="yes"/>
			<point x="364" y="1357"/>
			<point x="448" y="1445"/>
			<point x="554" y="1445" type="curve" smooth="yes"/>
			<point x="633" y="1445"/>
			<point x="679" y="1397"/>
			<point x="679" y="1324" type="curve" smooth="yes"/>
			<point x="679" y="1218"/>
			<point x="585" y="1144"/>
		</contour>
	</outline>
</glyph>
<glyph name="paragraph" format="2">
	<unicode hex="00B6"/>
	<advance width="1251"/>
	<outline>
		<contour>
			<point x="110" y="953" type="curve" smooth="yes"/>
			<point x="110" y="698"/>
			<point x="349" y="472"/>
			<point x="639" y="472" type="curve" smooth="yes"/>
			<point x="803" y="472"/>
			<point x="957" y="511"/>
			<point x="1085" y="593" type="curve" smooth="yes"/>
			<point x="1170" y="647"/>
			<point x="1191" y="682"/>
			<point x="1191" y="710" type="curve" smooth="yes"/>
			<point x="1191" y="753"/>
			<point x="1146" y="810"/>
			<point x="1106" y="810" type="curve" smooth="yes"/>
			<point x="1090" y="810"/>
			<point x="1079" y="806"/>
			<point x="1040" y="783" type="curve" smooth="yes"/>
			<point x="941" y="724"/>
			<point x="826" y="693"/>
			<point x="679" y="693" type="curve" smooth="yes"/>
			<point x="509" y="693"/>
			<point x="360" y="778"/>
			<point x="360" y="990" type="curve" smooth="yes"/>
			<point x="360" y="1204"/>
			<point x="525" y="1381"/>
			<point x="747" y="1381" type="curve" smooth="yes"/>
			<point x="851" y="1381"/>
			<point x="960" y="1351"/>
			<point x="1007" y="1323" type="curve"/>
			<point x="1105" y="1510" type="line"/>
			<point x="1025" y="1559"/>
			<point x="921" y="1594"/>
			<point x="792" y="1594" type="curve" smooth="yes"/>
			<point x="417" y="1594"/>
			<point x="110" y="1313"/>
		</contour>
		<contour>
			<point x="503" y="-280" type="curve"/>
			<point x="368" y="-448" type="line"/>
			<point x="416" y="-486"/>
			<point x="481" y="-510"/>
			<point x="563" y="-510" type="curve" smooth="yes"/>
			<point x="751" y="-510"/>
			<point x="892" y="-386"/>
			<point x="917" y="0" type="curve" smooth="yes"/>
			<point x="964" y="746"/>
			<point x="1029" y="1008"/>
			<point x="1266" y="1470" type="curve" smooth="yes"/>
			<point x="1309" y="1553"/>
			<point x="1309" y="1570"/>
			<point x="1309" y="1579" type="curve" smooth="yes"/>
			<point x="1309" y="1621"/>
			<point x="1254" y="1665"/>
			<point x="1175" y="1665" type="curve" smooth="yes"/>
			<point x="1135" y="1665"/>
			<point x="1124" y="1642"/>
			<point x="1086" y="1560" type="curve" smooth="yes"/>
			<point x="840" y="1029"/>
			<point x="769" y="724"/>
			<point x="718" y="26" type="curve" smooth="yes"/>
			<point x="698" y="-246"/>
			<point x="647" y="-294"/>
			<point x="570" y="-294" type="curve" smooth="yes"/>
			<point x="551" y="-294"/>
			<point x="528" y="-290"/>
		</contour>
		<contour>
			<point x="213" y="-510" type="curve" smooth="yes"/>
			<point x="433" y="-510"/>
			<point x="595" y="-373"/>
			<point x="616" y="-2" type="curve" smooth="yes"/>
			<point x="657" y="717"/>
			<point x="732" y="989"/>
			<point x="969" y="1525" type="curve"/>
			<point x="770" y="1533" type="line"/>
			<point x="555" y="1087"/>
			<point x="471" y="746"/>
			<point x="419" y="19" type="curve" smooth="yes"/>
			<point x="401" y="-227"/>
			<point x="324" y="-294"/>
			<point x="231" y="-294" type="curve" smooth="yes"/>
			<point x="187" y="-294"/>
			<point x="145" y="-271"/>
			<point x="105" y="-238" type="curve" smooth="yes"/>
			<point x="79" y="-216"/>
			<point x="61" y="-205"/>
			<point x="40" y="-205" type="curve" smooth="yes"/>
			<point x="-9" y="-205"/>
			<point x="-78" y="-271"/>
			<point x="-78" y="-336" type="curve" smooth="yes"/>
			<point x="-78" y="-401"/>
			<point x="74" y="-510"/>
		</contour>
	</outline>
</glyph>
<glyph name="Thorn" format="2">
	<unicode hex="00DE"/>
	<advance width="1538"/>
	<outline>
		<contour>
			<point x="596" y="253" type="curve" smooth="yes"/>
			<point x="535" y="253"/>
			<point x="492" y="198"/>
			<point x="492" y="164" type="curve" smooth="yes"/>
			<point x="492" y="146"/>
			<point x="498" y="123"/>
			<point x="531" y="83" type="curve" smooth="yes"/>
			<point x="584" y="20"/>
			<point x="669" y="-22"/>
			<point x="778" y="-22" type="curve" smooth="yes"/>
			<point x="1013" y="-22"/>
			<point x="1338" y="351"/>
			<point x="1338" y="842" type="curve" smooth="yes"/>
			<point x="1338" y="1120"/>
			<point x="1215" y="1248"/>
			<point x="1051" y="1248" type="curve" smooth="yes"/>
			<point x="851" y="1248"/>
			<point x="682" y="1102"/>
			<point x="502" y="755" type="curve"/>
			<point x="519" y="679" type="line"/>
			<point x="626" y="998"/>
			<point x="697" y="1229"/>
			<point x="745" y="1393" type="curve" smooth="yes"/>
			<point x="771" y="1481"/>
			<point x="778" y="1511"/>
			<point x="778" y="1537" type="curve" smooth="yes"/>
			<point x="778" y="1589"/>
			<point x="721" y="1624"/>
			<point x="626" y="1624" type="curve" smooth="yes"/>
			<point x="562" y="1624"/>
			<point x="537" y="1600"/>
			<point x="518" y="1533" type="curve" smooth="yes"/>
			<point x="467" y="1348"/>
			<point x="327" y="632"/>
			<point x="280" y="383" type="curve"/>
			<point x="148" y="-39"/>
			<point x="80" y="-349"/>
			<point x="80" y="-505" type="curve" smooth="yes"/>
			<point x="80" y="-584"/>
			<point x="115" y="-612"/>
			<point x="210" y="-612" type="curve" smooth="yes"/>
			<point x="272" y="-612"/>
			<point x="308" y="-580"/>
			<point x="323" y="-463" type="curve" smooth="yes"/>
			<point x="348" y="-263"/>
			<point x="377" y="-57"/>
			<point x="434" y="248" type="curve"/>
			<point x="501" y="490"/>
			<point x="547" y="608"/>
			<point x="633" y="766" type="curve" smooth="yes"/>
			<point x="723" y="931"/>
			<point x="844" y="1048"/>
			<point x="944" y="1048" type="curve" smooth="yes"/>
			<point x="1037" y="1048"/>
			<point x="1098" y="982"/>
			<point x="1098" y="799" type="curve" smooth="yes"/>
			<point x="1098" y="463"/>
			<point x="890" y="178"/>
			<point x="767" y="178" type="curve" smooth="yes"/>
			<point x="718" y="178"/>
			<point x="684" y="195"/>
			<point x="640" y="233" type="curve" smooth="yes"/>
			<point x="624" y="247"/>
			<point x="611" y="253"/>
		</contour>
	</outline>
</glyph>
<glyph name="germandbls" format="2">
	<unicode hex="00DF"/>
	<advance width="1030"/>
	<outline>
		<contour>
			<point x="426" y="-70" type="curve" smooth="yes"/>
			<point x="451" y="-70"/>
			<point x="497" y="-69"/>
			<point x="558" y="-55" type="curve" smooth="yes"/>
			<point x="846" y="9"/>
			<point x="1004" y="155"/>
			<point x="1004" y="383" type="curve" smooth="yes"/>
			<point x="1004" y="479"/>
			<point x="960" y="562"/>
			<point x="846" y="682" type="curve" smooth="yes"/>
			<point x="753" y="780"/>
			<point x="737" y="807"/>
			<point x="737" y="851" type="curve" smooth="yes"/>
			<point x="737" y="910"/>
			<point x="756" y="948"/>
			<point x="863" y="1050" type="curve" smooth="yes"/>
			<point x="1010" y="1191"/>
			<point x="1058" y="1281"/>
			<point x="1058" y="1390" type="curve" smooth="yes"/>
			<point x="1058" y="1532"/>
			<point x="944" y="1625"/>
			<point x="773" y="1625" type="curve" smooth="yes"/>
			<point x="544" y="1625"/>
			<point x="370" y="1446"/>
			<point x="266" y="971" type="curve"/>
			<point x="265" y="971"/>
			<point x="264" y="971"/>
			<point x="264" y="971" type="curve" smooth="yes"/>
			<point x="250" y="971"/>
			<point x="244" y="955"/>
			<point x="239" y="915" type="curve"/>
			<point x="215" y="788"/>
			<point x="170" y="593"/>
			<point x="148" y="431" type="curve"/>
			<point x="46" y="241"/>
			<point x="10" y="106"/>
			<point x="10" y="32" type="curve" smooth="yes"/>
			<point x="10" y="-26"/>
			<point x="92" y="-58"/>
			<point x="160" y="-58" type="curve" smooth="yes"/>
			<point x="206" y="-58"/>
			<point x="235" y="-37"/>
			<point x="255" y="55" type="curve" smooth="yes"/>
			<point x="295" y="235"/>
			<point x="339" y="478"/>
			<point x="364" y="638" type="curve"/>
			<point x="457" y="978" type="line" smooth="yes"/>
			<point x="551" y="1323"/>
			<point x="643" y="1435"/>
			<point x="744" y="1435" type="curve" smooth="yes"/>
			<point x="806" y="1435"/>
			<point x="838" y="1393"/>
			<point x="838" y="1346" type="curve" smooth="yes"/>
			<point x="838" y="1291"/>
			<point x="826" y="1241"/>
			<point x="719" y="1134" type="curve" smooth="yes"/>
			<point x="581" y="996"/>
			<point x="527" y="899"/>
			<point x="527" y="782" type="curve" smooth="yes"/>
			<point x="527" y="708"/>
			<point x="559" y="635"/>
			<point x="655" y="542" type="curve" smooth="yes"/>
			<point x="751" y="449"/>
			<point x="779" y="398"/>
			<point x="779" y="336" type="curve" smooth="yes"/>
			<point x="779" y="241"/>
			<point x="688" y="170"/>
			<point x="433" y="128" type="curve" smooth="yes"/>
			<point x="368" y="117"/>
			<point x="346" y="82"/>
			<point x="346" y="15" type="curve" smooth="yes"/>
			<point x="346" y="-33"/>
			<point x="368" y="-70"/>
		</contour>
	</outline>
</glyph>
<glyph name="eth" format="2">
	<unicode hex="00F0"/>
	<advance width="1150"/>
	<outline>
		<contour>
			<point x="324" y="-12" type="curve" smooth="yes"/>
			<point x="649" y="-12"/>
			<point x="973" y="340"/>
			<point x="973" y="935" type="curve" smooth="yes"/>
			<point x="973" y="1173"/>
			<point x="876" y="1414"/>
			<point x="693" y="1572" type="curve" smooth="yes"/>
			<point x="648" y="1611"/>
			<point x="618" y="1625"/>
			<point x="581" y="1625" type="curve" smooth="yes"/>
			<point x="522" y="1625"/>
			<point x="482" y="1586"/>
			<point x="482" y="1541" type="curve" smooth="yes"/>
			<point x="482" y="1517"/>
			<point x="491" y="1503"/>
			<point x="522" y="1471" type="curve" smooth="yes"/>
			<point x="670" y="1319"/>
			<point x="740" y="1108"/>
			<point x="740" y="891" type="curve" smooth="yes"/>
			<point x="740" y="426"/>
			<point x="501" y="168"/>
			<point x="353" y="168" type="curve" smooth="yes"/>
			<point x="284" y="168"/>
			<point x="249" y="224"/>
			<point x="249" y="347" type="curve" smooth="yes"/>
			<point x="249" y="469"/>
			<point x="283" y="594"/>
			<point x="355" y="708" type="curve" smooth="yes"/>
			<point x="422" y="813"/>
			<point x="471" y="832"/>
			<point x="529" y="832" type="curve" smooth="yes"/>
			<point x="548" y="832"/>
			<point x="565" y="830"/>
			<point x="583" y="826" type="curve" smooth="yes"/>
			<point x="601" y="822"/>
			<point x="613" y="818"/>
			<point x="623" y="818" type="curve" smooth="yes"/>
			<point x="654" y="818"/>
			<point x="676" y="860"/>
			<point x="676" y="888" type="curve" smooth="yes"/>
			<point x="676" y="937"/>
			<point x="610" y="998"/>
			<point x="491" y="998" type="curve" smooth="yes"/>
			<point x="372" y="998"/>
			<point x="252" y="938"/>
			<point x="159" y="807" type="curve" smooth="yes"/>
			<point x="72" y="684"/>
			<point x="9" y="494"/>
			<point x="9" y="335" type="curve" smooth="yes"/>
			<point x="9" y="122"/>
			<point x="134" y="-12"/>
		</contour>
		<contour>
			<point x="506" y="1172" type="curve" smooth="yes"/>
			<point x="527" y="1172"/>
			<point x="549" y="1175"/>
			<point x="586" y="1184" type="curve" smooth="yes"/>
			<point x="715" y="1215"/>
			<point x="945" y="1295"/>
			<point x="1016" y="1345" type="curve" smooth="yes"/>
			<point x="1045" y="1365"/>
			<point x="1050" y="1392"/>
			<point x="1050" y="1413" type="curve" smooth="yes"/>
			<point x="1050" y="1451"/>
			<point x="1027" y="1506"/>
			<point x="987" y="1506" type="curve" smooth="yes"/>
			<point x="964" y="1506"/>
			<point x="954" y="1502"/>
			<point x="917" y="1484" type="curve" smooth="yes"/>
			<point x="811" y="1433"/>
			<point x="654" y="1381"/>
			<point x="462" y="1333" type="curve" smooth="yes"/>
			<point x="437" y="1327"/>
			<point x="430" y="1301"/>
			<point x="430" y="1282" type="curve" smooth="yes"/>
			<point x="430" y="1238"/>
			<point x="461" y="1172"/>
		</contour>
	</outline>
</glyph>
<glyph name="divide" format="2">
	<unicode hex="00F7"/>
	<advance width="1200"/>
	<outline>
		<contour>
			<point x="480" y="283" type="curve" smooth="yes"/>
			<point x="572" y="283"/>
			<point x="660" y="369"/>
			<point x="660" y="470" type="curve" smooth="yes"/>
			<point x="660" y="541"/>
			<point x="608" y="592"/>
			<point x="536" y="592" type="curve" smooth="yes"/>
			<point x="447" y="592"/>
			<point x="367" y="513"/>
			<point x="367" y="413" type="curve" smooth="yes"/>
			<point x="367" y="331"/>
			<point x="419" y="283"/>
		</contour>
		<contour>
			<point x="675" y="1052" type="curve" smooth="yes"/>
			<point x="767" y="1052"/>
			<point x="855" y="1138"/>
			<point x="855" y="1239" type="curve" smooth="yes"/>
			<point x="855" y="1310"/>
			<point x="803" y="1361"/>
			<point x="731" y="1361" type="curve" smooth="yes"/>
			<point x="642" y="1361"/>
			<point x="562" y="1282"/>
			<point x="562" y="1182" type="curve" smooth="yes"/>
			<point x="562" y="1100"/>
			<point x="614" y="1052"/>
		</contour>
		<contour>
			<point x="253" y="712" type="curve" smooth="yes"/>
			<point x="477" y="712"/>
			<point x="805" y="714"/>
			<point x="920" y="721" type="curve" smooth="yes"/>
			<point x="1047" y="729"/>
			<point x="1071" y="787"/>
			<point x="1071" y="857" type="curve" smooth="yes"/>
			<point x="1071" y="906"/>
			<point x="1049" y="935"/>
			<point x="981" y="935" type="curve" smooth="yes"/>
			<point x="801" y="933"/>
			<point x="481" y="932"/>
			<point x="253" y="932" type="curve" smooth="yes"/>
			<point x="174" y="932"/>
			<point x="152" y="875"/>
			<point x="152" y="804" type="curve" smooth="yes"/>
			<point x="152" y="753"/>
			<point x="174" y="712"/>
		</contour>
	</outline>
</glyph>
<glyph name="Aogonek" format="2">
	<unicode hex="0104"/>
	<advance width="1655"/>
	<outline>
		<contour>
			<point x="1203" y="1426" type="curve" smooth="yes"/>
			<point x="951" y="1135"/>
			<point x="526" y="660"/>
			<point x="80" y="214" type="curve" smooth="yes"/>
			<point x="16" y="150"/>
			<point x="0" y="132"/>
			<point x="0" y="102" type="curve" smooth="yes"/>
			<point x="0" y="40"/>
			<point x="59" y="-12"/>
			<point x="110" y="-12" type="curve" smooth="yes"/>
			<point x="142" y="-12"/>
			<point x="163" y="-2"/>
			<point x="189" y="24" type="curve" smooth="yes"/>
			<point x="625" y="469"/>
			<point x="1010" y="906"/>
			<point x="1458" y="1444" type="curve"/>
			<point x="1370" y="1497" type="line"/>
			<point x="1034" y="114" type="line" smooth="yes"/>
			<point x="1027" y="87"/>
			<point x="1027" y="77"/>
			<point x="1027" y="68" type="curve" smooth="yes"/>
			<point x="1027" y="42"/>
			<point x="1043" y="21"/>
			<point x="1079" y="8" type="curve"/>
			<point x="919" y="-105"/>
			<point x="835" y="-189"/>
			<point x="835" y="-300" type="curve" smooth="yes"/>
			<point x="835" y="-385"/>
			<point x="912" y="-444"/>
			<point x="1010" y="-444" type="curve" smooth="yes"/>
			<point x="1095" y="-444"/>
			<point x="1171" y="-407"/>
			<point x="1226" y="-341" type="curve" smooth="yes"/>
			<point x="1255" y="-306"/>
			<point x="1260" y="-285"/>
			<point x="1260" y="-268" type="curve" smooth="yes"/>
			<point x="1260" y="-230"/>
			<point x="1231" y="-211"/>
			<point x="1204" y="-211" type="curve" smooth="yes"/>
			<point x="1193" y="-211"/>
			<point x="1185" y="-214"/>
			<point x="1167" y="-224" type="curve" smooth="yes"/>
			<point x="1130" y="-245"/>
			<point x="1096" y="-259"/>
			<point x="1073" y="-259" type="curve" smooth="yes"/>
			<point x="1049" y="-259"/>
			<point x="1035" y="-244"/>
			<point x="1035" y="-222" type="curve" smooth="yes"/>
			<point x="1035" y="-175"/>
			<point x="1080" y="-123"/>
			<point x="1176" y="-45" type="curve" smooth="yes"/>
			<point x="1256" y="20"/>
			<point x="1270" y="49"/>
			<point x="1281" y="107" type="curve" smooth="yes"/>
			<point x="1544" y="1447" type="line" smooth="yes"/>
			<point x="1553" y="1490"/>
			<point x="1555" y="1504"/>
			<point x="1555" y="1520" type="curve" smooth="yes"/>
			<point x="1555" y="1574"/>
			<point x="1493" y="1618"/>
			<point x="1417" y="1618" type="curve" smooth="yes"/>
			<point x="1364" y="1618"/>
			<point x="1341" y="1586"/>
		</contour>
	</outline>
	<anchor name="bottom" x="663" y="0"/>
	<anchor name="top" x="1460" y="1600"/>
</glyph>
<glyph name="Eogonek" format="2">
	<unicode hex="0118"/>
	<advance width="1314"/>
	<outline>
		<contour>
			<point x="515" y="-12" type="curve" smooth="yes"/>
			<point x="596" y="-12"/>
			<point x="695" y="14"/>
			<point x="773" y="61" type="curve"/>
			<point x="753" y="77" type="line"/>
			<point x="589" y="-21"/>
			<point x="477" y="-144"/>
			<point x="477" y="-243" type="curve" smooth="yes"/>
			<point x="477" y="-328"/>
			<point x="554" y="-387"/>
			<point x="652" y="-387" type="curve" smooth="yes"/>
			<point x="737" y="-387"/>
			<point x="813" y="-350"/>
			<point x="868" y="-284" type="curve" smooth="yes"/>
			<point x="897" y="-249"/>
			<point x="902" y="-228"/>
			<point x="902" y="-211" type="curve" smooth="yes"/>
			<point x="902" y="-173"/>
			<point x="873" y="-154"/>
			<point x="846" y="-154" type="curve" smooth="yes"/>
			<point x="835" y="-154"/>
			<point x="827" y="-157"/>
			<point x="809" y="-167" type="curve" smooth="yes"/>
			<point x="772" y="-188"/>
			<point x="738" y="-202"/>
			<point x="715" y="-202" type="curve" smooth="yes"/>
			<point x="691" y="-202"/>
			<point x="677" y="-187"/>
			<point x="677" y="-165" type="curve" smooth="yes"/>
			<point x="677" y="-122"/>
			<point x="735" y="-50"/>
			<point x="811" y="9" type="curve" smooth="yes"/>
			<point x="878" y="61"/>
			<point x="924" y="92"/>
			<point x="981" y="131" type="curve" smooth="yes"/>
			<point x="1032" y="166"/>
			<point x="1049" y="189"/>
			<point x="1049" y="215" type="curve" smooth="yes"/>
			<point x="1049" y="267"/>
			<point x="1007" y="315"/>
			<point x="961" y="315" type="curve" smooth="yes"/>
			<point x="936" y="315"/>
			<point x="919" y="301"/>
			<point x="893" y="284" type="curve" smooth="yes"/>
			<point x="795" y="220"/>
			<point x="694" y="188"/>
			<point x="597" y="188" type="curve" smooth="yes"/>
			<point x="395" y="188"/>
			<point x="295" y="274"/>
			<point x="295" y="426" type="curve" smooth="yes"/>
			<point x="295" y="595"/>
			<point x="433" y="730"/>
			<point x="608" y="786" type="curve"/>
			<point x="650" y="767"/>
			<point x="736" y="746"/>
			<point x="793" y="746" type="curve" smooth="yes"/>
			<point x="860" y="746"/>
			<point x="909" y="794"/>
			<point x="921" y="891" type="curve" smooth="yes"/>
			<point x="928" y="948"/>
			<point x="909" y="985"/>
			<point x="847" y="985" type="curve" smooth="yes"/>
			<point x="794" y="985"/>
			<point x="751" y="976"/>
			<point x="635" y="940" type="curve"/>
			<point x="562" y="973"/>
			<point x="514" y="1047"/>
			<point x="514" y="1136" type="curve" smooth="yes"/>
			<point x="514" y="1296"/>
			<point x="643" y="1425"/>
			<point x="803" y="1425" type="curve" smooth="yes"/>
			<point x="879" y="1425"/>
			<point x="949" y="1404"/>
			<point x="1020" y="1367" type="curve" smooth="yes"/>
			<point x="1054" y="1349"/>
			<point x="1064" y="1346"/>
			<point x="1076" y="1346" type="curve" smooth="yes"/>
			<point x="1123" y="1346"/>
			<point x="1174" y="1408"/>
			<point x="1174" y="1465" type="curve" smooth="yes"/>
			<point x="1174" y="1489"/>
			<point x="1165" y="1505"/>
			<point x="1133" y="1530" type="curve" smooth="yes"/>
			<point x="1065" y="1583"/>
			<point x="947" y="1625"/>
			<point x="830" y="1625" type="curve" smooth="yes"/>
			<point x="490" y="1625"/>
			<point x="276" y="1383"/>
			<point x="276" y="1154" type="curve" smooth="yes"/>
			<point x="276" y="1034"/>
			<point x="339" y="925"/>
			<point x="454" y="855" type="curve"/>
			<point x="457" y="879" type="line"/>
			<point x="244" y="798"/>
			<point x="60" y="597"/>
			<point x="60" y="362" type="curve" smooth="yes"/>
			<point x="60" y="133"/>
			<point x="244" y="-12"/>
		</contour>
	</outline>
	<anchor name="top" x="825" y="1600"/>
	<anchor name="topleft" x="421" y="1600"/>
</glyph>
<glyph name="Iogonek" format="2">
	<unicode hex="012E"/>
	<advance width="657"/>
	<outline>
		<contour>
			<point x="71" y="11" type="curve"/>
			<point x="-85" y="-103"/>
			<point x="-168" y="-187"/>
			<point x="-168" y="-300" type="curve" smooth="yes"/>
			<point x="-168" y="-385"/>
			<point x="-91" y="-444"/>
			<point x="7" y="-444" type="curve" smooth="yes"/>
			<point x="92" y="-444"/>
			<point x="168" y="-407"/>
			<point x="223" y="-341" type="curve" smooth="yes"/>
			<point x="252" y="-306"/>
			<point x="257" y="-285"/>
			<point x="257" y="-268" type="curve" smooth="yes"/>
			<point x="257" y="-230"/>
			<point x="228" y="-211"/>
			<point x="201" y="-211" type="curve" smooth="yes"/>
			<point x="190" y="-211"/>
			<point x="182" y="-214"/>
			<point x="164" y="-224" type="curve" smooth="yes"/>
			<point x="127" y="-245"/>
			<point x="93" y="-259"/>
			<point x="70" y="-259" type="curve" smooth="yes"/>
			<point x="46" y="-259"/>
			<point x="32" y="-244"/>
			<point x="32" y="-222" type="curve" smooth="yes"/>
			<point x="32" y="-177"/>
			<point x="68" y="-114"/>
			<point x="192" y="-12" type="curve" smooth="yes"/>
			<point x="209" y="2"/>
			<point x="230" y="17"/>
			<point x="241" y="28" type="curve" smooth="yes"/>
			<point x="259" y="45"/>
			<point x="268" y="74"/>
			<point x="279" y="117" type="curve" smooth="yes"/>
			<point x="389" y="553"/>
			<point x="516" y="1043"/>
			<point x="639" y="1448" type="curve" smooth="yes"/>
			<point x="654" y="1497"/>
			<point x="657" y="1514"/>
			<point x="657" y="1528" type="curve" smooth="yes"/>
			<point x="657" y="1560"/>
			<point x="604" y="1600"/>
			<point x="519" y="1600" type="curve" smooth="yes"/>
			<point x="462" y="1600"/>
			<point x="438" y="1590"/>
			<point x="412" y="1504" type="curve" smooth="yes"/>
			<point x="295" y="1117"/>
			<point x="166" y="636"/>
			<point x="63" y="228" type="curve" smooth="yes"/>
			<point x="38" y="129"/>
			<point x="32" y="101"/>
			<point x="32" y="81" type="curve" smooth="yes"/>
			<point x="32" y="52"/>
			<point x="47" y="28"/>
		</contour>
	</outline>
	<anchor name="top" x="565" y="1600"/>
	<anchor name="topleft" x="482" y="1600"/>
</glyph>
<glyph name="lslash" format="2">
	<unicode hex="0142"/>
	<advance width="306"/>
	<outline>
		<contour>
			<point x="408" y="934" type="curve"/>
			<point x="480" y="1081"/>
			<point x="536" y="1203"/>
			<point x="565" y="1290" type="curve" smooth="yes"/>
			<point x="580" y="1334"/>
			<point x="588" y="1369"/>
			<point x="588" y="1390" type="curve" smooth="yes"/>
			<point x="588" y="1451"/>
			<point x="528" y="1521"/>
			<point x="442" y="1521" type="curve" smooth="yes"/>
			<point x="389" y="1521"/>
			<point x="361" y="1488"/>
			<point x="336" y="1425" type="curve" smooth="yes"/>
			<point x="272" y="1268"/>
			<point x="242" y="1099"/>
			<point x="203" y="935" type="curve"/>
			<point x="43" y="470"/>
			<point x="0" y="317"/>
			<point x="0" y="225" type="curve" smooth="yes"/>
			<point x="0" y="71"/>
			<point x="112" y="-12"/>
			<point x="260" y="-12" type="curve" smooth="yes"/>
			<point x="318" y="-12"/>
			<point x="356" y="40"/>
			<point x="356" y="120" type="curve" smooth="yes"/>
			<point x="356" y="157"/>
			<point x="340" y="188"/>
			<point x="306" y="188" type="curve" smooth="yes"/>
			<point x="265" y="188"/>
			<point x="240" y="207"/>
			<point x="240" y="259" type="curve" smooth="yes"/>
			<point x="240" y="326"/>
			<point x="269" y="444"/>
		</contour>
		<contour>
			<point x="728" y="1769" type="curve" smooth="yes"/>
			<point x="588" y="1769"/>
			<point x="374" y="1761"/>
			<point x="327" y="1754" type="curve" smooth="yes"/>
			<point x="264" y="1745"/>
			<point x="237" y="1712"/>
			<point x="237" y="1655" type="curve" smooth="yes"/>
			<point x="237" y="1610"/>
			<point x="261" y="1578"/>
			<point x="326" y="1578" type="curve" smooth="yes"/>
			<point x="338" y="1578"/>
			<point x="385" y="1580"/>
			<point x="446" y="1584" type="curve" smooth="yes"/>
			<point x="532" y="1589"/>
			<point x="683" y="1597"/>
			<point x="783" y="1600" type="curve" smooth="yes"/>
			<point x="873" y="1603"/>
			<point x="906" y="1624"/>
			<point x="906" y="1665" type="curve" smooth="yes"/>
			<point x="906" y="1735"/>
			<point x="850" y="1769"/>
		</contour>
	</outline>
	<anchor name="top" x="556" y="1829"/>
</glyph>
<glyph name="eng" format="2">
	<unicode hex="014B"/>
	<advance width="1145"/>
	<outline>
		<contour>
			<point x="725" y="732" type="curve" smooth="yes"/>
			<point x="725" y="686"/>
			<point x="681" y="499"/>
			<point x="525" y="-46" type="curve" smooth="yes"/>
			<point x="458" y="-281"/>
			<point x="412" y="-326"/>
			<point x="349" y="-326" type="curve" smooth="yes"/>
			<point x="316" y="-326"/>
			<point x="283" y="-314"/>
			<point x="245" y="-285" type="curve" smooth="yes"/>
			<point x="222" y="-267"/>
			<point x="204" y="-257"/>
			<point x="187" y="-257" type="curve" smooth="yes"/>
			<point x="138" y="-257"/>
			<point x="83" y="-309"/>
			<point x="83" y="-368" type="curve" smooth="yes"/>
			<point x="83" y="-388"/>
			<point x="99" y="-417"/>
			<point x="124" y="-440" type="curve" smooth="yes"/>
			<point x="177" y="-490"/>
			<point x="266" y="-526"/>
			<point x="373" y="-526" type="curve" smooth="yes"/>
			<point x="537" y="-526"/>
			<point x="660" y="-445"/>
			<point x="747" y="-132" type="curve" smooth="yes"/>
			<point x="941" y="564"/>
			<point x="965" y="690"/>
			<point x="965" y="792" type="curve" smooth="yes"/>
			<point x="965" y="938"/>
			<point x="869" y="1020"/>
			<point x="760" y="1020" type="curve" smooth="yes"/>
			<point x="594" y="1020"/>
			<point x="422" y="851"/>
			<point x="222" y="430" type="curve"/>
			<point x="250" y="417" type="line"/>
			<point x="388" y="835" type="line" smooth="yes"/>
			<point x="406" y="889"/>
			<point x="411" y="919"/>
			<point x="411" y="938" type="curve" smooth="yes"/>
			<point x="411" y="982"/>
			<point x="359" y="1020"/>
			<point x="267" y="1020" type="curve" smooth="yes"/>
			<point x="216" y="1020"/>
			<point x="194" y="1001"/>
			<point x="172" y="917" type="curve" smooth="yes"/>
			<point x="-36" y="139" type="line" smooth="yes"/>
			<point x="-46" y="102"/>
			<point x="-46" y="87"/>
			<point x="-46" y="74" type="curve" smooth="yes"/>
			<point x="-46" y="27"/>
			<point x="20" y="-12"/>
			<point x="100" y="-12" type="curve" smooth="yes"/>
			<point x="148" y="-12"/>
			<point x="170" y="7"/>
			<point x="195" y="96" type="curve" smooth="yes"/>
			<point x="230" y="219"/>
			<point x="276" y="333"/>
			<point x="326" y="437" type="curve" smooth="yes"/>
			<point x="426" y="644"/>
			<point x="566" y="800"/>
			<point x="660" y="800" type="curve" smooth="yes"/>
			<point x="700" y="800"/>
			<point x="725" y="775"/>
		</contour>
	</outline>
	<anchor name="bottom" x="178" y="-526"/>
	<anchor name="top" x="653" y="1005"/>
</glyph>
<glyph name="OE" format="2">
	<unicode hex="0152"/>
	<advance width="2068"/>
	<outline>
		<contour>
			<point x="120" y="511" type="curve" smooth="yes"/>
			<point x="120" y="161"/>
			<point x="274" y="-12"/>
			<point x="520" y="-12" type="curve" smooth="yes"/>
			<point x="742" y="-12"/>
			<point x="987" y="164"/>
			<point x="1099" y="410" type="curve"/>
			<point x="1088" y="414" type="line"/>
			<point x="1073" y="375" type="line" smooth="yes"/>
			<point x="1053" y="323"/>
			<point x="1045" y="263"/>
			<point x="1045" y="210" type="curve" smooth="yes"/>
			<point x="1045" y="100"/>
			<point x="1125" y="0"/>
			<point x="1271" y="0" type="curve" smooth="yes"/>
			<point x="1739" y="0" type="line" smooth="yes"/>
			<point x="1817" y="0"/>
			<point x="1864" y="53"/>
			<point x="1864" y="130" type="curve" smooth="yes"/>
			<point x="1864" y="207"/>
			<point x="1825" y="230"/>
			<point x="1766" y="230" type="curve" smooth="yes"/>
			<point x="1325" y="230" type="line" smooth="yes"/>
			<point x="1286" y="230"/>
			<point x="1270" y="241"/>
			<point x="1270" y="275" type="curve" smooth="yes"/>
			<point x="1270" y="305"/>
			<point x="1279" y="358"/>
			<point x="1288" y="400" type="curve" smooth="yes"/>
			<point x="1491" y="1377" type="line"/>
			<point x="1682" y="1377"/>
			<point x="1900" y="1382"/>
			<point x="1981" y="1385" type="curve" smooth="yes"/>
			<point x="2055" y="1388"/>
			<point x="2088" y="1437"/>
			<point x="2088" y="1525" type="curve" smooth="yes"/>
			<point x="2088" y="1584"/>
			<point x="2058" y="1613"/>
			<point x="1987" y="1613" type="curve" smooth="yes"/>
			<point x="1787" y="1613"/>
			<point x="1547" y="1607"/>
			<point x="1431" y="1602" type="curve" smooth="yes"/>
			<point x="1337" y="1598"/>
			<point x="1297" y="1556"/>
			<point x="1266" y="1387" type="curve" smooth="yes"/>
			<point x="1256" y="1333" type="line"/>
			<point x="1276" y="1349" type="line"/>
			<point x="1248" y="1503"/>
			<point x="1117" y="1615"/>
			<point x="951" y="1615" type="curve" smooth="yes"/>
			<point x="495" y="1615"/>
			<point x="120" y="1057"/>
		</contour>
		<contour>
			<point x="370" y="528" type="curve" smooth="yes"/>
			<point x="370" y="958"/>
			<point x="644" y="1400"/>
			<point x="902" y="1400" type="curve" smooth="yes"/>
			<point x="1022" y="1400"/>
			<point x="1122" y="1320"/>
			<point x="1122" y="1090" type="curve" smooth="yes"/>
			<point x="1122" y="660"/>
			<point x="818" y="203"/>
			<point x="569" y="203" type="curve" smooth="yes"/>
			<point x="445" y="203"/>
			<point x="370" y="298"/>
		</contour>
		<contour>
			<point x="1575" y="948" type="curve" smooth="yes"/>
			<point x="1332" y="938" type="line"/>
			<point x="1298" y="722" type="line"/>
			<point x="1370" y="723"/>
			<point x="1705" y="728"/>
			<point x="1806" y="733" type="curve" smooth="yes"/>
			<point x="1873" y="736"/>
			<point x="1909" y="773"/>
			<point x="1909" y="861" type="curve" smooth="yes"/>
			<point x="1909" y="929"/>
			<point x="1880" y="957"/>
			<point x="1838" y="957" type="curve" smooth="yes"/>
			<point x="1790" y="957"/>
			<point x="1666" y="952"/>
		</contour>
	</outline>
	<anchor name="bottom" x="1059" y="0"/>
	<anchor name="top" x="1315" y="1600"/>
</glyph>
<glyph name="Uogonek" format="2">
	<unicode hex="0172"/>
	<advance width="1592"/>
	<outline>
		<contour>
			<point x="1042" y="-12" type="curve" smooth="yes"/>
			<point x="1094" y="-12"/>
			<point x="1139" y="0"/>
			<point x="1181" y="13" type="curve"/>
			<point x="1171" y="22" type="line"/>
			<point x="947" y="-122"/>
			<point x="871" y="-224"/>
			<point x="871" y="-312" type="curve" smooth="yes"/>
			<point x="871" y="-397"/>
			<point x="949" y="-456"/>
			<point x="1050" y="-456" type="curve" smooth="yes"/>
			<point x="1141" y="-456"/>
			<point x="1220" y="-417"/>
			<point x="1275" y="-353" type="curve" smooth="yes"/>
			<point x="1305" y="-318"/>
			<point x="1310" y="-297"/>
			<point x="1310" y="-280" type="curve" smooth="yes"/>
			<point x="1310" y="-242"/>
			<point x="1281" y="-223"/>
			<point x="1254" y="-223" type="curve" smooth="yes"/>
			<point x="1242" y="-223"/>
			<point x="1233" y="-226"/>
			<point x="1214" y="-236" type="curve" smooth="yes"/>
			<point x="1176" y="-256"/>
			<point x="1139" y="-271"/>
			<point x="1113" y="-271" type="curve" smooth="yes"/>
			<point x="1087" y="-271"/>
			<point x="1072" y="-256"/>
			<point x="1072" y="-234" type="curve" smooth="yes"/>
			<point x="1072" y="-195"/>
			<point x="1122" y="-122"/>
			<point x="1271" y="-10" type="curve" smooth="yes"/>
			<point x="1396" y="84" type="line" smooth="yes"/>
			<point x="1469" y="139"/>
			<point x="1482" y="172"/>
			<point x="1482" y="199" type="curve" smooth="yes"/>
			<point x="1482" y="241"/>
			<point x="1434" y="290"/>
			<point x="1392" y="290" type="curve" smooth="yes"/>
			<point x="1379" y="290"/>
			<point x="1364" y="283"/>
			<point x="1342" y="268" type="curve" smooth="yes"/>
			<point x="1273" y="221"/>
			<point x="1177" y="188"/>
			<point x="1115" y="188" type="curve" smooth="yes"/>
			<point x="1080" y="188"/>
			<point x="1063" y="199"/>
			<point x="1063" y="237" type="curve" smooth="yes"/>
			<point x="1063" y="259"/>
			<point x="1068" y="286"/>
			<point x="1095" y="385" type="curve" smooth="yes"/>
			<point x="1147" y="575"/>
			<point x="1273" y="1056"/>
			<point x="1379" y="1393" type="curve" smooth="yes"/>
			<point x="1403" y="1469"/>
			<point x="1415" y="1506"/>
			<point x="1415" y="1528" type="curve" smooth="yes"/>
			<point x="1415" y="1560"/>
			<point x="1362" y="1600"/>
			<point x="1277" y="1600" type="curve" smooth="yes"/>
			<point x="1216" y="1600"/>
			<point x="1192" y="1590"/>
			<point x="1173" y="1527" type="curve" smooth="yes"/>
			<point x="1082" y="1223"/>
			<point x="1049" y="1109"/>
			<point x="952" y="873" type="curve" smooth="yes"/>
			<point x="749" y="379"/>
			<point x="543" y="188"/>
			<point x="400" y="188" type="curve" smooth="yes"/>
			<point x="344" y="188"/>
			<point x="304" y="230"/>
			<point x="304" y="309" type="curve" smooth="yes"/>
			<point x="304" y="378"/>
			<point x="317" y="452"/>
			<point x="362" y="589" type="curve" smooth="yes"/>
			<point x="409" y="732"/>
			<point x="453" y="849"/>
			<point x="496" y="967" type="curve" smooth="yes"/>
			<point x="540" y="1088"/>
			<point x="601" y="1239"/>
			<point x="642" y="1373" type="curve" smooth="yes"/>
			<point x="672" y="1471"/>
			<point x="678" y="1495"/>
			<point x="678" y="1528" type="curve" smooth="yes"/>
			<point x="678" y="1560"/>
			<point x="625" y="1600"/>
			<point x="540" y="1600" type="curve" smooth="yes"/>
			<point x="482" y="1600"/>
			<point x="460" y="1591"/>
			<point x="438" y="1519" type="curve" smooth="yes"/>
			<point x="395" y="1378"/>
			<point x="323" y="1164"/>
			<point x="283" y="1047" type="curve" smooth="yes"/>
			<point x="226" y="879"/>
			<point x="198" y="800"/>
			<point x="147" y="650" type="curve" smooth="yes"/>
			<point x="94" y="494"/>
			<point x="64" y="374"/>
			<point x="64" y="272" type="curve" smooth="yes"/>
			<point x="64" y="102"/>
			<point x="171" y="-12"/>
			<point x="316" y="-12" type="curve" smooth="yes"/>
			<point x="553" y="-12"/>
			<point x="736" y="130"/>
			<point x="996" y="597" type="curve"/>
			<point x="972" y="637" type="line"/>
			<point x="920" y="496"/>
			<point x="892" y="426"/>
			<point x="875" y="382" type="curve" smooth="yes"/>
			<point x="844" y="300"/>
			<point x="833" y="236"/>
			<point x="833" y="188" type="curve" smooth="yes"/>
			<point x="833" y="61"/>
			<point x="920" y="-12"/>
		</contour>
	</outline>
	<anchor name="bottom" x="522" y="0"/>
	<anchor name="top" x="960" y="1600"/>
	<anchor name="topright" x="1677" y="1434"/>
</glyph>
<glyph name="Schwa" format="2">
	<unicode hex="018F"/>
	<advance width="1238"/>
	<outline>
		<contour>
			<point x="727" y="1615" type="curve" smooth="yes"/>
			<point x="597" y="1615"/>
			<point x="479" y="1581"/>
			<point x="361" y="1517" type="curve" smooth="yes"/>
			<point x="300" y="1484"/>
			<point x="278" y="1452"/>
			<point x="277" y="1409" type="curve" smooth="yes"/>
			<point x="276" y="1361"/>
			<point x="318" y="1305"/>
			<point x="369" y="1305" type="curve" smooth="yes"/>
			<point x="397" y="1305"/>
			<point x="419" y="1314"/>
			<point x="465" y="1337" type="curve" smooth="yes"/>
			<point x="545" y="1376"/>
			<point x="620" y="1400"/>
			<point x="691" y="1400" type="curve" smooth="yes"/>
			<point x="805" y="1400"/>
			<point x="888" y="1304"/>
			<point x="888" y="1050" type="curve" smooth="yes"/>
			<point x="888" y="510"/>
			<point x="601" y="188"/>
			<point x="412" y="188" type="curve" smooth="yes"/>
			<point x="313" y="188"/>
			<point x="260" y="236"/>
			<point x="260" y="344" type="curve" smooth="yes"/>
			<point x="260" y="527"/>
			<point x="524" y="763"/>
			<point x="886" y="763" type="curve" smooth="yes"/>
			<point x="939" y="763"/>
			<point x="983" y="805"/>
			<point x="983" y="876" type="curve" smooth="yes"/>
			<point x="983" y="921"/>
			<point x="959" y="953"/>
			<point x="923" y="953" type="curve" smooth="yes"/>
			<point x="422" y="953"/>
			<point x="20" y="624"/>
			<point x="20" y="309" type="curve" smooth="yes"/>
			<point x="20" y="120"/>
			<point x="153" y="-12"/>
			<point x="360" y="-12" type="curve" smooth="yes"/>
			<point x="737" y="-12"/>
			<point x="1138" y="459"/>
			<point x="1138" y="1078" type="curve" smooth="yes"/>
			<point x="1138" y="1428"/>
			<point x="967" y="1615"/>
		</contour>
	</outline>
	<anchor name="top" x="725" y="1600"/>
</glyph>
<glyph name="gravecomb" format="2">
	<unicode hex="0300"/>
	<outline>
		<contour>
			<point x="342" y="1115" type="curve" smooth="yes"/>
			<point x="379" y="1115"/>
			<point x="413" y="1145"/>
			<point x="413" y="1186" type="curve" smooth="yes"/>
			<point x="413" y="1200"/>
			<point x="407" y="1215"/>
			<point x="394" y="1236" type="curve" smooth="yes"/>
			<point x="366" y="1277"/>
			<point x="330" y="1331"/>
			<point x="277" y="1436" type="curve" smooth="yes"/>
			<point x="256" y="1480"/>
			<point x="234" y="1520"/>
			<point x="176" y="1520" type="curve" smooth="yes"/>
			<point x="116" y="1520"/>
			<point x="50" y="1472"/>
			<point x="50" y="1409" type="curve" smooth="yes"/>
			<point x="50" y="1388"/>
			<point x="59" y="1366"/>
			<point x="84" y="1327" type="curve" smooth="yes"/>
			<point x="164" y="1204"/>
			<point x="289" y="1115"/>
		</contour>
	</outline>
	<anchor name="_top" x="250" y="1005"/>
	<anchor name="top" x="210" y="1520"/>
</glyph>
<glyph name="circumflexcomb" format="2">
	<unicode hex="0302"/>
	<outline>
		<contour>
			<point x="117" y="1115" type="curve" smooth="yes"/>
			<point x="147" y="1115"/>
			<point x="168" y="1122"/>
			<point x="230" y="1173" type="curve" smooth="yes"/>
			<point x="447" y="1349" type="line"/>
			<point x="370" y="1374" type="line"/>
			<point x="437" y="1219" type="line" smooth="yes"/>
			<point x="476" y="1128"/>
			<point x="496" y="1115"/>
			<point x="537" y="1115" type="curve" smooth="yes"/>
			<point x="592" y="1115"/>
			<point x="655" y="1168"/>
			<point x="655" y="1210" type="curve" smooth="yes"/>
			<point x="655" y="1241"/>
			<point x="643" y="1265"/>
			<point x="572" y="1388" type="curve" smooth="yes"/>
			<point x="503" y="1506"/>
			<point x="484" y="1520"/>
			<point x="445" y="1520" type="curve" smooth="yes"/>
			<point x="403" y="1520"/>
			<point x="369" y="1504"/>
			<point x="240" y="1398" type="curve" smooth="yes"/>
			<point x="74" y="1261"/>
			<point x="50" y="1219"/>
			<point x="50" y="1187" type="curve" smooth="yes"/>
			<point x="50" y="1156"/>
			<point x="79" y="1115"/>
		</contour>
	</outline>
	<anchor name="_top" x="300" y="1005"/>
	<anchor name="top" x="440" y="1520"/>
</glyph>
<glyph name="tildecomb" format="2">
	<unicode hex="0303"/>
	<outline>
		<contour>
			<point x="136" y="1134" type="curve" smooth="yes"/>
			<point x="163" y="1134"/>
			<point x="184" y="1172"/>
			<point x="205" y="1211" type="curve" smooth="yes"/>
			<point x="246" y="1285"/>
			<point x="265" y="1298"/>
			<point x="288" y="1298" type="curve" smooth="yes"/>
			<point x="309" y="1298"/>
			<point x="330" y="1274"/>
			<point x="355" y="1244" type="curve" smooth="yes"/>
			<point x="395" y="1196"/>
			<point x="447" y="1134"/>
			<point x="533" y="1134" type="curve" smooth="yes"/>
			<point x="626" y="1134"/>
			<point x="700" y="1216"/>
			<point x="752" y="1323" type="curve" smooth="yes"/>
			<point x="776" y="1373"/>
			<point x="791" y="1415"/>
			<point x="791" y="1441" type="curve" smooth="yes"/>
			<point x="791" y="1471"/>
			<point x="756" y="1502"/>
			<point x="706" y="1502" type="curve" smooth="yes"/>
			<point x="679" y="1502"/>
			<point x="657" y="1463"/>
			<point x="635" y="1423" type="curve" smooth="yes"/>
			<point x="599" y="1354"/>
			<point x="581" y="1334"/>
			<point x="553" y="1334" type="curve" smooth="yes"/>
			<point x="532" y="1334"/>
			<point x="511" y="1358"/>
			<point x="486" y="1388" type="curve" smooth="yes"/>
			<point x="446" y="1436"/>
			<point x="394" y="1498"/>
			<point x="308" y="1498" type="curve" smooth="yes"/>
			<point x="221" y="1498"/>
			<point x="142" y="1411"/>
			<point x="97" y="1327" type="curve" smooth="yes"/>
			<point x="67" y="1271"/>
			<point x="50" y="1225"/>
			<point x="50" y="1195" type="curve" smooth="yes"/>
			<point x="50" y="1165"/>
			<point x="86" y="1134"/>
		</contour>
	</outline>
	<anchor name="_top" x="320" y="1005"/>
	<anchor name="top" x="478" y="1498"/>
</glyph>
<glyph name="brevecomb" format="2">
	<unicode hex="0306"/>
	<outline>
		<contour>
			<point x="267" y="1115" type="curve" smooth="yes"/>
			<point x="380" y="1115"/>
			<point x="500" y="1191"/>
			<point x="577" y="1320" type="curve" smooth="yes"/>
			<point x="610" y="1375"/>
			<point x="616" y="1407"/>
			<point x="616" y="1421" type="curve" smooth="yes"/>
			<point x="616" y="1461"/>
			<point x="568" y="1491"/>
			<point x="527" y="1491" type="curve" smooth="yes"/>
			<point x="501" y="1491"/>
			<point x="495" y="1479"/>
			<point x="469" y="1441" type="curve" smooth="yes"/>
			<point x="409" y="1352"/>
			<point x="349" y="1305"/>
			<point x="288" y="1305" type="curve" smooth="yes"/>
			<point x="238" y="1305"/>
			<point x="208" y="1330"/>
			<point x="195" y="1422" type="curve" smooth="yes"/>
			<point x="188" y="1472"/>
			<point x="175" y="1488"/>
			<point x="133" y="1488" type="curve" smooth="yes"/>
			<point x="73" y="1488"/>
			<point x="50" y="1456"/>
			<point x="50" y="1375" type="curve" smooth="yes"/>
			<point x="50" y="1218"/>
			<point x="135" y="1115"/>
		</contour>
	</outline>
	<anchor name="_top" x="249" y="1005"/>
	<anchor name="top" x="344" y="1488"/>
</glyph>
<glyph name="quoteleft" format="2">
	<unicode hex="2018"/>
	<advance width="414"/>
	<outline>
		<contour>
			<point x="489" y="1718" type="curve" smooth="yes"/>
			<point x="462" y="1718"/>
			<point x="420" y="1705"/>
			<point x="364" y="1657" type="curve" smooth="yes"/>
			<point x="237" y="1546"/>
			<point x="180" y="1408"/>
			<point x="180" y="1242" type="curve" smooth="yes"/>
			<point x="180" y="1137"/>
			<point x="229" y="1118"/>
			<point x="287" y="1118" type="curve" smooth="yes"/>
			<point x="378" y="1118"/>
			<point x="421" y="1144"/>
			<point x="421" y="1198" type="curve" smooth="yes"/>
			<point x="421" y="1206"/>
			<point x="420" y="1217"/>
			<point x="419" y="1228" type="curve" smooth="yes"/>
			<point x="417" y="1246"/>
			<point x="414" y="1267"/>
			<point x="414" y="1303" type="curve" smooth="yes"/>
			<point x="414" y="1387"/>
			<point x="456" y="1484"/>
			<point x="511" y="1551" type="curve" smooth="yes"/>
			<point x="554" y="1603"/>
			<point x="564" y="1619"/>
			<point x="564" y="1637" type="curve" smooth="yes"/>
			<point x="564" y="1681"/>
			<point x="526" y="1718"/>
		</contour>
	</outline>
</glyph>
<glyph name="daggerdbl" format="2">
	<unicode hex="2021"/>
	<advance width="794"/>
	<outline>
		<contour>
			<point x="301" y="396" type="curve" smooth="yes"/>
			<point x="348" y="396"/>
			<point x="370" y="424"/>
			<point x="403" y="560" type="curve" smooth="yes"/>
			<point x="628" y="1486" type="line" smooth="yes"/>
			<point x="639" y="1531"/>
			<point x="642" y="1548"/>
			<point x="642" y="1556" type="curve" smooth="yes"/>
			<point x="642" y="1596"/>
			<point x="594" y="1625"/>
			<point x="535" y="1625" type="curve" smooth="yes"/>
			<point x="467" y="1625"/>
			<point x="434" y="1609"/>
			<point x="421" y="1541" type="curve" smooth="yes"/>
			<point x="387" y="1362"/>
			<point x="295" y="896"/>
			<point x="249" y="635" type="curve" smooth="yes"/>
			<point x="230" y="526"/>
			<point x="223" y="492"/>
			<point x="223" y="459" type="curve" smooth="yes"/>
			<point x="223" y="422"/>
			<point x="244" y="396"/>
		</contour>
		<contour>
			<point x="100" y="800" type="curve" smooth="yes"/>
			<point x="100" y="749"/>
			<point x="123" y="711"/>
			<point x="163" y="707" type="curve" smooth="yes"/>
			<point x="207" y="702"/>
			<point x="258" y="700"/>
			<point x="353" y="700" type="curve" smooth="yes"/>
			<point x="474" y="700"/>
			<point x="572" y="707"/>
			<point x="613" y="719" type="curve" smooth="yes"/>
			<point x="657" y="732"/>
			<point x="678" y="765"/>
			<point x="678" y="828" type="curve" smooth="yes"/>
			<point x="678" y="867"/>
			<point x="666" y="888"/>
			<point x="631" y="888" type="curve" smooth="yes"/>
			<point x="621" y="888"/>
			<point x="593" y="887"/>
			<point x="556" y="885" type="curve" smooth="yes"/>
			<point x="513" y="881"/>
			<point x="428" y="881"/>
			<point x="377" y="881" type="curve" smooth="yes"/>
			<point x="301" y="882"/>
			<point x="269" y="883"/>
			<point x="228" y="886" type="curve" smooth="yes"/>
			<point x="189" y="889"/>
			<point x="171" y="891"/>
			<point x="151" y="891" type="curve" smooth="yes"/>
			<point x="125" y="891"/>
			<point x="100" y="850"/>
		</contour>
		<contour>
			<point x="206" y="1304" type="curve" smooth="yes"/>
			<point x="206" y="1253"/>
			<point x="229" y="1215"/>
			<point x="269" y="1211" type="curve" smooth="yes"/>
			<point x="313" y="1206"/>
			<point x="364" y="1204"/>
			<point x="459" y="1204" type="curve" smooth="yes"/>
			<point x="580" y="1204"/>
			<point x="678" y="1211"/>
			<point x="719" y="1223" type="curve" smooth="yes"/>
			<point x="763" y="1236"/>
			<point x="784" y="1269"/>
			<point x="784" y="1332" type="curve" smooth="yes"/>
			<point x="784" y="1371"/>
			<point x="772" y="1392"/>
			<point x="737" y="1392" type="curve" smooth="yes"/>
			<point x="727" y="1392"/>
			<point x="699" y="1391"/>
			<point x="662" y="1389" type="curve" smooth="yes"/>
			<point x="619" y="1385"/>
			<point x="534" y="1385"/>
			<point x="483" y="1385" type="curve" smooth="yes"/>
			<point x="407" y="1386"/>
			<point x="375" y="1387"/>
			<point x="334" y="1390" type="curve" smooth="yes"/>
			<point x="295" y="1393"/>
			<point x="277" y="1395"/>
			<point x="257" y="1395" type="curve" smooth="yes"/>
			<point x="231" y="1395"/>
			<point x="206" y="1354"/>
		</contour>
	</outline>
</glyph>
<glyph name="perthousand" format="2">
	<unicode hex="2030"/>
	<advance width="2427"/>
	<outline>
		<contour>
			<point x="385" y="852" type="curve" smooth="yes"/>
			<point x="604" y="852"/>
			<point x="808" y="1106"/>
			<point x="808" y="1343" type="curve" smooth="yes"/>
			<point x="808" y="1512"/>
			<point x="713" y="1622"/>
			<point x="574" y="1622" type="curve" smooth="yes"/>
			<point x="355" y="1622"/>
			<point x="150" y="1368"/>
			<point x="150" y="1132" type="curve" smooth="yes"/>
			<point x="150" y="965"/>
			<point x="244" y="852"/>
		</contour>
		<contour>
			<point x="426" y="1052" type="curve" smooth="yes"/>
			<point x="376" y="1052"/>
			<point x="345" y="1090"/>
			<point x="345" y="1168" type="curve" smooth="yes"/>
			<point x="345" y="1291"/>
			<point x="439" y="1422"/>
			<point x="533" y="1422" type="curve" smooth="yes"/>
			<point x="584" y="1422"/>
			<point x="613" y="1388"/>
			<point x="613" y="1310" type="curve" smooth="yes"/>
			<point x="613" y="1185"/>
			<point x="519" y="1052"/>
		</contour>
		<contour>
			<point x="279" y="-25" type="curve" smooth="yes"/>
			<point x="323" y="-25"/>
			<point x="350" y="5"/>
			<point x="380" y="44" type="curve" smooth="yes"/>
			<point x="1455" y="1433" type="line" smooth="yes"/>
			<point x="1491" y="1480"/>
			<point x="1504" y="1504"/>
			<point x="1504" y="1527" type="curve" smooth="yes"/>
			<point x="1504" y="1573"/>
			<point x="1449" y="1625"/>
			<point x="1390" y="1625" type="curve" smooth="yes"/>
			<point x="1353" y="1625"/>
			<point x="1332" y="1608"/>
			<point x="1289" y="1552" type="curve" smooth="yes"/>
			<point x="215" y="167" type="line" smooth="yes"/>
			<point x="197" y="144"/>
			<point x="168" y="107"/>
			<point x="168" y="74" type="curve" smooth="yes"/>
			<point x="168" y="27"/>
			<point x="228" y="-25"/>
		</contour>
		<contour>
			<point x="1114" y="-22" type="curve" smooth="yes"/>
			<point x="1333" y="-22"/>
			<point x="1537" y="232"/>
			<point x="1537" y="469" type="curve" smooth="yes"/>
			<point x="1537" y="638"/>
			<point x="1442" y="748"/>
			<point x="1303" y="748" type="curve" smooth="yes"/>
			<point x="1084" y="748"/>
			<point x="879" y="494"/>
			<point x="879" y="258" type="curve" smooth="yes"/>
			<point x="879" y="91"/>
			<point x="973" y="-22"/>
		</contour>
		<contour>
			<point x="1155" y="178" type="curve" smooth="yes"/>
			<point x="1105" y="178"/>
			<point x="1074" y="216"/>
			<point x="1074" y="294" type="curve" smooth="yes"/>
			<point x="1074" y="417"/>
			<point x="1168" y="548"/>
			<point x="1262" y="548" type="curve" smooth="yes"/>
			<point x="1313" y="548"/>
			<point x="1342" y="514"/>
			<point x="1342" y="436" type="curve" smooth="yes"/>
			<point x="1342" y="311"/>
			<point x="1248" y="178"/>
		</contour>
		<contour>
			<point x="1854" y="-22" type="curve" smooth="yes"/>
			<point x="2073" y="-22"/>
			<point x="2277" y="232"/>
			<point x="2277" y="469" type="curve" smooth="yes"/>
			<point x="2277" y="638"/>
			<point x="2182" y="748"/>
			<point x="2043" y="748" type="curve" smooth="yes"/>
			<point x="1824" y="748"/>
			<point x="1619" y="494"/>
			<point x="1619" y="258" type="curve" smooth="yes"/>
			<point x="1619" y="91"/>
			<point x="1713" y="-22"/>
		</contour>
		<contour>
			<point x="1895" y="178" type="curve" smooth="yes"/>
			<point x="1845" y="178"/>
			<point x="1814" y="216"/>
			<point x="1814" y="294" type="curve" smooth="yes"/>
			<point x="1814" y="417"/>
			<point x="1908" y="548"/>
			<point x="2002" y="548" type="curve" smooth="yes"/>
			<point x="2053" y="548"/>
			<point x="2082" y="514"/>
			<point x="2082" y="436" type="curve" smooth="yes"/>
			<point x="2082" y="311"/>
			<point x="1988" y="178"/>
		</contour>
	</outline>
</glyph>
<glyph name="guilsinglright" format="2">
	<unicode hex="203A"/>
	<advance width="790"/>
	<outline>
		<contour>
			<point x="390" y="914" type="curve" smooth="yes"/>
			<point x="325" y="914"/>
			<point x="270" y="853"/>
			<point x="270" y="811" type="curve" smooth="yes"/>
			<point x="270" y="780"/>
			<point x="276" y="760"/>
			<point x="312" y="718" type="curve" smooth="yes"/>
			<point x="373" y="647"/>
			<point x="427" y="597"/>
			<point x="498" y="535" type="curve"/>
			<point x="505" y="572" type="line"/>
			<point x="376" y="493"/>
			<point x="229" y="376"/>
			<point x="160" y="305" type="curve" smooth="yes"/>
			<point x="123" y="267"/>
			<point x="120" y="239"/>
			<point x="120" y="222" type="curve" smooth="yes"/>
			<point x="120" y="165"/>
			<point x="172" y="112"/>
			<point x="234" y="112" type="curve" smooth="yes"/>
			<point x="251" y="112"/>
			<point x="269" y="116"/>
			<point x="300" y="151" type="curve" smooth="yes"/>
			<point x="359" y="218"/>
			<point x="445" y="302"/>
			<point x="554" y="397" type="curve" smooth="yes"/>
			<point x="639" y="471"/>
			<point x="660" y="503"/>
			<point x="660" y="550" type="curve" smooth="yes"/>
			<point x="660" y="587"/>
			<point x="650" y="616"/>
			<point x="621" y="655" type="curve" smooth="yes"/>
			<point x="591" y="695"/>
			<point x="554" y="741"/>
			<point x="485" y="835" type="curve" smooth="yes"/>
			<point x="441" y="895"/>
			<point x="425" y="914"/>
		</contour>
	</outline>
</glyph>
<glyph name="foursuperior" format="2">
	<unicode hex="2074"/>
	<advance width="834"/>
	<outline>
		<contour>
			<point x="157" y="1192" type="curve" smooth="yes"/>
			<point x="686" y="1192" type="line" smooth="yes"/>
			<point x="752" y="1192"/>
			<point x="794" y="1228"/>
			<point x="794" y="1296" type="curve" smooth="yes"/>
			<point x="794" y="1341"/>
			<point x="777" y="1375"/>
			<point x="737" y="1375" type="curve" smooth="yes"/>
			<point x="708" y="1375"/>
			<point x="691" y="1373"/>
			<point x="647" y="1370" type="curve" smooth="yes"/>
			<point x="145" y="1334" type="line"/>
			<point x="164" y="1288" type="line"/>
			<point x="300" y="1414"/>
			<point x="429" y="1557"/>
			<point x="505" y="1650" type="curve" smooth="yes"/>
			<point x="543" y="1696"/>
			<point x="563" y="1726"/>
			<point x="563" y="1755" type="curve" smooth="yes"/>
			<point x="563" y="1792"/>
			<point x="521" y="1837"/>
			<point x="459" y="1837" type="curve" smooth="yes"/>
			<point x="426" y="1837"/>
			<point x="411" y="1817"/>
			<point x="375" y="1771" type="curve" smooth="yes"/>
			<point x="296" y="1668"/>
			<point x="182" y="1526"/>
			<point x="102" y="1427" type="curve" smooth="yes"/>
			<point x="76" y="1395"/>
			<point x="49" y="1363"/>
			<point x="49" y="1307" type="curve" smooth="yes"/>
			<point x="49" y="1230"/>
			<point x="92" y="1192"/>
		</contour>
		<contour>
			<point x="528" y="1068" type="curve" smooth="yes"/>
			<point x="641" y="1471" type="line" smooth="yes"/>
			<point x="646" y="1490"/>
			<point x="651" y="1509"/>
			<point x="651" y="1520" type="curve" smooth="yes"/>
			<point x="651" y="1556"/>
			<point x="609" y="1584"/>
			<point x="549" y="1584" type="curve" smooth="yes"/>
			<point x="502" y="1584"/>
			<point x="483" y="1566"/>
			<point x="466" y="1506" type="curve" smooth="yes"/>
			<point x="357" y="1123" type="line" smooth="yes"/>
			<point x="349" y="1095"/>
			<point x="341" y="1069"/>
			<point x="341" y="1054" type="curve" smooth="yes"/>
			<point x="341" y="1012"/>
			<point x="372" y="985"/>
			<point x="441" y="985" type="curve" smooth="yes"/>
			<point x="481" y="985"/>
			<point x="510" y="1005"/>
		</contour>
	</outline>
</glyph>
<glyph name="fivesuperior" format="2">
	<unicode hex="2075"/>
	<advance width="824"/>
	<outline>
		<contour>
			<point x="312" y="985" type="curve" smooth="yes"/>
			<point x="553" y="985"/>
			<point x="739" y="1133"/>
			<point x="739" y="1341" type="curve" smooth="yes"/>
			<point x="739" y="1464"/>
			<point x="662" y="1528"/>
			<point x="547" y="1528" type="curve" smooth="yes"/>
			<point x="483" y="1528"/>
			<point x="403" y="1511"/>
			<point x="308" y="1467" type="curve"/>
			<point x="324" y="1458" type="line"/>
			<point x="379" y="1644" type="line"/>
			<point x="717" y="1644" type="line" smooth="yes"/>
			<point x="770" y="1644"/>
			<point x="814" y="1684"/>
			<point x="814" y="1752" type="curve" smooth="yes"/>
			<point x="814" y="1805"/>
			<point x="795" y="1827"/>
			<point x="739" y="1827" type="curve" smooth="yes"/>
			<point x="335" y="1827" type="line" smooth="yes"/>
			<point x="288" y="1827"/>
			<point x="255" y="1816"/>
			<point x="236" y="1750" type="curve" smooth="yes"/>
			<point x="171" y="1525" type="line" smooth="yes"/>
			<point x="166" y="1506"/>
			<point x="155" y="1470"/>
			<point x="155" y="1448" type="curve" smooth="yes"/>
			<point x="155" y="1375"/>
			<point x="207" y="1340"/>
			<point x="259" y="1340" type="curve" smooth="yes"/>
			<point x="297" y="1340"/>
			<point x="327" y="1347"/>
			<point x="371" y="1358" type="curve" smooth="yes"/>
			<point x="410" y="1368"/>
			<point x="434" y="1373"/>
			<point x="467" y="1373" type="curve" smooth="yes"/>
			<point x="515" y="1373"/>
			<point x="540" y="1350"/>
			<point x="540" y="1304" type="curve" smooth="yes"/>
			<point x="540" y="1222"/>
			<point x="457" y="1164"/>
			<point x="335" y="1164" type="curve" smooth="yes"/>
			<point x="271" y="1164"/>
			<point x="223" y="1175"/>
			<point x="177" y="1191" type="curve" smooth="yes"/>
			<point x="148" y="1201"/>
			<point x="131" y="1206"/>
			<point x="111" y="1206" type="curve" smooth="yes"/>
			<point x="70" y="1206"/>
			<point x="30" y="1156"/>
			<point x="30" y="1107" type="curve" smooth="yes"/>
			<point x="30" y="1075"/>
			<point x="46" y="1051"/>
			<point x="86" y="1031" type="curve" smooth="yes"/>
			<point x="142" y="1003"/>
			<point x="235" y="985"/>
		</contour>
	</outline>
</glyph>
<glyph name="sevensuperior" format="2">
	<unicode hex="2077"/>
	<advance width="796"/>
	<outline>
		<contour>
			<point x="623" y="1678" type="line"/>
			<point x="474" y="1538"/>
			<point x="280" y="1316"/>
			<point x="178" y="1178" type="curve" smooth="yes"/>
			<point x="141" y="1128"/>
			<point x="126" y="1098"/>
			<point x="126" y="1072" type="curve" smooth="yes"/>
			<point x="126" y="1032"/>
			<point x="175" y="985"/>
			<point x="235" y="985" type="curve" smooth="yes"/>
			<point x="274" y="985"/>
			<point x="298" y="1002"/>
			<point x="344" y="1074" type="curve" smooth="yes"/>
			<point x="472" y="1275"/>
			<point x="592" y="1448"/>
			<point x="738" y="1620" type="curve" smooth="yes"/>
			<point x="781" y="1671"/>
			<point x="805" y="1700"/>
			<point x="805" y="1747" type="curve" smooth="yes"/>
			<point x="805" y="1791"/>
			<point x="772" y="1827"/>
			<point x="718" y="1827" type="curve" smooth="yes"/>
			<point x="251" y="1827" type="line" smooth="yes"/>
			<point x="180" y="1827"/>
			<point x="136" y="1785"/>
			<point x="136" y="1728" type="curve" smooth="yes"/>
			<point x="136" y="1667"/>
			<point x="172" y="1644"/>
			<point x="237" y="1644" type="curve" smooth="yes"/>
			<point x="641" y="1644" type="line"/>
		</contour>
	</outline>
</glyph>
<glyph name="ninesuperior" format="2">
	<unicode hex="2079"/>
	<advance width="813"/>
	<outline>
		<contour>
			<point x="587" y="1423" type="curve"/>
			<point x="543" y="1483" type="line"/>
			<point x="498" y="1444"/>
			<point x="441" y="1422"/>
			<point x="377" y="1422" type="curve" smooth="yes"/>
			<point x="307" y="1422"/>
			<point x="264" y="1462"/>
			<point x="264" y="1517" type="curve" smooth="yes"/>
			<point x="264" y="1601"/>
			<point x="342" y="1673"/>
			<point x="434" y="1673" type="curve" smooth="yes"/>
			<point x="506" y="1673"/>
			<point x="549" y="1635"/>
			<point x="549" y="1562" type="curve" smooth="yes"/>
			<point x="549" y="1457"/>
			<point x="471" y="1327"/>
			<point x="263" y="1154" type="curve" smooth="yes"/>
			<point x="232" y="1128"/>
			<point x="192" y="1095"/>
			<point x="192" y="1059" type="curve" smooth="yes"/>
			<point x="192" y="1023"/>
			<point x="233" y="985"/>
			<point x="271" y="985" type="curve" smooth="yes"/>
			<point x="305" y="985"/>
			<point x="335" y="997"/>
			<point x="400" y="1053" type="curve" smooth="yes"/>
			<point x="617" y="1240"/>
			<point x="748" y="1415"/>
			<point x="748" y="1604" type="curve" smooth="yes"/>
			<point x="748" y="1746"/>
			<point x="647" y="1837"/>
			<point x="488" y="1837" type="curve" smooth="yes"/>
			<point x="264" y="1837"/>
			<point x="68" y="1668"/>
			<point x="68" y="1476" type="curve" smooth="yes"/>
			<point x="68" y="1358"/>
			<point x="152" y="1276"/>
			<point x="288" y="1276" type="curve" smooth="yes"/>
			<point x="391" y="1276"/>
			<point x="497" y="1324"/>
		</contour>
	</outline>
</glyph>
<glyph name="euro" format="2">
	<unicode hex="20AC"/>
	<advance width="1200"/>
	<outline>
		<contour>
			<point x="993" y="1625" type="curve" smooth="yes"/>
			<point x="613" y="1625"/>
			<point x="231" y="1135"/>
			<point x="231" y="549" type="curve" smooth="yes"/>
			<point x="231" y="206"/>
			<point x="424" y="-12"/>
			<point x="653" y="-12" type="curve" smooth="yes"/>
			<point x="803" y="-12"/>
			<point x="944" y="49"/>
			<point x="1042" y="139" type="curve" smooth="yes"/>
			<point x="1094" y="187"/>
			<point x="1109" y="222"/>
			<point x="1109" y="263" type="curve" smooth="yes"/>
			<point x="1109" y="313"/>
			<point x="1060" y="360"/>
			<point x="1017" y="360" type="curve" smooth="yes"/>
			<point x="995" y="360"/>
			<point x="973" y="346"/>
			<point x="928" y="314" type="curve" smooth="yes"/>
			<point x="842" y="253"/>
			<point x="775" y="228"/>
			<point x="697" y="228" type="curve" smooth="yes"/>
			<point x="560" y="228"/>
			<point x="473" y="323"/>
			<point x="473" y="560" type="curve" smooth="yes"/>
			<point x="473" y="1028"/>
			<point x="730" y="1396"/>
			<point x="968" y="1396" type="curve" smooth="yes"/>
			<point x="1031" y="1396"/>
			<point x="1067" y="1377"/>
			<point x="1120" y="1342" type="curve" smooth="yes"/>
			<point x="1150" y="1322"/>
			<point x="1168" y="1313"/>
			<point x="1189" y="1313" type="curve" smooth="yes"/>
			<point x="1243" y="1313"/>
			<point x="1302" y="1372"/>
			<point x="1302" y="1433" type="curve" smooth="yes"/>
			<point x="1302" y="1462"/>
			<point x="1289" y="1496"/>
			<point x="1247" y="1534" type="curve" smooth="yes"/>
			<point x="1196" y="1580"/>
			<point x="1118" y="1625"/>
		</contour>
		<contour>
			<point x="142" y="969" type="curve" smooth="yes"/>
			<point x="142" y="900"/>
			<point x="197" y="868"/>
			<point x="316" y="868" type="curve" smooth="yes"/>
			<point x="322" y="868"/>
			<point x="699" y="869"/>
			<point x="835" y="885" type="curve" smooth="yes"/>
			<point x="945" y="898"/>
			<point x="1006" y="933"/>
			<point x="1006" y="1021" type="curve" smooth="yes"/>
			<point x="1006" y="1076"/>
			<point x="976" y="1087"/>
			<point x="927" y="1087" type="curve" smooth="yes"/>
			<point x="906" y="1087"/>
			<point x="858" y="1085"/>
			<point x="837" y="1084" type="curve" smooth="yes"/>
			<point x="732" y="1079"/>
			<point x="441" y="1075"/>
			<point x="286" y="1075" type="curve" smooth="yes"/>
			<point x="190" y="1075"/>
			<point x="142" y="1039"/>
		</contour>
		<contour>
			<point x="52" y="618" type="curve" smooth="yes"/>
			<point x="52" y="549"/>
			<point x="107" y="517"/>
			<point x="225" y="517" type="curve" smooth="yes"/>
			<point x="234" y="517"/>
			<point x="612" y="518"/>
			<point x="745" y="534" type="curve" smooth="yes"/>
			<point x="854" y="547"/>
			<point x="915" y="583"/>
			<point x="915" y="670" type="curve" smooth="yes"/>
			<point x="915" y="726"/>
			<point x="884" y="736"/>
			<point x="836" y="736" type="curve" smooth="yes"/>
			<point x="814" y="736"/>
			<point x="768" y="734"/>
			<point x="747" y="733" type="curve" smooth="yes"/>
			<point x="644" y="728"/>
			<point x="349" y="724"/>
			<point x="196" y="724" type="curve" smooth="yes"/>
			<point x="100" y="724"/>
			<point x="52" y="688"/>
		</contour>
	</outline>
</glyph>
<glyph name="minus" format="2">
	<unicode hex="2212"/>
	<advance width="1200"/>
	<outline>
		<contour>
			<point x="240" y="691" type="curve" smooth="yes"/>
			<point x="464" y="691"/>
			<point x="757" y="692"/>
			<point x="939" y="701" type="curve" smooth="yes"/>
			<point x="1034" y="706"/>
			<point x="1058" y="766"/>
			<point x="1058" y="836" type="curve" smooth="yes"/>
			<point x="1058" y="885"/>
			<point x="1036" y="914"/>
			<point x="968" y="914" type="curve" smooth="yes"/>
			<point x="788" y="912"/>
			<point x="468" y="911"/>
			<point x="240" y="911" type="curve" smooth="yes"/>
			<point x="161" y="911"/>
			<point x="139" y="854"/>
			<point x="139" y="783" type="curve" smooth="yes"/>
			<point x="139" y="732"/>
			<point x="161" y="691"/>
		</contour>
	</outline>
</glyph>
<glyph name="notequal" format="2">
	<unicode hex="2260"/>
	<advance width="1200"/>
	<outline>
		<contour>
			<point x="398" y="251" type="curve" smooth="yes"/>
			<point x="439" y="251"/>
			<point x="456" y="271"/>
			<point x="466" y="294" type="curve" smooth="yes"/>
			<point x="863" y="1186" type="line" smooth="yes"/>
			<point x="882" y="1229"/>
			<point x="886" y="1246"/>
			<point x="886" y="1265" type="curve" smooth="yes"/>
			<point x="886" y="1313"/>
			<point x="807" y="1352"/>
			<point x="758" y="1352" type="curve" smooth="yes"/>
			<point x="718" y="1352"/>
			<point x="700" y="1332"/>
			<point x="677" y="1278" type="curve" smooth="yes"/>
			<point x="310" y="432" type="line" smooth="yes"/>
			<point x="284" y="372"/>
			<point x="278" y="353"/>
			<point x="278" y="333" type="curve" smooth="yes"/>
			<point x="278" y="289"/>
			<point x="339" y="251"/>
		</contour>
		<contour>
			<point x="266" y="890" type="curve" smooth="yes"/>
			<point x="490" y="890"/>
			<point x="783" y="891"/>
			<point x="965" y="900" type="curve" smooth="yes"/>
			<point x="1060" y="905"/>
			<point x="1084" y="965"/>
			<point x="1084" y="1035" type="curve" smooth="yes"/>
			<point x="1084" y="1084"/>
			<point x="1062" y="1113"/>
			<point x="994" y="1113" type="curve" smooth="yes"/>
			<point x="814" y="1111"/>
			<point x="494" y="1110"/>
			<point x="266" y="1110" type="curve" smooth="yes"/>
			<point x="187" y="1110"/>
			<point x="165" y="1053"/>
			<point x="165" y="982" type="curve" smooth="yes"/>
			<point x="165" y="931"/>
			<point x="187" y="890"/>
		</contour>
		<contour>
			<point x="167" y="491" type="curve" smooth="yes"/>
			<point x="391" y="491"/>
			<point x="684" y="492"/>
			<point x="866" y="501" type="curve" smooth="yes"/>
			<point x="961" y="506"/>
			<point x="985" y="566"/>
			<point x="985" y="636" type="curve" smooth="yes"/>
			<point x="985" y="685"/>
			<point x="963" y="714"/>
			<point x="895" y="714" type="curve" smooth="yes"/>
			<point x="715" y="712"/>
			<point x="395" y="711"/>
			<point x="167" y="711" type="curve" smooth="yes"/>
			<point x="88" y="711"/>
			<point x="66" y="654"/>
			<point x="66" y="583" type="curve" smooth="yes"/>
			<point x="66" y="532"/>
			<point x="88" y="491"/>
		</contour>
	</outline>
</glyph>
<glyph name="dotmath" format="2">
	<unicode hex="22C5"/>
	<advance width="1200"/>
	<outline>
		<contour>
			<point x="605" y="562" type="curve" smooth="yes"/>
			<point x="728" y="562"/>
			<point x="860" y="669"/>
			<point x="860" y="827" type="curve" smooth="yes"/>
			<point x="860" y="932"/>
			<point x="797" y="999"/>
			<point x="691" y="999" type="curve" smooth="yes"/>
			<point x="564" y="999"/>
			<point x="436" y="888"/>
			<point x="436" y="733" type="curve" smooth="yes"/>
			<point x="436" y="629"/>
			<point x="498" y="562"/>
		</contour>
	</outline>
</glyph>
<glyph name="whitesquare" format="2">
	<unicode hex="25A1"/>
	<advance width="1810"/>
	<outline>
		<contour>
			<point x="402" y="225" type="line"/>
			<point x="1408" y="225" type="line"/>
			<point x="1408" y="1231" type="line"/>
			<point x="402" y="1231" type="line"/>
		</contour>
		<contour>
			<point x="622" y="445" type="line"/>
			<point x="622" y="1011" type="line"/>
			<point x="1188" y="1011" type="line"/>
			<point x="1188" y="445" type="line"/>
		</contour>
	</outline>
</glyph>
<glyph name="gClef-musical" format="2">
	<unicode hex="1D11E"/>
	<advance width="1148"/>
	<outline>
		<contour>
			<point x="421" y="1080" type="curve" smooth="yes"/>
			<point x="421" y="801"/>
			<point x="615" y="308"/>
			<point x="615" y="-15" type="curve" smooth="yes"/>
			<point x="615" y="-369"/>
			<point x="512" y="-525"/>
			<point x="387" y="-525" type="curve" smooth="yes"/>
			<point x="340" y="-525"/>
			<point x="310" y="-498"/>
			<point x="310" y="-441" type="curve" smooth="yes"/>
			<point x="310" y="-412"/>
			<point x="313" y="-396"/>
			<point x="317" y="-379" type="curve" smooth="yes"/>
			<point x="321" y="-361"/>
			<point x="324" y="-352"/>
			<point x="324" y="-342" type="curve" smooth="yes"/>
			<point x="324" y="-320"/>
			<point x="293" y="-294"/>
			<point x="244" y="-294" type="curve" smooth="yes"/>
			<point x="219" y="-294"/>
			<point x="199" y="-307"/>
			<point x="182" y="-339" type="curve" smooth="yes"/>
			<point x="160" y="-379"/>
			<point x="150" y="-420"/>
			<point x="150" y="-465" type="curve" smooth="yes"/>
			<point x="150" y="-595"/>
			<point x="240" y="-685"/>
			<point x="365" y="-685" type="curve" smooth="yes"/>
			<point x="602" y="-685"/>
			<point x="815" y="-469"/>
			<point x="815" y="26" type="curve" smooth="yes"/>
			<point x="815" y="416"/>
			<point x="628" y="778"/>
			<point x="628" y="1120" type="curve" smooth="yes"/>
			<point x="628" y="1363"/>
			<point x="690" y="1466"/>
			<point x="751" y="1465" type="curve" smooth="yes"/>
			<point x="781" y="1466"/>
			<point x="802" y="1445"/>
			<point x="802" y="1395" type="curve" smooth="yes"/>
			<point x="802" y="1059"/>
			<point x="110" y="816"/>
			<point x="110" y="344" type="curve" smooth="yes"/>
			<point x="110" y="95"/>
			<point x="305" y="-95"/>
			<point x="536" y="-95" type="curve" smooth="yes"/>
			<point x="805" y="-95"/>
			<point x="1056" y="121"/>
			<point x="1056" y="389" type="curve" smooth="yes"/>
			<point x="1056" y="601"/>
			<point x="924" y="736"/>
			<point x="743" y="736" type="curve" smooth="yes"/>
			<point x="550" y="736"/>
			<point x="369" y="574"/>
			<point x="369" y="360" type="curve" smooth="yes"/>
			<point x="369" y="233"/>
			<point x="436" y="175"/>
			<point x="471" y="175" type="curve" smooth="yes"/>
			<point x="505" y="175"/>
			<point x="537" y="204"/>
			<point x="537" y="235" type="curve" smooth="yes"/>
			<point x="537" y="246"/>
			<point x="533" y="257"/>
			<point x="525" y="272" type="curve" smooth="yes"/>
			<point x="513" y="295"/>
			<point x="509" y="316"/>
			<point x="509" y="340" type="curve" smooth="yes"/>
			<point x="508" y="467"/>
			<point x="600" y="576"/>
			<point x="701" y="576" type="curve" smooth="yes"/>
			<point x="791" y="576"/>
			<point x="856" y="507"/>
			<point x="856" y="374" type="curve" smooth="yes"/>
			<point x="856" y="193"/>
			<point x="724" y="65"/>
			<point x="565" y="65" type="curve" smooth="yes"/>
			<point x="413" y="65"/>
			<point x="310" y="162"/>
			<point x="310" y="354" type="curve" smooth="yes"/>
			<point x="310" y="795"/>
			<point x="991" y="1005"/>
			<point x="991" y="1419" type="curve" smooth="yes"/>
			<point x="991" y="1546"/>
			<point x="906" y="1625"/>
			<point x="790" y="1625" type="curve" smooth="yes"/>
			<point x="580" y="1625"/>
			<point x="421" y="1417"/>
		</contour>
	</outline>
</glyph>
<glyph name="B_r_a_v_o_exclam_exclam_exclam" format="2">
	<advance width="6885"/>
	<outline>
		<component base="B" xOffset="150"/>
		<component base="r" xOffset="1493" yOffset="261"/>
		<component base="a" xOffset="2192" yOffset="-9"/>
		<component base="v" xOffset="3212" yOffset="394"/>
		<component base="o" xOffset="4060"/>
		<contour>
			<point x="5229" y="111" type="curve" smooth="yes"/>
			<point x="5275" y="111"/>
			<point x="5296" y="132"/>
			<point x="5324" y="232" type="curve" smooth="yes"/>
			<point x="5441" y="648"/>
			<point x="5596" y="1162"/>
			<point x="5716" y="1501" type="curve" smooth="yes"/>
			<point x="5731" y="1545"/>
			<point x="5734" y="1557"/>
			<point x="5734" y="1577" type="curve" smooth="yes"/>
			<point x="5734" y="1626"/>
			<point x="5677" y="1661"/>
			<point x="5601" y="1662" type="curve" smooth="yes"/>
			<point x="5546" y="1662"/>
			<point x="5524" y="1642"/>
			<point x="5501" y="1573" type="curve" smooth="yes"/>
			<point x="5387" y="1239"/>
			<point x="5237" y="725"/>
			<point x="5133" y="282" type="curve" smooth="yes"/>
			<point x="5122" y="234"/>
			<point x="5117" y="213"/>
			<point x="5117" y="191" type="curve" smooth="yes"/>
			<point x="5117" y="151"/>
			<point x="5156" y="111"/>
		</contour>
		<contour>
			<point x="5093" y="-406" type="curve" smooth="yes"/>
			<point x="5177" y="-406"/>
			<point x="5258" y="-323"/>
			<point x="5258" y="-223" type="curve" smooth="yes"/>
			<point x="5258" y="-158"/>
			<point x="5209" y="-108"/>
			<point x="5140" y="-108" type="curve" smooth="yes"/>
			<point x="5054" y="-108"/>
			<point x="4975" y="-184"/>
			<point x="4975" y="-284" type="curve" smooth="yes"/>
			<point x="4975" y="-360"/>
			<point x="5028" y="-406"/>
		</contour>
		<contour>
			<point x="5602" y="-162" type="curve" smooth="yes"/>
			<point x="5648" y="-162"/>
			<point x="5669" y="-141"/>
			<point x="5697" y="-41" type="curve" smooth="yes"/>
			<point x="5814" y="375"/>
			<point x="5969" y="889"/>
			<point x="6089" y="1228" type="curve" smooth="yes"/>
			<point x="6104" y="1272"/>
			<point x="6107" y="1284"/>
			<point x="6107" y="1304" type="curve" smooth="yes"/>
			<point x="6107" y="1353"/>
			<point x="6050" y="1388"/>
			<point x="5974" y="1389" type="curve" smooth="yes"/>
			<point x="5919" y="1389"/>
			<point x="5897" y="1369"/>
			<point x="5874" y="1300" type="curve" smooth="yes"/>
			<point x="5760" y="966"/>
			<point x="5610" y="452"/>
			<point x="5506" y="9" type="curve" smooth="yes"/>
			<point x="5495" y="-39"/>
			<point x="5490" y="-60"/>
			<point x="5490" y="-82" type="curve" smooth="yes"/>
			<point x="5490" y="-122"/>
			<point x="5529" y="-162"/>
		</contour>
		<contour>
			<point x="5466" y="-679" type="curve" smooth="yes"/>
			<point x="5550" y="-679"/>
			<point x="5631" y="-596"/>
			<point x="5631" y="-496" type="curve" smooth="yes"/>
			<point x="5631" y="-431"/>
			<point x="5582" y="-381"/>
			<point x="5513" y="-381" type="curve" smooth="yes"/>
			<point x="5427" y="-381"/>
			<point x="5348" y="-457"/>
			<point x="5348" y="-557" type="curve" smooth="yes"/>
			<point x="5348" y="-633"/>
			<point x="5401" y="-679"/>
		</contour>
		<contour>
			<point x="6230" y="362" type="curve" smooth="yes"/>
			<point x="6276" y="362"/>
			<point x="6297" y="383"/>
			<point x="6325" y="483" type="curve" smooth="yes"/>
			<point x="6442" y="899"/>
			<point x="6597" y="1413"/>
			<point x="6717" y="1752" type="curve" smooth="yes"/>
			<point x="6732" y="1796"/>
			<point x="6735" y="1808"/>
			<point x="6735" y="1828" type="curve" smooth="yes"/>
			<point x="6735" y="1877"/>
			<point x="6678" y="1912"/>
			<point x="6602" y="1913" type="curve" smooth="yes"/>
			<point x="6547" y="1913"/>
			<point x="6525" y="1893"/>
			<point x="6502" y="1824" type="curve" smooth="yes"/>
			<point x="6388" y="1490"/>
			<point x="6238" y="976"/>
			<point x="6134" y="533" type="curve" smooth="yes"/>
			<point x="6123" y="485"/>
			<point x="6118" y="464"/>
			<point x="6118" y="442" type="curve" smooth="yes"/>
			<point x="6118" y="402"/>
			<point x="6157" y="362"/>
		</contour>
		<contour>
			<point x="6094" y="-155" type="curve" smooth="yes"/>
			<point x="6178" y="-155"/>
			<point x="6259" y="-72"/>
			<point x="6259" y="28" type="curve" smooth="yes"/>
			<point x="6259" y="93"/>
			<point x="6210" y="143"/>
			<point x="6141" y="143" type="curve" smooth="yes"/>
			<point x="6055" y="143"/>
			<point x="5976" y="67"/>
			<point x="5976" y="-33" type="curve" smooth="yes"/>
			<point x="5976" y="-109"/>
			<point x="6029" y="-155"/>
		</contour>
		<component base="finial.r" xOffset="2198" yOffset="261"/>
		<component base="finial" xOffset="3038" yOffset="-9"/>
	</outline>
</glyph>
<glyph name="G.isol" format="2">
	<advance width="1496"/>
	<outline>
		<contour>
			<point x="977" y="270" type="curve"/>
			<point x="964" y="327" type="line"/>
			<point x="893" y="48" type="line" smooth="yes"/>
			<point x="884" y="14"/>
			<point x="879" y="-5"/>
			<point x="879" y="-35" type="curve" smooth="yes"/>
			<point x="879" y="-71"/>
			<point x="948" y="-114"/>
			<point x="1034" y="-114" type="curve" smooth="yes"/>
			<point x="1083" y="-114"/>
			<point x="1104" y="-93"/>
			<point x="1119" y="-18" type="curve" smooth="yes"/>
			<point x="1223" y="511" type="line"/>
			<point x="1266" y="618"/>
			<point x="1288" y="690"/>
			<point x="1298" y="747" type="curve"/>
			<point x="1062" y="747" type="line"/>
			<point x="957" y="358"/>
			<point x="791" y="188"/>
			<point x="622" y="188" type="curve" smooth="yes"/>
			<point x="470" y="188"/>
			<point x="370" y="299"/>
			<point x="370" y="612" type="curve" smooth="yes"/>
			<point x="370" y="1076"/>
			<point x="677" y="1414"/>
			<point x="914" y="1414" type="curve" smooth="yes"/>
			<point x="976" y="1414"/>
			<point x="1053" y="1396"/>
			<point x="1124" y="1351" type="curve" smooth="yes"/>
			<point x="1163" y="1326"/>
			<point x="1184" y="1314"/>
			<point x="1208" y="1314" type="curve" smooth="yes"/>
			<point x="1263" y="1315"/>
			<point x="1310" y="1382"/>
			<point x="1310" y="1423" type="curve" smooth="yes"/>
			<point x="1310" y="1455"/>
			<point x="1298" y="1481"/>
			<point x="1237" y="1525" type="curve" smooth="yes"/>
			<point x="1168" y="1575"/>
			<point x="1054" y="1615"/>
			<point x="932" y="1615" type="curve" smooth="yes"/>
			<point x="472" y="1615"/>
			<point x="120" y="1094"/>
			<point x="120" y="588" type="curve" smooth="yes"/>
			<point x="120" y="210"/>
			<point x="314" y="-12"/>
			<point x="555" y="-12" type="curve" smooth="yes"/>
			<point x="742" y="-12"/>
			<point x="869" y="98"/>
		</contour>
		<contour>
			<point x="964" y="636" type="curve" smooth="yes"/>
			<point x="1117" y="636"/>
			<point x="1222" y="642"/>
			<point x="1274" y="648" type="curve" smooth="yes"/>
			<point x="1358" y="658"/>
			<point x="1376" y="717"/>
			<point x="1376" y="768" type="curve" smooth="yes"/>
			<point x="1376" y="805"/>
			<point x="1366" y="844"/>
			<point x="1330" y="844" type="curve" smooth="yes"/>
			<point x="1310" y="844"/>
			<point x="1273" y="843"/>
			<point x="1238" y="840" type="curve" smooth="yes"/>
			<point x="1200" y="837"/>
			<point x="1151" y="834"/>
			<point x="1027" y="834" type="curve" smooth="yes"/>
			<point x="964" y="834"/>
			<point x="920" y="836"/>
			<point x="879" y="839" type="curve" smooth="yes"/>
			<point x="843" y="842"/>
			<point x="814" y="844"/>
			<point x="786" y="844" type="curve" smooth="yes"/>
			<point x="728" y="844"/>
			<point x="712" y="795"/>
			<point x="712" y="748" type="curve" smooth="yes"/>
			<point x="712" y="699"/>
			<point x="739" y="656"/>
			<point x="791" y="646" type="curve" smooth="yes"/>
			<point x="830" y="639"/>
			<point x="883" y="636"/>
		</contour>
	</outline>
	<anchor name="bottom" x="467" y="-5"/>
	<anchor name="top" x="950" y="1600"/>
</glyph>
<glyph name="IJ.isol" format="2">
	<advance width="1312"/>
	<outline>
		<contour>
			<point x="64" y="420" type="curve" smooth="yes"/>
			<point x="64" y="237"/>
			<point x="161" y="118"/>
			<point x="319" y="118" type="curve" smooth="yes"/>
			<point x="528" y="118"/>
			<point x="753" y="338"/>
			<point x="953" y="832" type="curve"/>
			<point x="943" y="862" type="line"/>
			<point x="830" y="527"/>
			<point x="782" y="301"/>
			<point x="719" y="-21" type="curve" smooth="yes"/>
			<point x="654" y="-354"/>
			<point x="538" y="-490"/>
			<point x="404" y="-490" type="curve" smooth="yes"/>
			<point x="338" y="-490"/>
			<point x="278" y="-468"/>
			<point x="227" y="-433" type="curve" smooth="yes"/>
			<point x="210" y="-421"/>
			<point x="191" y="-410"/>
			<point x="178" y="-410" type="curve" smooth="yes"/>
			<point x="133" y="-409"/>
			<point x="77" y="-471"/>
			<point x="77" y="-514" type="curve" smooth="yes"/>
			<point x="77" y="-591"/>
			<point x="219" y="-690"/>
			<point x="389" y="-690" type="curve" smooth="yes"/>
			<point x="649" y="-690"/>
			<point x="863" y="-518"/>
			<point x="942" y="-33" type="curve" smooth="yes"/>
			<point x="1010" y="388"/>
			<point x="1052" y="608"/>
			<point x="1132" y="892" type="curve" smooth="yes"/>
			<point x="1181" y="1069"/>
			<point x="1219" y="1191"/>
			<point x="1282" y="1402" type="curve" smooth="yes"/>
			<point x="1301" y="1465"/>
			<point x="1312" y="1510"/>
			<point x="1312" y="1528" type="curve" smooth="yes"/>
			<point x="1312" y="1560"/>
			<point x="1259" y="1600"/>
			<point x="1174" y="1600" type="curve" smooth="yes"/>
			<point x="1115" y="1600"/>
			<point x="1091" y="1591"/>
			<point x="1074" y="1531" type="curve" smooth="yes"/>
			<point x="998" y="1261"/>
			<point x="939" y="1083"/>
			<point x="870" y="918" type="curve" smooth="yes"/>
			<point x="699" y="513"/>
			<point x="536" y="318"/>
			<point x="389" y="318" type="curve" smooth="yes"/>
			<point x="327" y="318"/>
			<point x="296" y="354"/>
			<point x="296" y="427" type="curve" smooth="yes"/>
			<point x="296" y="506"/>
			<point x="315" y="585"/>
			<point x="389" y="781" type="curve" smooth="yes"/>
			<point x="474" y="1005"/>
			<point x="540" y="1199"/>
			<point x="592" y="1383" type="curve" smooth="yes"/>
			<point x="618" y="1473"/>
			<point x="622" y="1499"/>
			<point x="622" y="1528" type="curve" smooth="yes"/>
			<point x="622" y="1562"/>
			<point x="569" y="1600"/>
			<point x="484" y="1600" type="curve" smooth="yes"/>
			<point x="423" y="1600"/>
			<point x="401" y="1589"/>
			<point x="377" y="1494" type="curve" smooth="yes"/>
			<point x="322" y="1281"/>
			<point x="246" y="1040"/>
			<point x="179" y="857" type="curve" smooth="yes"/>
			<point x="100" y="636"/>
			<point x="64" y="516"/>
		</contour>
	</outline>
</glyph>
<glyph name="K.swsh" format="2">
	<advance width="1406"/>
	<outline>
		<contour>
			<point x="498" y="976" type="curve"/>
			<point x="431" y="703" type="line"/>
			<point x="476" y="611"/>
			<point x="616" y="366"/>
			<point x="788" y="81" type="curve" smooth="yes"/>
			<point x="1047" y="-347"/>
			<point x="1244" y="-469"/>
			<point x="1554" y="-469" type="curve" smooth="yes"/>
			<point x="1676" y="-469"/>
			<point x="1795" y="-427"/>
			<point x="1873" y="-365" type="curve" smooth="yes"/>
			<point x="1928" y="-321"/>
			<point x="1936" y="-295"/>
			<point x="1936" y="-268" type="curve" smooth="yes"/>
			<point x="1936" y="-225"/>
			<point x="1905" y="-183"/>
			<point x="1868" y="-183" type="curve" smooth="yes"/>
			<point x="1852" y="-183"/>
			<point x="1837" y="-189"/>
			<point x="1804" y="-205" type="curve" smooth="yes"/>
			<point x="1747" y="-233"/>
			<point x="1667" y="-258"/>
			<point x="1582" y="-258" type="curve" smooth="yes"/>
			<point x="1343" y="-258"/>
			<point x="1149" y="-94"/>
			<point x="939" y="248" type="curve" smooth="yes"/>
			<point x="792" y="488"/>
			<point x="717" y="617"/>
			<point x="577" y="864" type="curve"/>
			<point x="572" y="827" type="line"/>
			<point x="822" y="976"/>
			<point x="1139" y="1188"/>
			<point x="1354" y="1393" type="curve" smooth="yes"/>
			<point x="1388" y="1426"/>
			<point x="1397" y="1451"/>
			<point x="1397" y="1483" type="curve" smooth="yes"/>
			<point x="1397" y="1540"/>
			<point x="1333" y="1600"/>
			<point x="1270" y="1600" type="curve" smooth="yes"/>
			<point x="1240" y="1600"/>
			<point x="1227" y="1596"/>
			<point x="1170" y="1540" type="curve" smooth="yes"/>
			<point x="978" y="1352"/>
			<point x="767" y="1171"/>
		</contour>
		<contour>
			<point x="327" y="117" type="curve" smooth="yes"/>
			<point x="437" y="553"/>
			<point x="564" y="1043"/>
			<point x="687" y="1448" type="curve" smooth="yes"/>
			<point x="702" y="1497"/>
			<point x="705" y="1514"/>
			<point x="705" y="1528" type="curve" smooth="yes"/>
			<point x="705" y="1560"/>
			<point x="652" y="1600"/>
			<point x="567" y="1600" type="curve" smooth="yes"/>
			<point x="510" y="1600"/>
			<point x="486" y="1590"/>
			<point x="460" y="1504" type="curve" smooth="yes"/>
			<point x="343" y="1117"/>
			<point x="214" y="636"/>
			<point x="111" y="228" type="curve" smooth="yes"/>
			<point x="86" y="129"/>
			<point x="80" y="101"/>
			<point x="80" y="81" type="curve" smooth="yes"/>
			<point x="80" y="27"/>
			<point x="133" y="-12"/>
			<point x="201" y="-12" type="curve" smooth="yes"/>
			<point x="269" y="-12"/>
			<point x="305" y="28"/>
		</contour>
	</outline>
	<anchor name="bottom" x="540" y="0"/>
	<anchor name="ogonek" x="126" y="0"/>
	<anchor name="top" x="930" y="1600"/>
	<anchor name="topleft" x="532" y="1600"/>
</glyph>
<glyph name="L.isol" format="2">
	<advance width="1124"/>
	<outline>
		<contour>
			<point x="424" y="1527" type="curve" smooth="yes"/>
			<point x="118" y="466" type="line" smooth="yes"/>
			<point x="92" y="370"/>
			<point x="75" y="300"/>
			<point x="75" y="241" type="curve" smooth="yes"/>
			<point x="75" y="112"/>
			<point x="172" y="0"/>
			<point x="311" y="0" type="curve" smooth="yes"/>
			<point x="859" y="0" type="line" smooth="yes"/>
			<point x="937" y="0"/>
			<point x="984" y="53"/>
			<point x="984" y="130" type="curve" smooth="yes"/>
			<point x="984" y="207"/>
			<point x="945" y="230"/>
			<point x="886" y="230" type="curve" smooth="yes"/>
			<point x="365" y="230" type="line" smooth="yes"/>
			<point x="326" y="230"/>
			<point x="310" y="241"/>
			<point x="310" y="275" type="curve" smooth="yes"/>
			<point x="310" y="296"/>
			<point x="320" y="338"/>
			<point x="337" y="397" type="curve" smooth="yes"/>
			<point x="642" y="1445" type="line" smooth="yes"/>
			<point x="649" y="1469"/>
			<point x="655" y="1498"/>
			<point x="655" y="1515" type="curve" smooth="yes"/>
			<point x="655" y="1578"/>
			<point x="609" y="1610"/>
			<point x="522" y="1610" type="curve" smooth="yes"/>
			<point x="467" y="1610"/>
			<point x="441" y="1588"/>
		</contour>
	</outline>
	<anchor name="bottom" x="476" y="0"/>
	<anchor name="center" x="370" y="860"/>
	<anchor name="ogonek" x="787" y="0"/>
	<anchor name="top" x="560" y="1600"/>
	<anchor name="topright" x="744" y="1600"/>
</glyph>
<glyph name="R.isol" format="2">
	<advance width="1298"/>
	<outline>
		<contour>
			<point x="471" y="841" type="curve"/>
			<point x="660" y="1549" type="line"/>
			<point x="422" y="1544" type="line"/>
			<point x="55" y="195" type="line" smooth="yes"/>
			<point x="31" y="107"/>
			<point x="30" y="94"/>
			<point x="30" y="85" type="curve" smooth="yes"/>
			<point x="30" y="18"/>
			<point x="92" y="-12"/>
			<point x="163" y="-12" type="curve" smooth="yes"/>
			<point x="230" y="-12"/>
			<point x="251" y="14"/>
			<point x="278" y="117" type="curve" smooth="yes"/>
			<point x="433" y="702" type="line"/>
			<point x="503" y="680"/>
			<point x="638" y="664"/>
			<point x="736" y="664" type="curve" smooth="yes"/>
			<point x="1028" y="664"/>
			<point x="1288" y="872"/>
			<point x="1288" y="1166" type="curve" smooth="yes"/>
			<point x="1288" y="1429"/>
			<point x="1047" y="1625"/>
			<point x="717" y="1625" type="curve" smooth="yes"/>
			<point x="422" y="1625"/>
			<point x="188" y="1549"/>
			<point x="188" y="1468" type="curve" smooth="yes"/>
			<point x="188" y="1433"/>
			<point x="224" y="1382"/>
			<point x="259" y="1379" type="curve" smooth="yes"/>
			<point x="280" y="1377"/>
			<point x="346" y="1391"/>
			<point x="426" y="1404" type="curve" smooth="yes"/>
			<point x="506" y="1417"/>
			<point x="576" y="1422"/>
			<point x="699" y="1422" type="curve" smooth="yes"/>
			<point x="905" y="1422"/>
			<point x="1058" y="1310"/>
			<point x="1058" y="1141" type="curve" smooth="yes"/>
			<point x="1058" y="954"/>
			<point x="906" y="829"/>
			<point x="638" y="829" type="curve" smooth="yes"/>
			<point x="588" y="829"/>
			<point x="520" y="834"/>
		</contour>
		<contour>
			<point x="594" y="766" type="curve"/>
			<point x="405" y="708" type="line"/>
			<point x="458" y="610"/>
			<point x="677" y="238"/>
			<point x="807" y="67" type="curve" smooth="yes"/>
			<point x="875" y="-22"/>
			<point x="908" y="-60"/>
			<point x="960" y="-60" type="curve" smooth="yes"/>
			<point x="1033" y="-61"/>
			<point x="1090" y="12"/>
			<point x="1090" y="70" type="curve" smooth="yes"/>
			<point x="1090" y="100"/>
			<point x="1067" y="138"/>
			<point x="1008" y="205" type="curve" smooth="yes"/>
			<point x="905" y="321"/>
			<point x="727" y="566"/>
		</contour>
	</outline>
	<anchor name="bottom" x="550" y="0"/>
	<anchor name="top" x="849" y="1600"/>
</glyph>
<glyph name="R.swsh" format="2">
	<advance width="1355"/>
	<outline>
		<contour>
			<point x="163" y="-12" type="curve" smooth="yes"/>
			<point x="230" y="-12"/>
			<point x="251" y="14"/>
			<point x="278" y="117" type="curve" smooth="yes"/>
			<point x="431" y="690" type="line"/>
			<point x="514" y="510"/>
			<point x="607" y="323"/>
			<point x="747" y="91" type="curve" smooth="yes"/>
			<point x="1009" y="-343"/>
			<point x="1203" y="-468"/>
			<point x="1512" y="-468" type="curve" smooth="yes"/>
			<point x="1635" y="-468"/>
			<point x="1756" y="-428"/>
			<point x="1832" y="-365" type="curve" smooth="yes"/>
			<point x="1887" y="-321"/>
			<point x="1895" y="-296"/>
			<point x="1895" y="-268" type="curve" smooth="yes"/>
			<point x="1895" y="-225"/>
			<point x="1864" y="-183"/>
			<point x="1827" y="-183" type="curve" smooth="yes"/>
			<point x="1811" y="-183"/>
			<point x="1796" y="-189"/>
			<point x="1763" y="-205" type="curve" smooth="yes"/>
			<point x="1706" y="-233"/>
			<point x="1626" y="-258"/>
			<point x="1541" y="-258" type="curve" smooth="yes"/>
			<point x="1302" y="-258"/>
			<point x="1108" y="-94"/>
			<point x="898" y="248" type="curve" smooth="yes"/>
			<point x="807" y="396"/>
			<point x="719" y="554"/>
			<point x="659" y="667" type="curve"/>
			<point x="687" y="665"/>
			<point x="712" y="664"/>
			<point x="736" y="664" type="curve" smooth="yes"/>
			<point x="1028" y="664"/>
			<point x="1288" y="872"/>
			<point x="1288" y="1166" type="curve" smooth="yes"/>
			<point x="1288" y="1429"/>
			<point x="1047" y="1625"/>
			<point x="717" y="1625" type="curve" smooth="yes"/>
			<point x="422" y="1625"/>
			<point x="188" y="1549"/>
			<point x="188" y="1468" type="curve" smooth="yes"/>
			<point x="188" y="1433"/>
			<point x="227" y="1379"/>
			<point x="259" y="1379" type="curve" smooth="yes"/>
			<point x="282" y="1379"/>
			<point x="324" y="1387"/>
			<point x="382" y="1397" type="curve"/>
			<point x="55" y="195" type="line" smooth="yes"/>
			<point x="31" y="107"/>
			<point x="30" y="94"/>
			<point x="30" y="85" type="curve" smooth="yes"/>
			<point x="30" y="18"/>
			<point x="92" y="-12"/>
		</contour>
		<contour>
			<point x="471" y="841" type="curve"/>
			<point x="626" y="1421" type="line"/>
			<point x="652" y="1422"/>
			<point x="676" y="1422"/>
			<point x="699" y="1422" type="curve" smooth="yes"/>
			<point x="899" y="1422"/>
			<point x="1058" y="1312"/>
			<point x="1058" y="1141" type="curve" smooth="yes"/>
			<point x="1058" y="954"/>
			<point x="906" y="829"/>
			<point x="638" y="829" type="curve" smooth="yes"/>
			<point x="592" y="829"/>
			<point x="528" y="834"/>
		</contour>
	</outline>
	<anchor name="bottom" x="550" y="0"/>
	<anchor name="top" x="849" y="1600"/>
</glyph>
<glyph name="_part-o-slash" format="2">
	<advance width="954"/>
	<outline>
		<contour>
			<point x="127" y="-185" type="curve" smooth="yes"/>
			<point x="149" y="-185"/>
			<point x="160" y="-176"/>
			<point x="214" y="-86" type="curve" smooth="yes"/>
			<point x="407" y="230"/>
			<point x="715" y="703"/>
			<point x="857" y="912" type="curve" smooth="yes"/>
			<point x="898" y="972"/>
			<point x="904" y="984"/>
			<point x="904" y="997" type="curve" smooth="yes"/>
			<point x="904" y="1022"/>
			<point x="874" y="1054"/>
			<point x="834" y="1054" type="curve" smooth="yes"/>
			<point x="813" y="1054"/>
			<point x="799" y="1045"/>
			<point x="759" y="987" type="curve" smooth="yes"/>
			<point x="615" y="780"/>
			<point x="302" y="312"/>
			<point x="109" y="-2" type="curve" smooth="yes"/>
			<point x="59" y="-84"/>
			<point x="50" y="-104"/>
			<point x="50" y="-119" type="curve" smooth="yes"/>
			<point x="49" y="-154"/>
			<point x="90" y="-185"/>
		</contour>
	</outline>
	<anchor name="_center" x="486" y="472"/>
</glyph>
<glyph name="_part.Qtail" format="2">
	<advance width="645"/>
	<outline>
		<contour>
			<point x="574" y="-12" type="curve" smooth="yes"/>
			<point x="658" y="-12"/>
			<point x="683" y="61"/>
			<point x="683" y="112" type="curve" smooth="yes"/>
			<point x="683" y="159"/>
			<point x="659" y="188"/>
			<point x="631" y="188" type="curve" smooth="yes"/>
			<point x="501" y="188"/>
			<point x="407" y="258"/>
			<point x="260" y="586" type="curve" smooth="yes"/>
			<point x="219" y="677"/>
			<point x="199" y="701"/>
			<point x="166" y="701" type="curve" smooth="yes"/>
			<point x="105" y="701"/>
			<point x="42" y="655"/>
			<point x="42" y="608" type="curve" smooth="yes"/>
			<point x="42" y="582"/>
			<point x="53" y="547"/>
			<point x="96" y="451" type="curve" smooth="yes"/>
			<point x="252" y="104"/>
			<point x="402" y="-12"/>
		</contour>
	</outline>
	<anchor name="_Qtail" x="105" y="0"/>
</glyph>
<glyph name="_part.equal" format="2">
	<advance width="1200"/>
	<outline>
		<contour>
			<point x="152" y="0" type="curve" smooth="yes"/>
			<point x="322" y="0"/>
			<point x="571" y="2"/>
			<point x="731" y="10" type="curve" smooth="yes"/>
			<point x="826" y="15"/>
			<point x="850" y="70"/>
			<point x="850" y="135" type="curve" smooth="yes"/>
			<point x="850" y="184"/>
			<point x="828" y="213"/>
			<point x="760" y="213" type="curve" smooth="yes"/>
			<point x="600" y="211"/>
			<point x="326" y="210"/>
			<point x="152" y="210" type="curve" smooth="yes"/>
			<point x="73" y="210"/>
			<point x="51" y="153"/>
			<point x="51" y="92" type="curve" smooth="yes"/>
			<point x="51" y="41"/>
			<point x="73" y="0"/>
		</contour>
	</outline>
</glyph>
<glyph name="acutecomb.case" format="2">
	<outline>
		<contour>
			<point x="125" y="1020" type="curve" smooth="yes"/>
			<point x="168" y="1020"/>
			<point x="280" y="1057"/>
			<point x="446" y="1162" type="curve" smooth="yes"/>
			<point x="567" y="1239"/>
			<point x="590" y="1279"/>
			<point x="590" y="1327" type="curve" smooth="yes"/>
			<point x="590" y="1399"/>
			<point x="526" y="1453"/>
			<point x="475" y="1453" type="curve" smooth="yes"/>
			<point x="437" y="1453"/>
			<point x="415" y="1438"/>
			<point x="353" y="1383" type="curve" smooth="yes"/>
			<point x="249" y="1292"/>
			<point x="153" y="1225"/>
			<point x="91" y="1178" type="curve" smooth="yes"/>
			<point x="67" y="1160"/>
			<point x="50" y="1141"/>
			<point x="50" y="1112" type="curve" smooth="yes"/>
			<point x="50" y="1073"/>
			<point x="84" y="1020"/>
		</contour>
	</outline>
	<anchor name="_top" x="165" y="910"/>
	<anchor name="top" x="367" y="1453"/>
</glyph>
<glyph name="adieresis.salt" format="2">
	<advance width="1326"/>
	<outline>
		<contour>
			<point x="9" y="306" type="curve" smooth="yes"/>
			<point x="9" y="91"/>
			<point x="114" y="-12"/>
			<point x="219" y="-12" type="curve" smooth="yes"/>
			<point x="341" y="-12"/>
			<point x="477" y="112"/>
			<point x="603" y="345" type="curve"/>
			<point x="596" y="349" type="line"/>
			<point x="581" y="297" type="line" smooth="yes"/>
			<point x="571" y="259"/>
			<point x="561" y="221"/>
			<point x="561" y="188" type="curve" smooth="yes"/>
			<point x="561" y="67"/>
			<point x="651" y="-12"/>
			<point x="791" y="-12" type="curve" smooth="yes"/>
			<point x="902" y="-12"/>
			<point x="1002" y="20"/>
			<point x="1096" y="95" type="curve" smooth="yes"/>
			<point x="1155" y="142"/>
			<point x="1166" y="174"/>
			<point x="1166" y="199" type="curve" smooth="yes"/>
			<point x="1166" y="241"/>
			<point x="1118" y="290"/>
			<point x="1076" y="290" type="curve" smooth="yes"/>
			<point x="1064" y="290"/>
			<point x="1051" y="284"/>
			<point x="1031" y="269" type="curve" smooth="yes"/>
			<point x="956" y="213"/>
			<point x="887" y="188"/>
			<point x="841" y="188" type="curve" smooth="yes"/>
			<point x="815" y="188"/>
			<point x="801" y="196"/>
			<point x="801" y="219" type="curve" smooth="yes"/>
			<point x="801" y="244"/>
			<point x="807" y="268"/>
			<point x="824" y="335" type="curve" smooth="yes"/>
			<point x="958" y="855" type="line" smooth="yes"/>
			<point x="970" y="900"/>
			<point x="973" y="924"/>
			<point x="973" y="936" type="curve" smooth="yes"/>
			<point x="973" y="986"/>
			<point x="911" y="1020"/>
			<point x="831" y="1020" type="curve" smooth="yes"/>
			<point x="776" y="1020"/>
			<point x="751" y="1009"/>
			<point x="734" y="952" type="curve" smooth="yes"/>
			<point x="731" y="942" type="line"/>
			<point x="627" y="999"/>
			<point x="562" y="1020"/>
			<point x="495" y="1020" type="curve" smooth="yes"/>
			<point x="237" y="1020"/>
			<point x="9" y="687"/>
		</contour>
		<contour>
			<point x="254" y="346" type="curve" smooth="yes"/>
			<point x="254" y="591"/>
			<point x="379" y="820"/>
			<point x="502" y="820" type="curve" smooth="yes"/>
			<point x="544" y="820"/>
			<point x="595" y="804"/>
			<point x="683" y="764" type="curve"/>
			<point x="675" y="732" type="line" smooth="yes"/>
			<point x="607" y="478"/>
			<point x="416" y="188"/>
			<point x="323" y="188" type="curve" smooth="yes"/>
			<point x="283" y="188"/>
			<point x="254" y="229"/>
		</contour>
		<contour>
			<point x="489" y="1157" type="curve" smooth="yes"/>
			<point x="566" y="1157"/>
			<point x="638" y="1221"/>
			<point x="638" y="1310" type="curve" smooth="yes"/>
			<point x="638" y="1378"/>
			<point x="597" y="1422"/>
			<point x="529" y="1422" type="curve" smooth="yes"/>
			<point x="451" y="1422"/>
			<point x="382" y="1361"/>
			<point x="382" y="1272" type="curve" smooth="yes"/>
			<point x="382" y="1207"/>
			<point x="420" y="1157"/>
		</contour>
		<contour>
			<point x="852" y="1157" type="curve" smooth="yes"/>
			<point x="931" y="1157"/>
			<point x="1003" y="1222"/>
			<point x="1003" y="1310" type="curve" smooth="yes"/>
			<point x="1003" y="1378"/>
			<point x="961" y="1422"/>
			<point x="893" y="1422" type="curve" smooth="yes"/>
			<point x="815" y="1422"/>
			<point x="747" y="1362"/>
			<point x="747" y="1272" type="curve" smooth="yes"/>
			<point x="747" y="1207"/>
			<point x="783" y="1157"/>
		</contour>
	</outline>
	<anchor name="bottom" x="329" y="0"/>
	<anchor name="top" x="707" y="1422"/>
</glyph>
<glyph name="aogonek.medi" format="2">
	<advance width="1280"/>
	<outline>
		<contour>
			<point x="9" y="306" type="curve" smooth="yes"/>
			<point x="9" y="91"/>
			<point x="114" y="-12"/>
			<point x="219" y="-12" type="curve" smooth="yes"/>
			<point x="347" y="-12"/>
			<point x="491" y="124"/>
			<point x="621" y="380" type="curve"/>
			<point x="607" y="389" type="line"/>
			<point x="581" y="297" type="line" smooth="yes"/>
			<point x="570" y="259"/>
			<point x="561" y="228"/>
			<point x="561" y="188" type="curve" smooth="yes"/>
			<point x="561" y="67"/>
			<point x="651" y="-12"/>
			<point x="761" y="-12" type="curve" smooth="yes"/>
			<point x="802" y="-12"/>
			<point x="863" y="10"/>
			<point x="871" y="16" type="curve"/>
			<point x="860" y="37" type="line"/>
			<point x="630" y="-95"/>
			<point x="563" y="-189"/>
			<point x="563" y="-300" type="curve" smooth="yes"/>
			<point x="563" y="-385"/>
			<point x="640" y="-444"/>
			<point x="738" y="-444" type="curve" smooth="yes"/>
			<point x="823" y="-444"/>
			<point x="899" y="-407"/>
			<point x="954" y="-341" type="curve" smooth="yes"/>
			<point x="983" y="-306"/>
			<point x="988" y="-285"/>
			<point x="988" y="-268" type="curve" smooth="yes"/>
			<point x="988" y="-230"/>
			<point x="959" y="-211"/>
			<point x="932" y="-211" type="curve" smooth="yes"/>
			<point x="921" y="-211"/>
			<point x="913" y="-214"/>
			<point x="895" y="-224" type="curve" smooth="yes"/>
			<point x="858" y="-245"/>
			<point x="824" y="-259"/>
			<point x="801" y="-259" type="curve" smooth="yes"/>
			<point x="777" y="-259"/>
			<point x="763" y="-244"/>
			<point x="763" y="-222" type="curve" smooth="yes"/>
			<point x="763" y="-175"/>
			<point x="802" y="-105"/>
			<point x="961" y="4" type="curve" smooth="yes"/>
			<point x="1046" y="62" type="line" smooth="yes"/>
			<point x="1147" y="132"/>
			<point x="1166" y="165"/>
			<point x="1166" y="199" type="curve" smooth="yes"/>
			<point x="1166" y="241"/>
			<point x="1118" y="290"/>
			<point x="1076" y="290" type="curve" smooth="yes"/>
			<point x="1064" y="290"/>
			<point x="1051" y="284"/>
			<point x="1031" y="269" type="curve" smooth="yes"/>
			<point x="956" y="213"/>
			<point x="887" y="188"/>
			<point x="841" y="188" type="curve" smooth="yes"/>
			<point x="815" y="188"/>
			<point x="801" y="196"/>
			<point x="801" y="219" type="curve" smooth="yes"/>
			<point x="801" y="244"/>
			<point x="807" y="268"/>
			<point x="824" y="335" type="curve" smooth="yes"/>
			<point x="958" y="855" type="line" smooth="yes"/>
			<point x="970" y="900"/>
			<point x="973" y="924"/>
			<point x="973" y="936" type="curve" smooth="yes"/>
			<point x="973" y="986"/>
			<point x="911" y="1020"/>
			<point x="831" y="1020" type="curve" smooth="yes"/>
			<point x="770" y="1020"/>
			<point x="748" y="1005"/>
			<point x="728" y="931" type="curve" smooth="yes"/>
			<point x="675" y="732" type="line" smooth="yes"/>
			<point x="607" y="478"/>
			<point x="416" y="188"/>
			<point x="323" y="188" type="curve" smooth="yes"/>
			<point x="283" y="188"/>
			<point x="254" y="229"/>
			<point x="254" y="346" type="curve" smooth="yes"/>
			<point x="254" y="591"/>
			<point x="379" y="820"/>
			<point x="504" y="820" type="curve" smooth="yes"/>
			<point x="528" y="820"/>
			<point x="548" y="814"/>
			<point x="570" y="805" type="curve" smooth="yes"/>
			<point x="591" y="797"/>
			<point x="600" y="792"/>
			<point x="615" y="792" type="curve" smooth="yes"/>
			<point x="662" y="792"/>
			<point x="691" y="864"/>
			<point x="691" y="904" type="curve" smooth="yes"/>
			<point x="691" y="946"/>
			<point x="600" y="1020"/>
			<point x="495" y="1020" type="curve" smooth="yes"/>
			<point x="232" y="1020"/>
			<point x="9" y="687"/>
		</contour>
	</outline>
	<anchor name="bottom" x="298" y="0"/>
	<anchor name="top" x="598" y="1005"/>
</glyph>
<glyph name="b.medi.e" format="2">
	<advance width="1001"/>
	<outline>
		<contour>
			<point x="190" y="1143" type="curve" smooth="yes"/>
			<point x="161" y="1030"/>
			<point x="152" y="988"/>
			<point x="125" y="840" type="curve"/>
			<point x="60" y="619"/>
			<point x="0" y="374"/>
			<point x="0" y="254" type="curve" smooth="yes"/>
			<point x="0" y="85"/>
			<point x="115" y="-22"/>
			<point x="309" y="-22" type="curve" smooth="yes"/>
			<point x="613" y="-22"/>
			<point x="909" y="317"/>
			<point x="909" y="706" type="curve" smooth="yes"/>
			<point x="909" y="937"/>
			<point x="769" y="1020"/>
			<point x="649" y="1020" type="curve" smooth="yes"/>
			<point x="542" y="1020"/>
			<point x="519" y="959"/>
			<point x="519" y="908" type="curve" smooth="yes"/>
			<point x="519" y="866"/>
			<point x="551" y="850"/>
			<point x="604" y="850" type="curve" smooth="yes"/>
			<point x="635" y="850"/>
			<point x="669" y="816"/>
			<point x="669" y="673" type="curve" smooth="yes"/>
			<point x="669" y="367"/>
			<point x="490" y="158"/>
			<point x="343" y="158" type="curve" smooth="yes"/>
			<point x="276" y="158"/>
			<point x="230" y="187"/>
			<point x="230" y="279" type="curve" smooth="yes"/>
			<point x="230" y="398"/>
			<point x="271" y="603"/>
			<point x="344" y="863" type="curve"/>
			<point x="661" y="1173"/>
			<point x="747" y="1326"/>
			<point x="747" y="1458" type="curve" smooth="yes"/>
			<point x="747" y="1569"/>
			<point x="678" y="1625"/>
			<point x="571" y="1625" type="curve" smooth="yes"/>
			<point x="388" y="1625"/>
			<point x="269" y="1453"/>
		</contour>
		<contour>
			<point x="377" y="1097" type="curve"/>
			<point x="388" y="1087" type="line"/>
			<point x="398" y="1142"/>
			<point x="422" y="1264"/>
			<point x="440" y="1324" type="curve" smooth="yes"/>
			<point x="464" y="1405"/>
			<point x="500" y="1437"/>
			<point x="525" y="1437" type="curve" smooth="yes"/>
			<point x="545" y="1437"/>
			<point x="559" y="1424"/>
			<point x="559" y="1395" type="curve" smooth="yes"/>
			<point x="559" y="1326"/>
			<point x="487" y="1214"/>
		</contour>
	</outline>
	<anchor name="bottom" x="311" y="0"/>
	<anchor name="top" x="562" y="1600"/>
</glyph>
<glyph name="b.medi" format="2">
	<advance width="1001"/>
	<outline>
		<contour>
			<point x="190" y="1143" type="curve" smooth="yes"/>
			<point x="161" y="1030"/>
			<point x="152" y="988"/>
			<point x="125" y="840" type="curve"/>
			<point x="60" y="619"/>
			<point x="0" y="374"/>
			<point x="0" y="254" type="curve" smooth="yes"/>
			<point x="0" y="85"/>
			<point x="115" y="-22"/>
			<point x="309" y="-22" type="curve" smooth="yes"/>
			<point x="613" y="-22"/>
			<point x="909" y="317"/>
			<point x="909" y="706" type="curve" smooth="yes"/>
			<point x="909" y="937"/>
			<point x="769" y="1020"/>
			<point x="649" y="1020" type="curve" smooth="yes"/>
			<point x="521" y="1020"/>
			<point x="432" y="933"/>
			<point x="432" y="871" type="curve" smooth="yes"/>
			<point x="432" y="841"/>
			<point x="447" y="822"/>
			<point x="473" y="822" type="curve" smooth="yes"/>
			<point x="497" y="822"/>
			<point x="522" y="826"/>
			<point x="546" y="829" type="curve" smooth="yes"/>
			<point x="569" y="832"/>
			<point x="588" y="834"/>
			<point x="606" y="834" type="curve" smooth="yes"/>
			<point x="647" y="834"/>
			<point x="669" y="803"/>
			<point x="669" y="673" type="curve" smooth="yes"/>
			<point x="669" y="367"/>
			<point x="490" y="158"/>
			<point x="343" y="158" type="curve" smooth="yes"/>
			<point x="276" y="158"/>
			<point x="240" y="187"/>
			<point x="240" y="279" type="curve" smooth="yes"/>
			<point x="240" y="398"/>
			<point x="271" y="603"/>
			<point x="344" y="863" type="curve"/>
			<point x="661" y="1193"/>
			<point x="747" y="1346"/>
			<point x="747" y="1458" type="curve" smooth="yes"/>
			<point x="747" y="1565"/>
			<point x="667" y="1625"/>
			<point x="571" y="1625" type="curve" smooth="yes"/>
			<point x="388" y="1625"/>
			<point x="270" y="1453"/>
		</contour>
		<contour>
			<point x="377" y="1087" type="curve"/>
			<point x="388" y="1087" type="line"/>
			<point x="398" y="1142"/>
			<point x="422" y="1264"/>
			<point x="440" y="1324" type="curve" smooth="yes"/>
			<point x="464" y="1405"/>
			<point x="500" y="1437"/>
			<point x="525" y="1437" type="curve" smooth="yes"/>
			<point x="545" y="1437"/>
			<point x="559" y="1424"/>
			<point x="559" y="1395" type="curve" smooth="yes"/>
			<point x="559" y="1326"/>
			<point x="487" y="1214"/>
		</contour>
	</outline>
	<anchor name="bottom" x="311" y="0"/>
	<anchor name="top" x="562" y="1600"/>
</glyph>
<glyph name="barlongcomb.case" format="2">
	<advance width="1456"/>
	<outline>
		<contour>
			<point x="120" y="1104" type="curve" smooth="yes"/>
			<point x="1331" y="1104" type="line" smooth="yes"/>
			<point x="1379" y="1104"/>
			<point x="1406" y="1137"/>
			<point x="1406" y="1225" type="curve" smooth="yes"/>
			<point x="1406" y="1289"/>
			<point x="1385" y="1319"/>
			<point x="1336" y="1319" type="curve" smooth="yes"/>
			<point x="125" y="1319" type="line" smooth="yes"/>
			<point x="77" y="1319"/>
			<point x="50" y="1286"/>
			<point x="50" y="1199" type="curve" smooth="yes"/>
			<point x="50" y="1134"/>
			<point x="71" y="1104"/>
		</contour>
	</outline>
	<anchor name="_center" x="728" y="1212"/>
</glyph>
<glyph name="caroncomb.case" format="2">
	<outline>
		<contour>
			<point x="684" y="1425" type="curve" smooth="yes"/>
			<point x="659" y="1425"/>
			<point x="632" y="1417"/>
			<point x="587" y="1388" type="curve" smooth="yes"/>
			<point x="365" y="1244" type="line"/>
			<point x="267" y="1376" type="line" smooth="yes"/>
			<point x="242" y="1409"/>
			<point x="222" y="1425"/>
			<point x="181" y="1425" type="curve" smooth="yes"/>
			<point x="126" y="1425"/>
			<point x="50" y="1367"/>
			<point x="50" y="1307" type="curve" smooth="yes"/>
			<point x="50" y="1277"/>
			<point x="61" y="1247"/>
			<point x="140" y="1159" type="curve" smooth="yes"/>
			<point x="251" y="1036"/>
			<point x="275" y="1020"/>
			<point x="315" y="1020" type="curve" smooth="yes"/>
			<point x="355" y="1020"/>
			<point x="380" y="1029"/>
			<point x="549" y="1141" type="curve" smooth="yes"/>
			<point x="755" y="1278"/>
			<point x="763" y="1309"/>
			<point x="763" y="1338" type="curve" smooth="yes"/>
			<point x="763" y="1381"/>
			<point x="726" y="1425"/>
		</contour>
	</outline>
	<anchor name="_top" x="283" y="910"/>
	<anchor name="top" x="427" y="1423"/>
</glyph>
<glyph name="circumflexcomb.case" format="2">
	<outline>
		<contour>
			<point x="129" y="1025" type="curve" smooth="yes"/>
			<point x="154" y="1025"/>
			<point x="181" y="1033"/>
			<point x="226" y="1062" type="curve" smooth="yes"/>
			<point x="448" y="1206" type="line"/>
			<point x="546" y="1074" type="line" smooth="yes"/>
			<point x="571" y="1041"/>
			<point x="591" y="1025"/>
			<point x="632" y="1025" type="curve" smooth="yes"/>
			<point x="687" y="1025"/>
			<point x="763" y="1083"/>
			<point x="763" y="1143" type="curve" smooth="yes"/>
			<point x="763" y="1173"/>
			<point x="752" y="1203"/>
			<point x="673" y="1291" type="curve" smooth="yes"/>
			<point x="562" y="1414"/>
			<point x="538" y="1430"/>
			<point x="498" y="1430" type="curve" smooth="yes"/>
			<point x="458" y="1430"/>
			<point x="433" y="1421"/>
			<point x="264" y="1309" type="curve" smooth="yes"/>
			<point x="58" y="1172"/>
			<point x="50" y="1141"/>
			<point x="50" y="1112" type="curve" smooth="yes"/>
			<point x="50" y="1069"/>
			<point x="87" y="1025"/>
		</contour>
	</outline>
	<anchor name="_top" x="360" y="910"/>
	<anchor name="top" x="498" y="1430"/>
</glyph>
<glyph name="d.medi" format="2">
	<advance width="850"/>
	<outline>
		<contour>
			<point x="898" y="1536" type="curve" smooth="yes"/>
			<point x="602" y="393" type="line" smooth="yes"/>
			<point x="575" y="290"/>
			<point x="561" y="214"/>
			<point x="561" y="178" type="curve" smooth="yes"/>
			<point x="561" y="63"/>
			<point x="647" y="-12"/>
			<point x="787" y="-12" type="curve" smooth="yes"/>
			<point x="843" y="-12"/>
			<point x="904" y="40"/>
			<point x="904" y="120" type="curve" smooth="yes"/>
			<point x="904" y="158"/>
			<point x="889" y="188"/>
			<point x="841" y="188" type="curve" smooth="yes"/>
			<point x="815" y="188"/>
			<point x="801" y="196"/>
			<point x="801" y="219" type="curve" smooth="yes"/>
			<point x="801" y="244"/>
			<point x="806" y="268"/>
			<point x="824" y="335" type="curve" smooth="yes"/>
			<point x="1128" y="1460" type="line" smooth="yes"/>
			<point x="1140" y="1505"/>
			<point x="1143" y="1529"/>
			<point x="1143" y="1541" type="curve" smooth="yes"/>
			<point x="1143" y="1591"/>
			<point x="1081" y="1625"/>
			<point x="1001" y="1625" type="curve" smooth="yes"/>
			<point x="940" y="1625"/>
			<point x="917" y="1610"/>
		</contour>
		<contour>
			<point x="762" y="783" type="curve"/>
			<point x="710" y="808" type="line"/>
			<point x="614" y="480"/>
			<point x="422" y="188"/>
			<point x="323" y="188" type="curve" smooth="yes"/>
			<point x="283" y="188"/>
			<point x="254" y="229"/>
			<point x="254" y="346" type="curve" smooth="yes"/>
			<point x="254" y="591"/>
			<point x="379" y="820"/>
			<point x="504" y="820" type="curve" smooth="yes"/>
			<point x="528" y="820"/>
			<point x="548" y="815"/>
			<point x="570" y="805" type="curve" smooth="yes"/>
			<point x="590" y="796"/>
			<point x="600" y="792"/>
			<point x="615" y="792" type="curve" smooth="yes"/>
			<point x="662" y="792"/>
			<point x="691" y="864"/>
			<point x="691" y="904" type="curve" smooth="yes"/>
			<point x="691" y="946"/>
			<point x="600" y="1020"/>
			<point x="495" y="1020" type="curve" smooth="yes"/>
			<point x="232" y="1020"/>
			<point x="9" y="687"/>
			<point x="9" y="306" type="curve" smooth="yes"/>
			<point x="9" y="91"/>
			<point x="114" y="-12"/>
			<point x="219" y="-12" type="curve" smooth="yes"/>
			<point x="408" y="-12"/>
			<point x="631" y="289"/>
		</contour>
	</outline>
	<anchor name="bottom" x="275" y="0"/>
	<anchor name="center" x="835" y="1210"/>
	<anchor name="ogonek" x="640" y="0"/>
	<anchor name="top" x="1030" y="1600"/>
	<anchor name="topright" x="1158" y="1600"/>
</glyph>
<glyph name="dieresiscomb.case" format="2">
	<outline>
		<contour>
			<point x="163" y="1095" type="curve" smooth="yes"/>
			<point x="244" y="1095"/>
			<point x="319" y="1162"/>
			<point x="319" y="1256" type="curve" smooth="yes"/>
			<point x="319" y="1327"/>
			<point x="276" y="1373"/>
			<point x="205" y="1373" type="curve" smooth="yes"/>
			<point x="123" y="1373"/>
			<point x="50" y="1309"/>
			<point x="50" y="1216" type="curve" smooth="yes"/>
			<point x="50" y="1148"/>
			<point x="90" y="1095"/>
		</contour>
		<contour>
			<point x="604" y="1095" type="curve" smooth="yes"/>
			<point x="687" y="1095"/>
			<point x="763" y="1163"/>
			<point x="763" y="1256" type="curve" smooth="yes"/>
			<point x="763" y="1327"/>
			<point x="718" y="1373"/>
			<point x="647" y="1373" type="curve" smooth="yes"/>
			<point x="565" y="1373"/>
			<point x="494" y="1310"/>
			<point x="494" y="1216" type="curve" smooth="yes"/>
			<point x="494" y="1148"/>
			<point x="532" y="1095"/>
		</contour>
	</outline>
	<anchor name="_top" x="341" y="925"/>
	<anchor name="top" x="426" y="1373"/>
</glyph>
<glyph name="e.medi" format="2">
	<advance width="433"/>
	<outline>
		<contour>
			<point x="151" y="391" type="curve"/>
			<point x="151" y="241" type="line"/>
			<point x="531" y="421"/>
			<point x="720" y="641"/>
			<point x="720" y="808" type="curve" smooth="yes"/>
			<point x="720" y="944"/>
			<point x="626" y="1020"/>
			<point x="488" y="1020" type="curve" smooth="yes"/>
			<point x="234" y="1020"/>
			<point x="0" y="725"/>
			<point x="0" y="389" type="curve" smooth="yes"/>
			<point x="0" y="124"/>
			<point x="179" y="-12"/>
			<point x="370" y="-12" type="curve" smooth="yes"/>
			<point x="438" y="-12"/>
			<point x="476" y="46"/>
			<point x="476" y="113" type="curve" smooth="yes"/>
			<point x="476" y="159"/>
			<point x="458" y="188"/>
			<point x="423" y="188" type="curve" smooth="yes"/>
			<point x="304" y="188"/>
			<point x="230" y="257"/>
			<point x="230" y="446" type="curve" smooth="yes"/>
			<point x="230" y="638"/>
			<point x="332" y="820"/>
			<point x="424" y="820" type="curve" smooth="yes"/>
			<point x="462" y="820"/>
			<point x="490" y="798"/>
			<point x="490" y="751" type="curve" smooth="yes"/>
			<point x="490" y="657"/>
			<point x="412" y="521"/>
		</contour>
	</outline>
	<anchor name="bottom" x="361" y="0"/>
	<anchor name="ogonek" x="490" y="0"/>
	<anchor name="top" x="478" y="1005"/>
</glyph>
